<svg width="31" height="32" viewBox="0 0 31 32" fill="none" xmlns="http://www.w3.org/2000/svg">
<path d="M28.5115 26.6306C28.5115 26.6281 26.492 21.3656 26.49 21.3631C25.7713 19.5002 25.0546 17.6365 24.34 15.7721L23.075 12.4791C22.1355 7.65008 8.2 20.8406 10.718 23.7671C10.9134 23.9615 11.1717 24.0801 11.4465 24.1016L14.739 25.3661C16.1355 25.9031 18.939 26.9826 20.333 27.5211L22.9875 28.5411C22.9999 28.546 23.0126 28.5502 23.0255 28.5536L25.5595 29.5266C25.5787 29.5353 25.5984 29.5428 25.6185 29.5491L29.282 30.9611C29.3723 30.9959 29.4708 31.0038 29.5655 30.9838C29.6603 30.9637 29.7471 30.9166 29.8156 30.8482C29.8841 30.7797 29.9312 30.6928 29.9512 30.5981C29.9713 30.5034 29.9634 30.4049 29.9285 30.3146L28.5115 26.6306ZM27.1115 27.0851C26.6504 27.5748 26.1699 28.0459 25.671 28.4971L24.141 27.9101C25.1149 27.0568 26.0294 26.138 26.878 25.1601L27.4685 26.7001C27.35 26.8276 27.2305 26.9571 27.11 27.0851H27.1115ZM12.1115 20.9616C13.7615 17.7811 20.189 12.0191 21.981 12.4261C22.0283 12.4529 22.0647 12.4952 22.0842 12.546C22.1036 12.5967 22.1048 12.6526 22.0875 12.7041C21.4778 14.3919 20.5576 15.9507 19.3745 17.3001C19.2941 17.4014 19.2562 17.53 19.2686 17.6587C19.281 17.7875 19.3428 17.9064 19.441 17.9905C19.5393 18.0747 19.6663 18.1175 19.7954 18.1099C19.9245 18.1024 20.0457 18.0451 20.1335 17.9501C21.1422 16.8256 21.9947 15.5703 22.668 14.2181L23.321 15.9181C21.2651 19.395 18.3633 22.2956 14.8855 24.3501L13.188 23.7001C14.7483 22.8982 16.1888 21.8821 17.4675 20.6811C17.5624 20.5913 17.6184 20.468 17.6235 20.3375C17.6287 20.207 17.5825 20.0797 17.495 19.9827C17.4075 19.8858 17.2855 19.827 17.1551 19.8188C17.0248 19.8107 16.8964 19.8538 16.7975 19.9391C15.2969 21.301 13.561 22.3784 11.6745 23.1186C11.6243 23.1403 11.5676 23.1414 11.5166 23.1218C11.4655 23.1022 11.4242 23.0633 11.4015 23.0136C11.3335 22.8001 11.4235 22.1446 12.1115 20.9616ZM16.2395 24.7211C19.2417 22.7236 21.8085 20.1393 23.7855 17.1236L24.4105 18.7486C22.6072 21.3692 20.3393 23.6374 17.719 25.4411L16.0935 24.8156C16.1415 24.7856 16.191 24.7501 16.2395 24.7211ZM18.9175 25.8281C21.1793 24.1525 23.1776 22.1478 24.846 19.8806L25.4555 21.4636C24.0029 23.346 22.3146 25.0342 20.432 26.4866L18.85 25.8776C18.8735 25.8621 18.896 25.8441 18.9175 25.8281ZM21.545 26.8881C23.1317 25.5932 24.5829 24.1408 25.8765 22.5531L26.47 24.1001C25.4395 25.3305 24.3043 26.4693 23.077 27.5036L21.5225 26.9036L21.545 26.8881ZM26.7115 28.9001C27.108 28.5252 27.4935 28.1389 27.8675 27.7416L28.5935 29.6251L26.7115 28.9001ZM1.418 5.98958C1.597 6.00258 1.9615 5.91808 2.073 6.10858C2.18844 6.35855 2.36942 6.57259 2.59672 6.72797C2.82403 6.88336 3.08917 6.97428 3.364 6.99108C3.64101 6.99209 3.91102 6.90411 4.13426 6.7401C4.3575 6.57609 4.52216 6.34473 4.604 6.08008C4.6715 5.91408 4.704 5.54108 4.92 5.49458C5.2295 5.46373 5.5211 5.33502 5.75245 5.12714C5.9838 4.91925 6.14285 4.64303 6.2065 4.33858C6.23969 4.02958 6.17366 3.71803 6.01796 3.44907C5.86226 3.1801 5.62499 2.96768 5.3405 2.84258C5.1495 2.73308 5.233 2.36258 5.2205 2.18708C5.22087 1.94645 5.15457 1.71041 5.02896 1.50517C4.90335 1.29992 4.72334 1.13348 4.50889 1.02431C4.29444 0.915147 4.05395 0.867522 3.81408 0.886721C3.57421 0.905921 3.34435 0.991194 3.15 1.13308L2.821 1.37808C2.6585 1.52808 2.3315 1.33158 2.161 1.28958C1.93251 1.21545 1.68798 1.20596 1.45443 1.26214C1.22088 1.31832 1.00741 1.438 0.837638 1.60793C0.66786 1.77786 0.548382 1.99143 0.492414 2.22503C0.436445 2.45863 0.446165 2.70316 0.5205 2.93158C0.5705 3.10508 0.754 3.42658 0.6095 3.59158L0.364 3.92008C0.222777 4.11453 0.138058 4.34423 0.119202 4.5838C0.100345 4.82338 0.148087 5.06351 0.257151 5.27765C0.366215 5.4918 0.532356 5.67162 0.737216 5.79726C0.942077 5.9229 1.17768 5.98945 1.418 5.98958ZM1.168 4.51808C1.37203 4.32882 1.52021 4.08719 1.59638 3.81952C1.67256 3.55185 1.67381 3.26841 1.6 3.00008L1.4685 2.61158C1.45058 2.55947 1.44767 2.50337 1.46009 2.44968C1.47251 2.396 1.49978 2.34688 1.53877 2.30794C1.57776 2.269 1.62691 2.24181 1.68062 2.22945C1.73432 2.2171 1.79041 2.22009 1.8425 2.23808L2.23 2.36858C2.49878 2.44282 2.78282 2.4416 3.05095 2.36504C3.31908 2.28848 3.56094 2.13955 3.75 1.93458C3.7941 1.90164 3.84654 1.8817 3.90138 1.87701C3.95623 1.87232 4.01129 1.88307 4.06034 1.90804C4.1094 1.93301 4.15049 1.9712 4.17897 2.01831C4.20745 2.06541 4.22218 2.11954 4.2215 2.17458L4.2165 2.58508C4.22961 2.86349 4.31894 3.13295 4.47474 3.36405C4.63054 3.59515 4.84683 3.77902 5.1 3.89558C5.14492 3.92739 5.18005 3.97112 5.20141 4.02185C5.22277 4.07258 5.22952 4.12827 5.22088 4.18263C5.21225 4.23698 5.18858 4.28784 5.15255 4.32945C5.11652 4.37106 5.06957 4.40176 5.017 4.41808L4.6255 4.53958C4.36453 4.63766 4.13553 4.80556 3.9635 5.02494C3.79147 5.24432 3.68302 5.50676 3.65 5.78358C3.63378 5.83624 3.60311 5.8833 3.56147 5.9194C3.51984 5.9555 3.46891 5.97919 3.41448 5.98779C3.36005 5.99638 3.3043 5.98953 3.25357 5.96802C3.20284 5.9465 3.15916 5.91118 3.1275 5.86608L2.8905 5.53158C2.71638 5.31386 2.4858 5.14817 2.22392 5.05258C1.96203 4.957 1.67893 4.93521 1.4055 4.98958C1.35111 4.98737 1.29816 4.97146 1.25157 4.94331C1.20498 4.91516 1.16626 4.8757 1.139 4.82858C1.11329 4.7797 1.10212 4.72448 1.10681 4.66945C1.11151 4.61442 1.13188 4.56189 1.1655 4.51808H1.168ZM27 11.0001V11.5001C27 11.6327 27.0527 11.7599 27.1464 11.8536C27.2402 11.9474 27.3674 12.0001 27.5 12.0001C27.6326 12.0001 27.7598 11.9474 27.8536 11.8536C27.9473 11.7599 28 11.6327 28 11.5001V11.0001C28 10.8675 27.9473 10.7403 27.8536 10.6465C27.7598 10.5528 27.6326 10.5001 27.5 10.5001C27.3674 10.5001 27.2402 10.5528 27.1464 10.6465C27.0527 10.7403 27 10.8675 27 11.0001ZM29.5 9.00008H29C28.8674 9.00008 28.7402 9.05276 28.6464 9.14653C28.5527 9.24029 28.5 9.36747 28.5 9.50008C28.5 9.63269 28.5527 9.75987 28.6464 9.85363C28.7402 9.9474 28.8674 10.0001 29 10.0001H29.5C29.6326 10.0001 29.7598 9.9474 29.8536 9.85363C29.9473 9.75987 30 9.63269 30 9.50008C30 9.36747 29.9473 9.24029 29.8536 9.14653C29.7598 9.05276 29.6326 9.00008 29.5 9.00008ZM28 7.50008C28 7.36747 27.9473 7.2403 27.8536 7.14653C27.7598 7.05276 27.6326 7.00008 27.5 7.00008C27.3674 7.00008 27.2402 7.05276 27.1464 7.14653C27.0527 7.2403 27 7.36747 27 7.50008V8.00008C27 8.13269 27.0527 8.25987 27.1464 8.35363C27.2402 8.4474 27.3674 8.50008 27.5 8.50008C27.6326 8.50008 27.7598 8.4474 27.8536 8.35363C27.9473 8.25987 28 8.13269 28 8.00008V7.50008ZM25.5 10.0001H26C26.1326 10.0001 26.2598 9.9474 26.3536 9.85363C26.4473 9.75987 26.5 9.63269 26.5 9.50008C26.5 9.36747 26.4473 9.24029 26.3536 9.14653C26.2598 9.05276 26.1326 9.00008 26 9.00008H25.5C25.3674 9.00008 25.2402 9.05276 25.1464 9.14653C25.0527 9.24029 25 9.36747 25 9.50008C25 9.63269 25.0527 9.75987 25.1464 9.85363C25.2402 9.9474 25.3674 10.0001 25.5 10.0001ZM27.5 9.00008C27.3674 9.00008 27.2402 9.05276 27.1464 9.14653C27.0527 9.24029 27 9.36747 27 9.50008C27 9.63269 27.0527 9.75987 27.1464 9.85363C27.2402 9.9474 27.3674 10.0001 27.5 10.0001C27.6326 10.0001 27.7598 9.9474 27.8536 9.85363C27.9473 9.75987 28 9.63269 28 9.50008C28 9.36747 27.9473 9.24029 27.8536 9.14653C27.7598 9.05276 27.6326 9.00008 27.5 9.00008ZM10.5 6.00008C10.6326 6.00008 10.7598 5.9474 10.8536 5.85363C10.9473 5.75987 11 5.63269 11 5.50008V5.00008C11 4.86747 10.9473 4.7403 10.8536 4.64653C10.7598 4.55276 10.6326 4.50008 10.5 4.50008C10.3674 4.50008 10.2402 4.55276 10.1464 4.64653C10.0527 4.7403 10 4.86747 10 5.00008V5.50008C10 5.63269 10.0527 5.75987 10.1464 5.85363C10.2402 5.9474 10.3674 6.00008 10.5 6.00008ZM12 4.00008H12.5C12.6326 4.00008 12.7598 3.9474 12.8536 3.85363C12.9473 3.75987 13 3.63269 13 3.50008C13 3.36747 12.9473 3.2403 12.8536 3.14653C12.7598 3.05276 12.6326 3.00008 12.5 3.00008H12C11.8674 3.00008 11.7402 3.05276 11.6464 3.14653C11.5527 3.2403 11.5 3.36747 11.5 3.50008C11.5 3.63269 11.5527 3.75987 11.6464 3.85363C11.7402 3.9474 11.8674 4.00008 12 4.00008ZM10.5 2.50008C10.6326 2.50008 10.7598 2.4474 10.8536 2.35363C10.9473 2.25987 11 2.13269 11 2.00008V1.50008C11 1.36747 10.9473 1.2403 10.8536 1.14653C10.7598 1.05276 10.6326 1.00008 10.5 1.00008C10.3674 1.00008 10.2402 1.05276 10.1464 1.14653C10.0527 1.2403 10 1.36747 10 1.50008V2.00008C10 2.13269 10.0527 2.25987 10.1464 2.35363C10.2402 2.4474 10.3674 2.50008 10.5 2.50008ZM8.5 4.00008H9C9.13261 4.00008 9.25979 3.9474 9.35355 3.85363C9.44732 3.75987 9.5 3.63269 9.5 3.50008C9.5 3.36747 9.44732 3.2403 9.35355 3.14653C9.25979 3.05276 9.13261 3.00008 9 3.00008H8.5C8.36739 3.00008 8.24021 3.05276 8.14645 3.14653C8.05268 3.2403 8 3.36747 8 3.50008C8 3.63269 8.05268 3.75987 8.14645 3.85363C8.24021 3.9474 8.36739 4.00008 8.5 4.00008ZM10.5 4.00008C10.6326 4.00008 10.7598 3.9474 10.8536 3.85363C10.9473 3.75987 11 3.63269 11 3.50008C11 3.36747 10.9473 3.2403 10.8536 3.14653C10.7598 3.05276 10.6326 3.00008 10.5 3.00008C10.3674 3.00008 10.2402 3.05276 10.1464 3.14653C10.0527 3.2403 10 3.36747 10 3.50008C10 3.63269 10.0527 3.75987 10.1464 3.85363C10.2402 3.9474 10.3674 4.00008 10.5 4.00008ZM2 13.0001V13.5001C2 13.6327 2.05268 13.7599 2.14645 13.8536C2.24021 13.9474 2.36739 14.0001 2.5 14.0001C2.63261 14.0001 2.75979 13.9474 2.85355 13.8536C2.94732 13.7599 3 13.6327 3 13.5001V13.0001C3 12.8675 2.94732 12.7403 2.85355 12.6465C2.75979 12.5528 2.63261 12.5001 2.5 12.5001C2.36739 12.5001 2.24021 12.5528 2.14645 12.6465C2.05268 12.7403 2 12.8675 2 13.0001ZM4.5 11.0001H4C3.86739 11.0001 3.74021 11.0528 3.64645 11.1465C3.55268 11.2403 3.5 11.3675 3.5 11.5001C3.5 11.6327 3.55268 11.7599 3.64645 11.8536C3.74021 11.9474 3.86739 12.0001 4 12.0001H4.5C4.63261 12.0001 4.75979 11.9474 4.85355 11.8536C4.94732 11.7599 5 11.6327 5 11.5001C5 11.3675 4.94732 11.2403 4.85355 11.1465C4.75979 11.0528 4.63261 11.0001 4.5 11.0001ZM3 9.50008C3 9.36747 2.94732 9.24029 2.85355 9.14653C2.75979 9.05276 2.63261 9.00008 2.5 9.00008C2.36739 9.00008 2.24021 9.05276 2.14645 9.14653C2.05268 9.24029 2 9.36747 2 9.50008V10.0001C2 10.1327 2.05268 10.2599 2.14645 10.3536C2.24021 10.4474 2.36739 10.5001 2.5 10.5001C2.63261 10.5001 2.75979 10.4474 2.85355 10.3536C2.94732 10.2599 3 10.1327 3 10.0001V9.50008ZM0.5 12.0001H1C1.13261 12.0001 1.25979 11.9474 1.35355 11.8536C1.44732 11.7599 1.5 11.6327 1.5 11.5001C1.5 11.3675 1.44732 11.2403 1.35355 11.1465C1.25979 11.0528 1.13261 11.0001 1 11.0001H0.5C0.367392 11.0001 0.240215 11.0528 0.146447 11.1465C0.0526784 11.2403 0 11.3675 0 11.5001C0 11.6327 0.0526784 11.7599 0.146447 11.8536C0.240215 11.9474 0.367392 12.0001 0.5 12.0001ZM2.5 11.0001C2.36739 11.0001 2.24021 11.0528 2.14645 11.1465C2.05268 11.2403 2 11.3675 2 11.5001C2 11.6327 2.05268 11.7599 2.14645 11.8536C2.24021 11.9474 2.36739 12.0001 2.5 12.0001C2.63261 12.0001 2.75979 11.9474 2.85355 11.8536C2.94732 11.7599 3 11.6327 3 11.5001C3 11.3675 2.94732 11.2403 2.85355 11.1465C2.75979 11.0528 2.63261 11.0001 2.5 11.0001ZM9.5 29.5001C9.36739 29.5001 9.24021 29.5528 9.14645 29.6465C9.05268 29.7403 9 29.8675 9 30.0001V30.5001C9 30.6327 9.05268 30.7599 9.14645 30.8536C9.24021 30.9474 9.36739 31.0001 9.5 31.0001C9.63261 31.0001 9.75979 30.9474 9.85355 30.8536C9.94732 30.7599 10 30.6327 10 30.5001V30.0001C10 29.8675 9.94732 29.7403 9.85355 29.6465C9.75979 29.5528 9.63261 29.5001 9.5 29.5001ZM11.5 28.0001H11C10.8674 28.0001 10.7402 28.0528 10.6464 28.1465C10.5527 28.2403 10.5 28.3675 10.5 28.5001C10.5 28.6327 10.5527 28.7599 10.6464 28.8536C10.7402 28.9474 10.8674 29.0001 11 29.0001H11.5C11.6326 29.0001 11.7598 28.9474 11.8536 28.8536C11.9473 28.7599 12 28.6327 12 28.5001C12 28.3675 11.9473 28.2403 11.8536 28.1465C11.7598 28.0528 11.6326 28.0001 11.5 28.0001ZM9.5 26.0001C9.36739 26.0001 9.24021 26.0528 9.14645 26.1465C9.05268 26.2403 9 26.3675 9 26.5001V27.0001C9 27.1327 9.05268 27.2599 9.14645 27.3536C9.24021 27.4474 9.36739 27.5001 9.5 27.5001C9.63261 27.5001 9.75979 27.4474 9.85355 27.3536C9.94732 27.2599 10 27.1327 10 27.0001V26.5001C10 26.3675 9.94732 26.2403 9.85355 26.1465C9.75979 26.0528 9.63261 26.0001 9.5 26.0001ZM8 28.0001H7.5C7.36739 28.0001 7.24021 28.0528 7.14645 28.1465C7.05268 28.2403 7 28.3675 7 28.5001C7 28.6327 7.05268 28.7599 7.14645 28.8536C7.24021 28.9474 7.36739 29.0001 7.5 29.0001H8C8.13261 29.0001 8.25979 28.9474 8.35355 28.8536C8.44732 28.7599 8.5 28.6327 8.5 28.5001C8.5 28.3675 8.44732 28.2403 8.35355 28.1465C8.25979 28.0528 8.13261 28.0001 8 28.0001ZM9.5 28.0001C9.36739 28.0001 9.24021 28.0528 9.14645 28.1465C9.05268 28.2403 9 28.3675 9 28.5001C9 28.6327 9.05268 28.7599 9.14645 28.8536C9.24021 28.9474 9.36739 29.0001 9.5 29.0001C9.63261 29.0001 9.75979 28.9474 9.85355 28.8536C9.94732 28.7599 10 28.6327 10 28.5001C10 28.3675 9.94732 28.2403 9.85355 28.1465C9.75979 28.0528 9.63261 28.0001 9.5 28.0001ZM9.409 20.9916C9.53844 21.0137 9.67139 20.984 9.77911 20.9089C9.88684 20.8338 9.9607 20.7193 9.98473 20.5902C10.0088 20.4611 9.98105 20.3278 9.90756 20.2189C9.83408 20.1101 9.72073 20.0345 9.592 20.0086C6.9605 19.5196 2.1205 20.3341 1.505 25.4301C1.48817 25.5605 1.5234 25.6923 1.60307 25.797C1.68274 25.9016 1.80042 25.9706 1.93063 25.9891C2.06084 26.0076 2.19309 25.974 2.29872 25.8957C2.40436 25.8173 2.47488 25.7005 2.495 25.5706C3 21.1266 7.28 20.6131 9.409 20.9916ZM10.7645 16.9241C10.8768 16.854 10.9568 16.7422 10.9868 16.6132C11.0168 16.4842 10.9944 16.3486 10.9245 16.2361C10.863 16.1361 9.385 13.7966 7.3435 13.5636C6.83998 13.5194 6.33314 13.5945 5.86404 13.7827C5.39495 13.971 4.97681 14.2671 4.6435 14.6471C4.59581 14.6933 4.55781 14.7485 4.53169 14.8095C4.50558 14.8706 4.49188 14.9362 4.4914 15.0026C4.49092 15.069 4.50366 15.1348 4.52889 15.1962C4.55412 15.2576 4.59132 15.3134 4.63833 15.3603C4.68534 15.4071 4.74122 15.4442 4.8027 15.4692C4.86418 15.4943 4.93004 15.5069 4.99642 15.5062C5.06281 15.5055 5.1284 15.4916 5.18936 15.4653C5.25032 15.4391 5.30544 15.4009 5.3515 15.3531C7.329 13.1906 9.6165 15.9981 10.073 16.7646C10.1078 16.8206 10.1533 16.8693 10.2069 16.9077C10.2606 16.9461 10.3213 16.9735 10.3855 16.9883C10.4498 17.0031 10.5164 17.0051 10.5814 16.994C10.6465 16.983 10.7087 16.9592 10.7645 16.9241ZM19.8405 10.6581C19.9147 10.6582 19.9881 10.6419 20.0552 10.6102C20.1223 10.5784 20.1815 10.5322 20.2286 10.4747C20.2756 10.4173 20.3092 10.3501 20.327 10.278C20.3448 10.2059 20.3463 10.1308 20.3315 10.0581C20.1032 8.6808 20.3708 7.26721 21.0865 6.06858C21.807 5.00008 22.988 4.30008 24.594 3.99108C24.7222 3.9641 24.8347 3.88787 24.9073 3.77878C24.9799 3.66969 25.0068 3.53647 24.9821 3.40778C24.9575 3.27908 24.8833 3.16521 24.7756 3.09064C24.6678 3.01608 24.5351 2.98679 24.406 3.00908C22.5235 3.37008 21.1255 4.21558 20.2505 5.52108C19.3839 6.93806 19.0638 8.62251 19.3505 10.2586C19.3737 10.3714 19.4351 10.4728 19.5243 10.5456C19.6136 10.6184 19.7253 10.6581 19.8405 10.6581ZM15.5565 12.0701C15.6105 12.1075 15.6713 12.1339 15.7355 12.1479C15.7997 12.1618 15.866 12.1629 15.9306 12.1512C15.9952 12.1395 16.0569 12.1152 16.1122 12.0797C16.1674 12.0441 16.2151 11.9981 16.2525 11.9441C16.2899 11.8901 16.3164 11.8293 16.3303 11.7651C16.3442 11.7009 16.3453 11.6346 16.3336 11.57C16.3219 11.5054 16.2976 11.4437 16.2621 11.3884C16.2265 11.3332 16.1805 11.2855 16.1265 11.2481C16.0045 11.1631 13.1515 9.13558 14.4405 6.73708C14.5034 6.62025 14.5172 6.48324 14.4791 6.35618C14.4409 6.22913 14.3538 6.12244 14.237 6.05958C14.1202 5.99672 13.9832 5.98285 13.8561 6.02102C13.729 6.05918 13.6224 6.14625 13.5595 6.26308C12.1895 8.81308 14.2665 11.1766 15.5565 12.0701ZM6.1465 7.85358L13.1465 14.8536C13.1926 14.9013 13.2478 14.9394 13.3088 14.9656C13.3698 14.9918 13.4354 15.0056 13.5018 15.0062C13.5682 15.0068 13.634 14.9941 13.6955 14.969C13.7569 14.9439 13.8128 14.9067 13.8597 14.8598C13.9066 14.8128 13.9438 14.757 13.9689 14.6956C13.9941 14.6341 14.0067 14.5683 14.0061 14.5019C14.0055 14.4355 13.9918 14.3699 13.9656 14.3089C13.9393 14.2479 13.9013 14.1927 13.8535 14.1466L6.8535 7.14658C6.7592 7.0555 6.6329 7.0051 6.5018 7.00624C6.3707 7.00738 6.24529 7.05997 6.15259 7.15267C6.05989 7.24538 6.0073 7.37078 6.00616 7.50188C6.00502 7.63298 6.05542 7.75928 6.1465 7.85358ZM15.74 4.18058L15.9575 4.23658C15.9759 4.43844 16.0553 4.62994 16.185 4.78569C16.3148 4.94143 16.4888 5.05407 16.684 5.10868C16.8792 5.16328 17.0864 5.15727 17.2781 5.09145C17.4698 5.02562 17.637 4.90308 17.7575 4.74008L17.877 4.55108C18.0748 4.59619 18.2817 4.58006 18.4701 4.50483C18.6585 4.4296 18.8196 4.29883 18.932 4.12988C19.0444 3.96094 19.1027 3.76181 19.0992 3.55894C19.0957 3.35608 19.0306 3.15907 18.9125 2.99408L18.7695 2.82258C18.8732 2.64845 18.9216 2.44691 18.9082 2.24467C18.8949 2.04242 18.8203 1.84901 18.6945 1.69009C18.5687 1.53116 18.3976 1.41421 18.2038 1.35474C18.0101 1.29527 17.8028 1.29609 17.6095 1.35708L17.4015 1.43958C17.268 1.28703 17.0913 1.17865 16.8948 1.12882C16.6983 1.07898 16.4913 1.09005 16.3012 1.16054C16.1111 1.23104 15.947 1.35764 15.8305 1.52355C15.714 1.68947 15.6507 1.88687 15.649 2.08958L15.663 2.31308C15.4767 2.39295 15.3191 2.52756 15.211 2.69906C15.1029 2.87055 15.0495 3.07084 15.0579 3.27337C15.0662 3.4759 15.1359 3.67111 15.2578 3.83313C15.3796 3.99514 15.5478 4.11631 15.74 4.18058ZM16.608 2.09608L16.2415 3.12908C16.3704 3.03759 16.4751 2.91617 16.5467 2.77525C16.6183 2.63433 16.6546 2.47813 16.6525 2.32008L16.636 2.11708C16.7727 2.25371 16.9439 2.3506 17.1315 2.39737C17.319 2.44414 17.5157 2.43902 17.7005 2.38258L17.9005 2.27108C17.8071 2.44724 17.7638 2.64562 17.7753 2.84466C17.7868 3.0437 17.8525 3.2358 17.9655 3.40008L18.1335 3.55458C17.9372 3.52039 17.7353 3.54057 17.5497 3.61293C17.3641 3.68529 17.2018 3.80707 17.0805 3.96508L16.985 4.17258C16.9566 3.97565 16.8749 3.79024 16.7487 3.63644C16.6225 3.48264 16.4566 3.36632 16.269 3.30008L16.043 3.27258L16.608 2.09608ZM26.4065 3.45008C26.3117 3.62899 26.2734 3.83246 26.2968 4.03358C26.3201 4.23471 26.404 4.42401 26.5372 4.57645C26.6705 4.72889 26.8469 4.83729 27.0431 4.88731C27.2393 4.93733 27.446 4.92661 27.636 4.85658L27.8415 4.76358C27.9824 4.90902 28.1641 5.00826 28.3626 5.04818C28.5611 5.08811 28.7671 5.06683 28.9532 4.98717C29.1394 4.90751 29.2969 4.77321 29.4051 4.60204C29.5133 4.43088 29.5669 4.23091 29.559 4.02858L29.534 3.80508C29.716 3.71601 29.8666 3.57375 29.9659 3.39716C30.0653 3.22057 30.1086 3.01797 30.0902 2.8162C30.0719 2.61442 29.9926 2.42299 29.863 2.26725C29.7334 2.11151 29.5596 1.99881 29.3645 1.94408L29.1455 1.89958C29.1172 1.69888 29.0285 1.51153 28.8913 1.36235C28.7541 1.21318 28.5747 1.10923 28.3771 1.06428C28.1794 1.01933 27.9728 1.0355 27.7846 1.11065C27.5963 1.1858 27.4354 1.31638 27.323 1.48508L27.213 1.67958C27.0134 1.64453 26.8078 1.67095 26.6236 1.75535C26.4393 1.83975 26.2851 1.97814 26.1813 2.15218C26.0774 2.32622 26.0289 2.52771 26.0422 2.72993C26.0554 2.93216 26.1298 3.12558 26.2555 3.28458L26.4065 3.45008ZM27.25 2.67658C27.4081 2.67046 27.5623 2.62603 27.6994 2.54712C27.8365 2.46821 27.9523 2.35718 28.037 2.22358L28.137 2.04558C28.1761 2.23458 28.266 2.40935 28.397 2.55109C28.528 2.69284 28.6952 2.7962 28.8805 2.85008L29.1075 2.86608C28.9336 2.96263 28.7893 3.10484 28.6903 3.27737C28.5912 3.4499 28.5412 3.64619 28.5455 3.84508L28.6005 4.06708C28.4552 3.93116 28.2754 3.83764 28.0807 3.79665C27.886 3.75566 27.6838 3.76878 27.496 3.83458L27.302 3.95608C27.3863 3.7756 27.4195 3.57549 27.3982 3.37745C27.3769 3.17941 27.3018 2.99098 27.181 2.83258L27.0065 2.68608L27.25 2.67658ZM3.693 28.4056C3.75998 28.2143 3.76728 28.0073 3.71394 27.8118C3.66059 27.6163 3.54912 27.4416 3.39428 27.3109C3.23944 27.1802 3.04854 27.0996 2.84688 27.0798C2.64521 27.06 2.44229 27.102 2.265 27.2001L2.0775 27.3221C1.91639 27.1993 1.7218 27.1284 1.5195 27.1187C1.31719 27.1089 1.11669 27.1609 0.944549 27.2676C0.772404 27.3743 0.636725 27.5308 0.555468 27.7163C0.474211 27.9019 0.451207 28.1077 0.4895 28.3066L0.5475 28.5231C0.380848 28.6382 0.253075 28.8012 0.181092 28.9905C0.109109 29.1798 0.0963082 29.3865 0.144385 29.5833C0.192461 29.78 0.299147 29.9575 0.450325 30.0923C0.601503 30.2271 0.790045 30.3128 0.991 30.3381L1.216 30.3486C1.27392 30.5427 1.38946 30.7147 1.54729 30.8417C1.70513 30.9688 1.89783 31.0448 2.09988 31.0599C2.30192 31.075 2.50377 31.0283 2.67871 30.9261C2.85365 30.8239 2.99341 30.671 3.0795 30.4876L3.159 30.2781C3.36168 30.2831 3.56111 30.2264 3.73084 30.1155C3.90057 30.0047 4.03259 29.8448 4.10938 29.6571C4.18617 29.4695 4.20411 29.263 4.16083 29.0649C4.11754 28.8668 4.01507 28.6866 3.867 28.5481L3.693 28.4056ZM2.9725 29.2936C2.81726 29.3233 2.67156 29.3903 2.54796 29.4888C2.42437 29.5873 2.32657 29.7144 2.263 29.8591L2.213 30.0811C2.14647 29.8935 2.02992 29.7277 1.87596 29.6016C1.722 29.4755 1.53649 29.3939 1.3395 29.3656L1.135 29.3586C1.28655 29.2385 1.40252 29.0794 1.47044 28.8984C1.53836 28.7173 1.55567 28.5212 1.5205 28.3311L1.4335 28.1211C1.59771 28.2336 1.78958 28.299 1.98832 28.3103C2.18707 28.3216 2.38511 28.2783 2.561 28.1851L2.734 28.0351C2.67761 28.2261 2.67453 28.4289 2.72512 28.6216C2.77571 28.8142 2.87803 28.9894 3.021 29.1281L3.217 29.2471L2.9725 29.2936ZM0.462 18.6171C0.3863 18.8052 0.369556 19.0118 0.413989 19.2096C0.458423 19.4074 0.561934 19.5871 0.710798 19.7247C0.859662 19.8623 1.04685 19.9515 1.24753 19.9803C1.44822 20.0091 1.65292 19.9763 1.8345 19.8861L2.027 19.7721C2.18252 19.902 2.37386 19.9817 2.57566 20.0004C2.77746 20.0192 2.9802 19.9762 3.15701 19.8771C3.33383 19.7781 3.47637 19.6276 3.56575 19.4457C3.65512 19.2638 3.68712 19.0591 3.6575 18.8586L3.6075 18.6401C3.77917 18.5323 3.91403 18.3749 3.99421 18.1887C4.07439 18.0025 4.0961 17.7964 4.05646 17.5976C4.01682 17.3988 3.91771 17.2168 3.77226 17.0756C3.6268 16.9344 3.44188 16.8408 3.242 16.8071L3.019 16.7861C2.96948 16.5897 2.86149 16.4129 2.70932 16.2793C2.55715 16.1456 2.36797 16.0613 2.16682 16.0375C1.96568 16.0137 1.76205 16.0515 1.58289 16.146C1.40373 16.2405 1.25748 16.3872 1.1635 16.5666L1.074 16.7721C0.871849 16.7584 0.670303 16.8064 0.496053 16.9098C0.321803 17.0132 0.18307 17.1671 0.0982282 17.3511C0.0133861 17.535 -0.0135626 17.7405 0.0209513 17.9401C0.0554651 18.1398 0.149813 18.3242 0.2915 18.4691L0.462 18.6171ZM1.2195 17.7611C1.37591 17.7387 1.5245 17.6785 1.6524 17.5857C1.7803 17.4929 1.88365 17.3703 1.9535 17.2286L2.0315 17.0411C2.091 17.2249 2.19942 17.389 2.34511 17.5158C2.4908 17.6427 2.66828 17.7274 2.8585 17.7611L3.0865 17.7536C2.92338 17.8678 2.79468 18.0245 2.71437 18.2067C2.63407 18.3889 2.60523 18.5896 2.631 18.7871L2.7095 19.0001C2.55044 18.8802 2.36161 18.8062 2.16348 18.786C1.96534 18.7658 1.76546 18.8003 1.5855 18.8856L1.406 19.0271C1.47075 18.8388 1.48271 18.6363 1.44058 18.4417C1.39845 18.2471 1.30384 18.0677 1.167 17.9231L0.9775 17.7951L1.2195 17.7611Z" fill="white" style="fill:white;fill-opacity:1;"/>
<path d="M19 19C19 18.8674 18.9473 18.7402 18.8536 18.6464C18.7598 18.5527 18.6326 18.5 18.5 18.5C18.3674 18.5 18.2402 18.5527 18.1464 18.6464C18.0527 18.7402 18 18.8674 18 19C18 19.1326 18.0527 19.2598 18.1464 19.3536C18.2402 19.4473 18.3674 19.5 18.5 19.5C18.6326 19.5 18.7598 19.4473 18.8536 19.3536C18.9473 19.2598 19 19.1326 19 19Z" fill="white" style="fill:white;fill-opacity:1;"/>
</svg>
