<svg width="24" height="24" viewBox="0 0 24 24" fill="none" xmlns="http://www.w3.org/2000/svg">
<path d="M22.1889 0H1.81648C0.814467 0 0 0.814286 0 1.81607V22.1786C0 23.1857 0.814467 24 1.81648 24H22.1835C23.1855 24 24 23.1857 24 22.1839V1.81607C24.0053 0.814286 23.1909 0 22.1889 0ZM12.7314 19.2375C8.73408 19.6393 5.16543 16.725 4.76356 12.7286H9.82183V13.8214C9.82183 14.0196 9.98258 14.1857 10.1862 14.1857H13.8245C14.0228 14.1857 14.1889 14.025 14.1889 13.8214V10.1839C14.1889 9.98571 14.0281 9.81964 13.8245 9.81964H10.1862C9.98793 9.81964 9.82183 9.98036 9.82183 10.1839V11.2768H4.76356C5.13864 7.55893 8.26791 4.73036 12.0027 4.73036C15.7374 4.73036 18.8667 7.55893 19.2418 11.2768C19.6437 15.2679 16.7287 18.8357 12.7314 19.2375Z" fill="white" style="fill:white;fill-opacity:1;"/>
</svg>
