<?xml version="1.0" encoding="utf-8"?>
<!-- Generator: Adobe Illustrator 16.0.0, SVG Export Plug-In . SVG Version: 6.00 Build 0)  -->
<!DOCTYPE svg PUBLIC "-//W3C//DTD SVG 1.1//EN" "http://www.w3.org/Graphics/SVG/1.1/DTD/svg11.dtd">
<svg version="1.1" id="Layer_1" xmlns="http://www.w3.org/2000/svg" xmlns:xlink="http://www.w3.org/1999/xlink" x="0px" y="0px"
	 width="16px" height="16px" viewBox="0 0 16 16" enable-background="new 0 0 16 16" xml:space="preserve">
<g id="pao">
	<circle cx="8" cy="8" r="7.636"/>
	<g>
		<path fill="#FFFFFF" d="M10.438,5.358H5.562c-2.017,0-3.657,1.641-3.657,3.657c0.001,0.897,0.728,1.624,1.625,1.626h8.938
			c0.898-0.002,1.625-0.729,1.627-1.626C14.096,6.999,12.455,5.358,10.438,5.358L10.438,5.358z M11.188,5.852l0.191,0.318
			c0.182,0.303,0.277,0.65,0.277,1.003v0.206c-0.607-0.065-1.152-0.412-1.469-0.936L9.781,5.765h0.656
			C10.691,5.765,10.941,5.794,11.188,5.852L11.188,5.852z M8.535,6.17c0.182,0.303,0.277,0.65,0.277,1.003v0.206
			C8.204,7.314,7.661,6.968,7.343,6.443L6.936,5.765h1.354L8.535,6.17z M5.684,6.159C5.87,6.47,5.968,6.825,5.968,7.187v0.193
			c-0.613-0.061-1.165-0.403-1.49-0.928l-0.25-0.401c0.384-0.173,0.798-0.27,1.219-0.284L5.684,6.159z M12.469,10.234H3.53
			c-0.673-0.001-1.219-0.546-1.219-1.219c0-1.133,0.59-2.184,1.557-2.774l0.266,0.425c0.437,0.705,1.208,1.132,2.038,1.129
			c0.112,0,0.203-0.091,0.203-0.203V7.187c0-0.436-0.119-0.863-0.343-1.236L5.92,5.765h0.542l0.532,0.888
			C7.422,7.36,8.189,7.794,9.016,7.796c0.113,0,0.203-0.091,0.203-0.203v-0.42c0-0.427-0.115-0.846-0.336-1.212L8.765,5.765h0.542
			L9.84,6.652c0.428,0.708,1.193,1.142,2.02,1.144c0.113,0,0.205-0.091,0.205-0.203v-0.42c-0.002-0.391-0.1-0.775-0.283-1.119
			c1.16,0.528,1.906,1.685,1.908,2.961C13.688,9.688,13.143,10.233,12.469,10.234L12.469,10.234z"/>
		<rect x="3.53" y="9.219" fill="#FFFFFF" width="0.406" height="0.406"/>
		<rect x="4.953" y="8.203" fill="#FFFFFF" width="0.406" height="0.407"/>
		<rect x="6.375" y="8.812" fill="#FFFFFF" width="0.406" height="0.407"/>
		<rect x="8.406" y="8.609" fill="#FFFFFF" width="0.406" height="0.406"/>
		<rect x="9.828" y="9.016" fill="#FFFFFF" width="0.406" height="0.406"/>
		<rect x="11.453" y="8.203" fill="#FFFFFF" width="0.406" height="0.407"/>
		<rect x="12.469" y="8.812" fill="#FFFFFF" width="0.408" height="0.407"/>
	</g>
</g>
</svg>
