<svg width="20" height="17" viewBox="0 0 20 17" fill="none" xmlns="http://www.w3.org/2000/svg">
<path d="M0 1.5C0 0.671573 0.497461 0 1.11111 0H18.8889C19.5025 0 20 0.671573 20 1.5V1.5C20 2.32843 19.5025 3 18.8889 3H1.11111C0.497462 3 0 2.32843 0 1.5V1.5Z" fill="#5C3825" style="fill:#5C3825;fill:color(display-p3 0.3608 0.2196 0.1451);fill-opacity:1;"/>
<path d="M4 8.5C4 7.67157 4.51167 7 5.14286 7H18.8571C19.4883 7 20 7.67157 20 8.5C20 9.32843 19.4883 10 18.8571 10H5.14286C4.51168 10 4 9.32843 4 8.5Z" fill="#5C3825" style="fill:#5C3825;fill:color(display-p3 0.3608 0.2196 0.1451);fill-opacity:1;"/>
<path d="M0 15.5C0 14.6716 0.497461 14 1.11111 14H18.8889C19.5025 14 20 14.6716 20 15.5V15.5C20 16.3284 19.5025 17 18.8889 17H1.11111C0.497462 17 0 16.3284 0 15.5V15.5Z" fill="#5C3825" style="fill:#5C3825;fill:color(display-p3 0.3608 0.2196 0.1451);fill-opacity:1;"/>
</svg>
