<svg version="1.1" id="Layer_1" xmlns="http://www.w3.org/2000/svg" xmlns:xlink="http://www.w3.org/1999/xlink" x="0px" y="0px"
	 width="120px" height="120px" viewBox="0 0 120 120" enable-background="new 0 0 120 120" xml:space="preserve">
	<path id="vapor1" fill="none" stroke="#000000" stroke-width="3" stroke-linecap="round" stroke-miterlimit="10" d="M79.65,6.77
	c0,0,12.107,37.783-8.767,44.254c-23.805,7.379-22.341,22.45-22.341,22.45"/>
	<path id="vapor2" fill="none" stroke="#000000" stroke-width="3" stroke-linecap="round" stroke-miterlimit="10" d="M96.977,14.702
	c0,0,13.568,24.006-26.093,26.302c-24.88,1.44-8.768,32.47-8.768,32.47"/>
	<path id="vapor3" fill="none" stroke="#000000" stroke-width="3" stroke-linecap="round" stroke-miterlimit="10" d="M93.22,10.109
	c0,0-24.263,5.428-24.672,25.259C68.259,49.358,68.131,74.1,68.131,74.1"/>
	<g id="pao">
		<path d="M73.389,80.666h-30.06c-12.431,0-22.544,10.113-22.544,22.545c0.006,5.53,4.489,10.013,10.02,10.02h55.109
			c5.531-0.007,10.014-4.489,10.02-10.02C95.933,90.779,85.819,80.666,73.389,80.666L73.389,80.666z M78.013,83.711l1.178,1.962
			c1.121,1.868,1.713,4.006,1.713,6.184v1.268c-3.754-0.403-7.104-2.538-9.056-5.77l-2.51-4.184h4.051
			C74.945,83.17,76.497,83.352,78.013,83.711L78.013,83.711z M61.655,85.673c1.121,1.868,1.713,4.006,1.713,6.184v1.268
			c-3.753-0.403-7.103-2.538-9.055-5.77l-2.51-4.184h8.351L61.655,85.673z M44.08,85.604c1.147,1.913,1.754,4.102,1.754,6.332v1.191
			c-3.785-0.375-7.179-2.489-9.184-5.721l-1.543-2.471c2.368-1.069,4.923-1.664,7.521-1.752L44.08,85.604z M85.913,110.726H30.804
			c-4.148-0.005-7.51-3.367-7.515-7.515c0.003-6.982,3.64-13.46,9.598-17.099l1.639,2.622c2.695,4.343,7.449,6.978,12.56,6.961
			c0.691,0,1.252-0.561,1.252-1.252v-2.507c0-2.685-0.73-5.318-2.111-7.621l-0.687-1.145h3.341l3.284,5.473
			c2.635,4.364,7.358,7.037,12.456,7.052c0.691,0,1.252-0.561,1.252-1.252v-2.587c0-2.632-0.716-5.215-2.07-7.472l-0.727-1.214h3.341
			l3.283,5.473c2.636,4.364,7.357,7.037,12.455,7.052c0.692,0,1.253-0.561,1.253-1.252v-2.587c-0.001-2.407-0.601-4.776-1.743-6.896
			c7.157,3.253,11.756,10.388,11.763,18.25C93.423,107.358,90.062,110.721,85.913,110.726L85.913,110.726z"/>
		<rect x="30.804" y="104.463" width="2.505" height="2.505"/>
		<rect x="39.571" y="98.201" width="2.505" height="2.505"/>
		<rect x="48.339" y="101.958" width="2.505" height="2.505"/>
		<rect x="60.863" y="100.706" width="2.505" height="2.505"/>
		<rect x="69.631" y="103.211" width="2.505" height="2.505"/>
		<rect x="79.65" y="98.201" width="2.505" height="2.505"/>
		<rect x="85.913" y="101.958" width="2.505" height="2.505"/>
	</g>
</svg>