<svg width="174" height="23" viewBox="0 0 174 23" fill="none" xmlns="http://www.w3.org/2000/svg">
<path d="M21.2605 7.09502C21.0729 6.65231 20.7539 6.27512 20.3448 6.01245C19.9357 5.74978 19.4555 5.61377 18.9666 5.62206H7.33648V11.3881H15.924C17.202 11.3881 17.587 11.0578 17.587 10.2506H18.3249V15.8646H17.587C17.587 15.0469 17.1699 14.6957 15.924 14.6957H7.33648V19.5129C7.33648 20.7343 7.5878 21.1431 8.72675 21.1431V21.7722H2V21.1641C3.13895 21.1641 3.39561 20.8863 3.39561 19.5339V4.47409C3.39561 3.18984 3.13895 2.96969 2 2.96969V2.36163H19.2446C19.7893 2.39017 20.3343 2.31359 20.8488 2.13623L21.9182 6.94301L21.2605 7.09502Z" fill="white" style="fill:white;fill-opacity:1;"/>
<path d="M51.2101 4.19116V16.0063C51.2097 16.7622 51.0193 17.5064 50.6555 18.1729C50.2918 18.8395 49.766 19.4078 49.1247 19.8276C46.7577 21.3982 43.9621 22.2314 41.1039 22.2179C38.2734 22.1814 35.5084 21.3777 33.1152 19.8957C32.4369 19.4836 31.8772 18.9087 31.4889 18.2253C31.1005 17.542 30.8965 16.7728 30.8961 15.9905V4.15447C30.8961 3.1061 30.4416 2.92788 29.5059 2.92788V2.31982H36.3396V2.92788C35.4038 2.92788 34.9493 3.09037 34.9493 4.09681V15.6289C34.9493 17.605 38.2431 18.9627 41.275 18.9627C44.1143 18.9627 47.5419 17.4373 47.5419 15.7022V4.17019C47.5419 3.17424 47.1248 2.94884 46.1516 2.94884V2.32506H52.6217V2.90167C51.841 2.90167 51.2208 3.01699 51.2208 4.18592" fill="white" style="fill:white;fill-opacity:1;"/>
<path d="M111.986 7.09531C111.821 6.63228 111.503 6.23629 111.083 5.96964C110.663 5.703 110.164 5.58083 109.665 5.62236H102.955V19.6862C102.955 20.8027 103.35 21.1592 104.345 21.1592V21.7725H97.6235V21.1592C98.7304 21.1592 99.0085 20.8289 99.0085 19.6862V5.63808H92.3566C91.8469 5.58153 91.3327 5.69444 90.8963 5.95869C90.46 6.22295 90.1268 6.62323 89.9503 7.09531L89.2178 6.89612L90.2872 2.08936C90.8455 2.26093 91.4297 2.33717 92.0143 2.31476H109.97C110.555 2.33686 111.139 2.26062 111.697 2.08936L112.767 6.89612L111.986 7.09531Z" fill="white" style="fill:white;fill-opacity:1;"/>
<path d="M120.221 21.7718V21.1585C121.29 21.1585 121.611 20.9122 121.611 19.7957V4.31651C121.611 3.2 121.269 2.95363 120.221 2.95363V2.34033H126.915V2.95363C125.846 2.95363 125.552 3.17379 125.552 4.31651V19.8114C125.552 20.9541 125.835 21.1743 126.915 21.1743V21.7718H120.221Z" fill="white" style="fill:white;fill-opacity:1;"/>
<path d="M157.426 4.15935V21.7719H153.63L140.438 7.61897H140.38V19.9058C140.38 20.9542 140.797 21.1534 141.77 21.1534V21.7719H135.193V21.1586C136.155 21.1586 136.583 20.9699 136.583 19.9111V4.18556C136.583 3.13719 136.166 2.93801 135.193 2.93801V2.32471H140.38L153.582 16.6297H153.641V4.08073C153.641 3.263 152.929 2.94325 152.25 2.94325V2.32995H158.827V2.94325C158.041 2.94325 157.416 3.02187 157.416 4.15935" fill="white" style="fill:white;fill-opacity:1;"/>
<path d="M167.094 21.7718V21.1585C168.163 21.1585 168.484 20.9122 168.484 19.7957V4.31651C168.484 3.2 168.142 2.95363 167.094 2.95363V2.34033H173.783V2.95363C172.714 2.95363 172.425 3.17379 172.425 4.31651V19.8114C172.425 20.9541 172.709 21.1743 173.783 21.1743V21.7718H167.094Z" fill="white" style="fill:white;fill-opacity:1;"/>
<path d="M81.2025 20.5142C79.5479 18.6351 78.0897 16.598 76.8499 14.4336C79.7266 13.553 82.0473 11.4248 82.0473 8.81439C82.0473 4.00238 78.1065 2 71.1016 2C68.6366 2 62.851 2.25161 61.065 2.33548V2.94877C61.195 2.93029 61.3274 2.93724 61.4546 2.9692C61.5819 3.00116 61.7014 3.05752 61.8063 3.13501C61.9112 3.2125 61.9994 3.30958 62.0658 3.42067C62.1322 3.53176 62.1755 3.65464 62.1932 3.78222C62.2093 3.8724 62.2093 3.96463 62.1932 4.0548V19.9323C62.1932 20.9807 61.8296 21.1799 60.7495 21.1799V21.7722H67.4923V21.1589C66.4229 21.1589 66.1341 20.9388 66.1341 19.9114V15.2671C67.0699 15.3248 67.8345 15.351 69.305 15.351C70.2408 15.351 71.5187 15.351 72.2192 15.2776C72.3841 15.2729 72.5485 15.2571 72.7112 15.2304C73.767 17.5937 75.1625 19.7966 76.8552 21.7722H82.6569V21.1589C82.3786 21.1806 82.0993 21.1329 81.845 21.0201C81.5907 20.9074 81.3696 20.7333 81.2025 20.5142ZM70.9092 12.274C69.8397 12.274 67.5832 12.2425 66.0967 12.1325V5.31809C67.5458 5.23422 69.7862 5.1818 71 5.1818C75.743 5.1818 77.807 6.57088 77.807 8.68335C77.807 10.7958 76.2029 12.253 70.8878 12.253" fill="white" style="fill:white;fill-opacity:1;"/>
<path d="M19.2605 5.09502C19.0729 4.65231 18.7539 4.27512 18.3448 4.01245C17.9357 3.74978 17.4555 3.61377 16.9666 3.62206H5.33648V9.38808H13.924C15.202 9.38808 15.587 9.05784 15.587 8.2506H16.3249V13.8646H15.587C15.587 13.0469 15.1699 12.6957 13.924 12.6957H5.33648V17.5129C5.33648 18.7343 5.5878 19.1431 6.72675 19.1431V19.7722H0V19.1641C1.13895 19.1641 1.39561 18.8863 1.39561 17.5339V2.47409C1.39561 1.18984 1.13895 0.969689 0 0.969689V0.361634H17.2446C17.7893 0.390174 18.3343 0.313588 18.8488 0.13623L19.9182 4.94301L19.2605 5.09502Z" fill="#5C3825" style="fill:#5C3825;fill:color(display-p3 0.3608 0.2196 0.1451);fill-opacity:1;"/>
<path d="M49.2101 2.19116V14.0063C49.2097 14.7622 49.0193 15.5064 48.6555 16.1729C48.2918 16.8395 47.766 17.4078 47.1247 17.8276C44.7577 19.3982 41.9621 20.2314 39.1039 20.2179C36.2734 20.1814 33.5084 19.3777 31.1152 17.8957C30.4369 17.4836 29.8772 16.9087 29.4889 16.2253C29.1005 15.542 28.8965 14.7728 28.8961 13.9905V2.15447C28.8961 1.1061 28.4416 0.92788 27.5059 0.92788V0.319824H34.3396V0.92788C33.4038 0.92788 32.9493 1.09037 32.9493 2.09681V13.6289C32.9493 15.605 36.2431 16.9627 39.275 16.9627C42.1143 16.9627 45.5419 15.4373 45.5419 13.7022V2.17019C45.5419 1.17424 45.1248 0.948843 44.1516 0.948843V0.325063H50.6217V0.901669C49.841 0.901669 49.2208 1.01699 49.2208 2.18592" fill="#5C3825" style="fill:#5C3825;fill:color(display-p3 0.3608 0.2196 0.1451);fill-opacity:1;"/>
<path d="M109.986 5.09531C109.821 4.63228 109.503 4.23629 109.083 3.96964C108.663 3.703 108.164 3.58083 107.665 3.62236H100.955V17.6862C100.955 18.8027 101.35 19.1592 102.345 19.1592V19.7725H95.6235V19.1592C96.7304 19.1592 97.0085 18.8289 97.0085 17.6862V3.63808H90.3566C89.8469 3.58153 89.3327 3.69444 88.8963 3.95869C88.46 4.22295 88.1268 4.62323 87.9503 5.09531L87.2178 4.89612L88.2872 0.0893555C88.8455 0.260928 89.4297 0.337174 90.0143 0.314759H107.97C108.555 0.336863 109.139 0.260623 109.697 0.0893555L110.767 4.89612L109.986 5.09531Z" fill="#5C3825" style="fill:#5C3825;fill:color(display-p3 0.3608 0.2196 0.1451);fill-opacity:1;"/>
<path d="M118.221 19.7718V19.1585C119.29 19.1585 119.611 18.9122 119.611 17.7957V2.31651C119.611 1.2 119.269 0.953634 118.221 0.953634V0.340332H124.915V0.953634C123.846 0.953634 123.552 1.17379 123.552 2.31651V17.8114C123.552 18.9541 123.835 19.1743 124.915 19.1743V19.7718H118.221Z" fill="#5C3825" style="fill:#5C3825;fill:color(display-p3 0.3608 0.2196 0.1451);fill-opacity:1;"/>
<path d="M155.426 2.15935V19.7719H151.63L138.438 5.61897H138.38V17.9058C138.38 18.9542 138.797 19.1534 139.77 19.1534V19.7719H133.193V19.1586C134.155 19.1586 134.583 18.9699 134.583 17.9111V2.18556C134.583 1.13719 134.166 0.938009 133.193 0.938009V0.324707H138.38L151.582 14.6297H151.641V2.08073C151.641 1.263 150.929 0.943248 150.25 0.943248V0.329954H156.827V0.943248C156.041 0.943248 155.416 1.02187 155.416 2.15935" fill="#5C3825" style="fill:#5C3825;fill:color(display-p3 0.3608 0.2196 0.1451);fill-opacity:1;"/>
<path d="M165.094 19.7718V19.1585C166.163 19.1585 166.484 18.9122 166.484 17.7957V2.31651C166.484 1.2 166.142 0.953634 165.094 0.953634V0.340332H171.783V0.953634C170.714 0.953634 170.425 1.17379 170.425 2.31651V17.8114C170.425 18.9541 170.709 19.1743 171.783 19.1743V19.7718H165.094Z" fill="#5C3825" style="fill:#5C3825;fill:color(display-p3 0.3608 0.2196 0.1451);fill-opacity:1;"/>
<path d="M79.2025 18.5142C77.5479 16.6351 76.0897 14.598 74.8499 12.4336C77.7266 11.553 80.0473 9.42483 80.0473 6.81439C80.0473 2.00238 76.1065 0 69.1016 0C66.6366 0 60.851 0.251608 59.065 0.335477V0.948772C59.195 0.93029 59.3274 0.937236 59.4546 0.9692C59.5819 1.00116 59.7014 1.05752 59.8063 1.13501C59.9112 1.2125 59.9994 1.30958 60.0658 1.42067C60.1322 1.53176 60.1755 1.65464 60.1932 1.78222C60.2093 1.8724 60.2093 1.96463 60.1932 2.0548V17.9323C60.1932 18.9807 59.8296 19.1799 58.7495 19.1799V19.7722H65.4923V19.1589C64.4229 19.1589 64.1341 18.9388 64.1341 17.9114V13.2671C65.0699 13.3248 65.8345 13.351 67.305 13.351C68.2408 13.351 69.5187 13.351 70.2192 13.2776C70.3841 13.2729 70.5485 13.2571 70.7112 13.2304C71.767 15.5937 73.1625 17.7966 74.8552 19.7722H80.6569V19.1589C80.3786 19.1806 80.0993 19.1329 79.845 19.0201C79.5907 18.9074 79.3696 18.7333 79.2025 18.5142ZM68.9092 10.274C67.8397 10.274 65.5832 10.2425 64.0967 10.1325V3.31809C65.5458 3.23422 67.7862 3.1818 69 3.1818C73.743 3.1818 75.807 4.57088 75.807 6.68335C75.807 8.79581 74.2029 10.253 68.8878 10.253" fill="#5C3825" style="fill:#5C3825;fill:color(display-p3 0.3608 0.2196 0.1451);fill-opacity:1;"/>
</svg>
