<svg width="175" height="44" viewBox="0 0 175 44" fill="none" xmlns="http://www.w3.org/2000/svg">
<path d="M21.9773 7.26811C21.7897 6.8254 21.4707 6.44822 21.0616 6.18555C20.6525 5.92288 20.1723 5.78686 19.6834 5.79515H8.05328V11.5612H16.6408C17.9188 11.5612 18.3038 11.2309 18.3038 10.4237H19.0417V16.0377H18.3038C18.3038 15.22 17.8867 14.8688 16.6408 14.8688H8.05328V19.686C8.05328 20.9074 8.3046 21.3162 9.44355 21.3162V21.9453H2.7168V21.3372C3.85575 21.3372 4.11241 21.0594 4.11241 19.707V4.64719C4.11241 3.36294 3.85575 3.14278 2.7168 3.14278V2.53473H19.9614C20.5061 2.56327 21.0511 2.48668 21.5656 2.30933L22.635 7.1161L21.9773 7.26811Z" fill="white" style="fill:white;fill-opacity:1;"/>
<path d="M51.9269 4.36426V16.1794C51.9265 16.9353 51.7361 17.6795 51.3723 18.346C51.0086 19.0126 50.4828 19.5809 49.8414 20.0007C47.4745 21.5713 44.6789 22.4045 41.8207 22.3909C38.9902 22.3545 36.2252 21.5508 33.832 20.0688C33.1537 19.6567 32.594 19.0818 32.2057 18.3984C31.8173 17.7151 31.6133 16.9459 31.6129 16.1636V4.32756C31.6129 3.2792 31.1584 3.10098 30.2227 3.10098V2.49292H37.0564V3.10098C36.1206 3.10098 35.6661 3.26347 35.6661 4.2699V15.802C35.6661 17.7781 38.9599 19.1358 41.9918 19.1358C44.8311 19.1358 48.2587 17.6104 48.2587 15.8753V4.34329C48.2587 3.34734 47.8416 3.12194 46.8684 3.12194V2.49816H53.3385V3.07476C52.5578 3.07476 51.9376 3.19008 51.9376 4.35901" fill="white" style="fill:white;fill-opacity:1;"/>
<path d="M112.703 7.26817C112.537 6.80513 112.22 6.40914 111.8 6.14249C111.379 5.87585 110.881 5.75368 110.382 5.79521H103.671V19.8591C103.671 20.9756 104.067 21.332 105.062 21.332V21.9453H98.3403V21.332C99.4472 21.332 99.7253 21.0018 99.7253 19.8591V5.81093H93.0734C92.5637 5.75438 92.0495 5.86729 91.6131 6.13154C91.1768 6.3958 90.8436 6.79608 90.6671 7.26817L89.9346 7.06897L91.004 2.26221C91.5623 2.43378 92.1465 2.51003 92.7311 2.48761H110.687C111.272 2.50971 111.856 2.43347 112.414 2.26221L113.484 7.06897L112.703 7.26817Z" fill="white" style="fill:white;fill-opacity:1;"/>
<path d="M120.938 21.9452V21.3319C122.007 21.3319 122.328 21.0855 122.328 19.969V4.48985C122.328 3.37334 121.986 3.12697 120.938 3.12697V2.51367H127.632V3.12697C126.563 3.12697 126.269 3.34713 126.269 4.48985V19.9847C126.269 21.1275 126.552 21.3476 127.632 21.3476V21.9452H120.938Z" fill="white" style="fill:white;fill-opacity:1;"/>
<path d="M158.143 4.33269V21.9453H154.347L141.155 7.79231H141.096V20.0792C141.096 21.1275 141.514 21.3267 142.487 21.3267V21.9453H135.91V21.332C136.872 21.332 137.3 21.1433 137.3 20.0844V4.3589C137.3 3.31053 136.883 3.11135 135.91 3.11135V2.49805H141.096L154.299 16.803H154.357V4.25407C154.357 3.43634 153.646 3.11659 152.967 3.11659V2.50329H159.544V3.11659C158.758 3.11659 158.133 3.19521 158.133 4.33269" fill="white" style="fill:white;fill-opacity:1;"/>
<path d="M167.811 21.9452V21.3319C168.88 21.3319 169.201 21.0855 169.201 19.969V4.48985C169.201 3.37334 168.859 3.12697 167.811 3.12697V2.51367H174.5V3.12697C173.431 3.12697 173.142 3.34713 173.142 4.48985V19.9847C173.142 21.1275 173.426 21.3476 174.5 21.3476V21.9452H167.811Z" fill="white" style="fill:white;fill-opacity:1;"/>
<path d="M81.9193 20.6873C80.2647 18.8082 78.8065 16.7711 77.5667 14.6067C80.4434 13.7261 82.7641 11.5979 82.7641 8.98749C82.7641 4.17548 78.8232 2.1731 71.8184 2.1731C69.3534 2.1731 63.5677 2.4247 61.7818 2.50857V3.12187C61.9118 3.10339 62.0442 3.11033 62.1714 3.1423C62.2987 3.17426 62.4182 3.23061 62.5231 3.3081C62.628 3.38559 62.7162 3.48268 62.7826 3.59377C62.849 3.70485 62.8923 3.82773 62.91 3.95532C62.9261 4.04549 62.9261 4.13772 62.91 4.2279V20.1054C62.91 21.1538 62.5464 21.353 61.4663 21.353V21.9453H68.2091V21.332C67.1397 21.332 66.8509 21.1119 66.8509 20.0845V15.4402C67.7867 15.4978 68.5513 15.5241 70.0218 15.5241C70.9576 15.5241 72.2355 15.5241 72.936 15.4507C73.1009 15.446 73.2653 15.4302 73.4279 15.4035C74.4838 17.7668 75.8793 19.9697 77.572 21.9453H83.3737V21.332C83.0954 21.3537 82.8161 21.306 82.5618 21.1932C82.3075 21.0805 82.0864 20.9064 81.9193 20.6873ZM71.626 12.4471C70.5565 12.4471 68.3 12.4156 66.8135 12.3056V5.49118C68.2626 5.40731 70.503 5.3549 71.7168 5.3549C76.4598 5.3549 78.5238 6.74398 78.5238 8.85644C78.5238 10.9689 76.9197 12.4261 71.6046 12.4261" fill="white" style="fill:white;fill-opacity:1;"/>
<path d="M19.7605 5.09501C19.5729 4.65231 19.2539 4.27512 18.8448 4.01245C18.4357 3.74978 17.9555 3.61377 17.4666 3.62206H5.83648V9.38808H14.424C15.702 9.38808 16.087 9.05784 16.087 8.2506H16.8249V13.8646H16.087C16.087 13.0469 15.6699 12.6957 14.424 12.6957H5.83648V17.5129C5.83648 18.7343 6.0878 19.1431 7.22675 19.1431V19.7722H0.5V19.1641C1.63895 19.1641 1.89561 18.8863 1.89561 17.5339V2.47409C1.89561 1.18984 1.63895 0.969689 0.5 0.969689V0.361634H17.7446C18.2893 0.390174 18.8343 0.313588 19.3488 0.13623L20.4182 4.943L19.7605 5.09501Z" fill="#5C3825" style="fill:#5C3825;fill:color(display-p3 0.3608 0.2196 0.1451);fill-opacity:1;"/>
<path d="M49.7101 2.19092V14.006C49.7097 14.762 49.5193 15.5061 49.1555 16.1727C48.7918 16.8392 48.266 17.4076 47.6247 17.8273C45.2577 19.398 42.4621 20.2311 39.6039 20.2176C36.7734 20.1812 34.0084 19.3775 31.6152 17.8955C30.9369 17.4834 30.3772 16.9085 29.9889 16.2251C29.6005 15.5417 29.3965 14.7725 29.3961 13.9903V2.15422C29.3961 1.10586 28.9416 0.927635 28.0059 0.927635V0.31958H34.8396V0.927635C33.9038 0.927635 33.4493 1.09013 33.4493 2.09656V13.6286C33.4493 15.6048 36.7431 16.9624 39.775 16.9624C42.6143 16.9624 46.0419 15.4371 46.0419 13.702V2.16995C46.0419 1.174 45.6248 0.948599 44.6516 0.948599V0.324819H51.1217V0.901425C50.341 0.901425 49.7208 1.01674 49.7208 2.18567" fill="#5C3825" style="fill:#5C3825;fill:color(display-p3 0.3608 0.2196 0.1451);fill-opacity:1;"/>
<path d="M110.486 5.09507C110.321 4.63203 110.003 4.23604 109.583 3.9694C109.163 3.70275 108.664 3.58059 108.165 3.62211H101.455V17.686C101.455 18.8025 101.85 19.1589 102.845 19.1589V19.7722H96.1235V19.1589C97.2304 19.1589 97.5085 18.8287 97.5085 17.686V3.63784H90.8566C90.3469 3.58129 89.8327 3.69419 89.3963 3.95845C88.96 4.2227 88.6268 4.62299 88.4503 5.09507L87.7178 4.89588L88.7872 0.0891113C89.3455 0.260683 89.9297 0.33693 90.5143 0.314515H108.47C109.055 0.336618 109.639 0.260379 110.197 0.0891113L111.267 4.89588L110.486 5.09507Z" fill="#5C3825" style="fill:#5C3825;fill:color(display-p3 0.3608 0.2196 0.1451);fill-opacity:1;"/>
<path d="M118.721 19.7721V19.1588C119.79 19.1588 120.111 18.9124 120.111 17.7959V2.31675C120.111 1.20024 119.769 0.953878 118.721 0.953878V0.340576H125.415V0.953878C124.346 0.953878 124.052 1.17403 124.052 2.31675V17.8116C124.052 18.9544 124.335 19.1745 125.415 19.1745V19.7721H118.721Z" fill="#5C3825" style="fill:#5C3825;fill:color(display-p3 0.3608 0.2196 0.1451);fill-opacity:1;"/>
<path d="M155.926 2.15959V19.7722H152.13L138.938 5.61921H138.88V17.9061C138.88 18.9545 139.297 19.1536 140.27 19.1536V19.7722H133.693V19.1589C134.655 19.1589 135.083 18.9702 135.083 17.9113V2.18581C135.083 1.13744 134.666 0.938253 133.693 0.938253V0.324951H138.88L152.082 14.6299H152.141V2.08097C152.141 1.26324 151.429 0.943492 150.75 0.943492V0.330198H157.327V0.943492C156.541 0.943492 155.916 1.02212 155.916 2.15959" fill="#5C3825" style="fill:#5C3825;fill:color(display-p3 0.3608 0.2196 0.1451);fill-opacity:1;"/>
<path d="M165.594 19.7721V19.1588C166.663 19.1588 166.984 18.9124 166.984 17.7959V2.31675C166.984 1.20024 166.642 0.953878 165.594 0.953878V0.340576H172.283V0.953878C171.214 0.953878 170.925 1.17403 170.925 2.31675V17.8116C170.925 18.9544 171.208 19.1745 172.283 19.1745V19.7721H165.594Z" fill="#5C3825" style="fill:#5C3825;fill:color(display-p3 0.3608 0.2196 0.1451);fill-opacity:1;"/>
<path d="M79.7025 18.5142C78.0479 16.6351 76.5897 14.598 75.3499 12.4336C78.2266 11.553 80.5473 9.42483 80.5473 6.81439C80.5473 2.00238 76.6065 0 69.6016 0C67.1366 0 61.351 0.251608 59.565 0.335477V0.948772C59.695 0.93029 59.8274 0.937236 59.9546 0.9692C60.0819 1.00116 60.2014 1.05752 60.3063 1.13501C60.4112 1.2125 60.4994 1.30958 60.5658 1.42067C60.6322 1.53176 60.6755 1.65464 60.6932 1.78222C60.7093 1.8724 60.7093 1.96463 60.6932 2.0548V17.9323C60.6932 18.9807 60.3296 19.1799 59.2495 19.1799V19.7722H65.9923V19.1589C64.9229 19.1589 64.6341 18.9388 64.6341 17.9114V13.2671C65.5699 13.3248 66.3345 13.351 67.805 13.351C68.7408 13.351 70.0187 13.351 70.7192 13.2776C70.8841 13.2729 71.0485 13.2571 71.2112 13.2304C72.267 15.5937 73.6625 17.7966 75.3552 19.7722H81.1569V19.1589C80.8786 19.1806 80.5993 19.1329 80.345 19.0201C80.0907 18.9074 79.8696 18.7333 79.7025 18.5142ZM69.4092 10.274C68.3397 10.274 66.0832 10.2425 64.5967 10.1325V3.31809C66.0458 3.23422 68.2862 3.1818 69.5001 3.1818C74.243 3.1818 76.307 4.57088 76.307 6.68335C76.307 8.79581 74.7029 10.253 69.3878 10.253" fill="#5C3825" style="fill:#5C3825;fill:color(display-p3 0.3608 0.2196 0.1451);fill-opacity:1;"/>
<path d="M26.7974 33.8728C29.1822 33.8728 30.4228 34.9526 30.4228 36.4937C30.4526 37.0101 30.3456 37.5252 30.1123 37.989C29.879 38.4528 29.5273 38.8497 29.0913 39.1409C28.0333 39.7854 26.8013 40.1014 25.5569 40.0477H24.1185L23.4554 42.6162C23.4233 42.7839 23.4554 42.8783 23.5998 42.9097C24.0345 42.9827 24.4742 43.023 24.9152 43.0303L24.728 43.8166H20.1455L20.3487 43.046C20.73 43.034 21.1094 42.9884 21.4823 42.9097C21.5477 42.8891 21.6057 42.8504 21.6493 42.7984C21.6929 42.7463 21.7203 42.6831 21.7283 42.6162L23.6586 35.0942C23.6907 34.9264 23.6586 34.8163 23.5677 34.7849C23.2137 34.7258 22.8567 34.6855 22.4983 34.6643L22.6908 33.8938L26.7974 33.8728ZM25.6371 39.0727C27.6316 39.0727 28.6208 38.0715 28.6208 36.3679C28.6208 35.4296 27.9898 34.7954 26.6584 34.7954H25.4499L24.3537 39.057L25.6371 39.0727Z" fill="#5C3825" style="fill:#5C3825;fill:color(display-p3 0.3608 0.2196 0.1451);fill-opacity:1;"/>
<path d="M38.9144 41.3634C38.2353 43.1037 37.3905 43.9844 36.3852 43.9844C36.2232 44.0032 36.059 43.9868 35.9041 43.9364C35.7493 43.886 35.6076 43.8028 35.4893 43.6928C35.3709 43.5827 35.2786 43.4485 35.2191 43.2996C35.1595 43.1507 35.1341 42.9908 35.1447 42.8312C35.1667 42.4933 35.2204 42.1582 35.3051 41.83L35.2088 41.7828C34.503 43.2453 33.6421 43.9844 32.6529 43.9844C31.5246 43.9844 30.6744 43.0618 30.6744 41.3372C30.6694 40.576 30.8288 39.8223 31.1421 39.1257C31.4555 38.4292 31.9157 37.8055 32.4925 37.2958C33.0128 36.8285 33.6905 36.5654 34.3961 36.5567C34.7972 36.5542 35.1873 36.6851 35.5029 36.9278C35.8185 37.1705 36.0409 37.5109 36.1339 37.8934L36.4333 36.7401H38.0375L36.7863 41.4578C36.687 41.7787 36.6225 42.1091 36.5938 42.4433C36.5938 42.7054 36.7221 42.8259 36.9574 42.8259C37.3477 42.8259 37.7862 42.2546 38.2567 41.1171L38.9144 41.3634ZM34.6367 41.8876C35.0942 41.2795 35.4282 40.5908 35.6206 39.859L35.904 38.8107C35.8631 38.4912 35.7089 38.1959 35.4685 37.9765C35.228 37.7571 34.9166 37.6274 34.5886 37.6103C33.9736 37.6103 33.4443 38.0454 32.9844 38.9207C32.549 39.7289 32.318 40.6278 32.3107 41.5417C32.3107 42.4013 32.6101 42.8312 33.2036 42.8312C33.4949 42.7966 33.7742 42.6968 34.0199 42.5396C34.2656 42.3823 34.4712 42.1718 34.6207 41.9243" fill="#5C3825" style="fill:#5C3825;fill:color(display-p3 0.3608 0.2196 0.1451);fill-opacity:1;"/>
<path d="M47.9025 41.3634C47.2288 43.1037 46.3786 43.9843 45.3787 43.9843C45.2175 44.0025 45.0542 43.9856 44.9005 43.9347C44.7468 43.8839 44.6065 43.8004 44.4895 43.6903C44.3725 43.5801 44.2818 43.446 44.2238 43.2974C44.1659 43.1489 44.1421 42.9897 44.1542 42.8311C44.1663 42.4781 44.2129 42.127 44.2932 41.7827L44.213 41.7565C43.4751 43.2277 42.6124 43.9651 41.6249 43.9686C40.4967 43.9686 39.6465 43.046 39.6465 41.3214C39.6483 40.1422 40.0342 38.9944 40.748 38.0453C41.024 37.6019 41.4078 37.2325 41.865 36.97C42.3222 36.7075 42.8386 36.56 43.3681 36.5409C43.7637 36.5347 44.1501 36.6582 44.4659 36.8918C44.7817 37.1254 45.0089 37.4558 45.1113 37.8304L45.8171 35.1099C45.8653 34.9264 45.8171 34.8163 45.7369 34.7691C45.3845 34.7 45.0268 34.6596 44.6675 34.6486L44.8439 33.8623H47.7154L47.2876 35.5554L45.753 41.4315C45.6545 41.7524 45.5918 42.0828 45.5658 42.417C45.5658 42.6791 45.6888 42.7996 45.9401 42.7996C46.3305 42.7996 46.7743 42.2283 47.2448 41.0908L47.9025 41.3634ZM43.6248 41.8876C44.0939 41.2603 44.4303 40.5474 44.614 39.7908L44.8974 38.7425C44.8342 38.429 44.6655 38.1455 44.4182 37.9373C44.1709 37.7291 43.8595 37.6084 43.5339 37.5945C42.9243 37.5945 42.3896 38.0296 41.9297 38.905C41.4944 39.7131 41.2633 40.612 41.256 41.5259C41.256 42.3855 41.5501 42.8154 42.149 42.8154C42.4396 42.7808 42.7181 42.681 42.9629 42.5237C43.2077 42.3664 43.4123 42.1559 43.5606 41.9085" fill="#5C3825" style="fill:#5C3825;fill:color(display-p3 0.3608 0.2196 0.1451);fill-opacity:1;"/>
<path d="M56.8593 41.3634C56.1855 43.1037 55.3407 43.9843 54.3354 43.9843C54.1734 44.0031 54.0091 43.9867 53.8543 43.9363C53.6995 43.8859 53.5578 43.8027 53.4395 43.6927C53.3211 43.5826 53.2288 43.4484 53.1693 43.2995C53.1097 43.1506 53.0843 42.9907 53.0949 42.8311C53.1169 42.4932 53.1706 42.1581 53.2553 41.8299L53.159 41.788C52.4532 43.2504 51.5923 43.9895 50.6031 43.9895C49.4695 43.9895 48.6246 43.067 48.6246 41.3424C48.6196 40.5811 48.7789 39.8274 49.0923 39.1309C49.4056 38.4343 49.8659 37.8107 50.4427 37.3009C50.9614 36.8344 51.637 36.5713 52.3409 36.5618C52.7429 36.5582 53.1343 36.6885 53.451 36.9313C53.7677 37.1741 53.9909 37.5151 54.0841 37.8985L54.3835 36.7453H55.9877L54.7311 41.463C54.6354 41.7845 54.5727 42.1147 54.544 42.4484C54.544 42.7105 54.6723 42.8311 54.9076 42.8311C55.2979 42.8311 55.7364 42.2597 56.2069 41.1222L56.8593 41.3634ZM52.5815 41.8876C53.0428 41.2809 53.3788 40.5918 53.5708 39.859L53.8542 38.8106C53.8133 38.4911 53.6591 38.1958 53.4187 37.9764C53.1782 37.757 52.8668 37.6274 52.5388 37.6102C51.9238 37.6102 51.3891 38.0453 50.9346 38.9207C50.4992 39.7288 50.2682 40.6277 50.2609 41.5416C50.2609 42.4013 50.5603 42.8311 51.1538 42.8311C51.4444 42.7965 51.723 42.6967 51.9678 42.5394C52.2126 42.3821 52.4172 42.1716 52.5655 41.9242" fill="#5C3825" style="fill:#5C3825;fill:color(display-p3 0.3608 0.2196 0.1451);fill-opacity:1;"/>
<path d="M63.9229 36.7507L63.3561 38.643C63.0415 38.4598 62.6887 38.3487 62.3241 38.318C61.4258 38.318 60.6879 39.272 60.1104 41.18L59.4206 43.8009H57.8165L59.073 39.0833C59.171 38.7622 59.2337 38.4319 59.2602 38.0978C59.2602 37.8514 59.1372 37.7309 58.9019 37.7309C58.5116 37.7309 58.0678 38.297 57.5972 39.424L56.9556 39.1619C57.6293 37.4216 58.4635 36.541 59.4687 36.541C59.6298 36.5258 59.7923 36.5447 59.9452 36.5965C60.0981 36.6482 60.2379 36.7316 60.3551 36.841C60.4722 36.9504 60.564 37.0832 60.6242 37.2304C60.6844 37.3776 60.7116 37.5358 60.7039 37.6942C60.6891 38.1218 60.6208 38.5461 60.5007 38.9575L60.597 39.0309C61.3349 37.3692 62.1637 36.541 63.0727 36.541C63.3685 36.5384 63.6604 36.6068 63.9229 36.7402" fill="#5C3825" style="fill:#5C3825;fill:color(display-p3 0.3608 0.2196 0.1451);fill-opacity:1;"/>
<path d="M65.3346 42.7158C65.4232 41.8714 65.6339 41.0436 65.9603 40.2573C66.2529 39.5594 66.4645 38.8315 66.5912 38.0872C66.5912 37.8094 66.4629 37.6731 66.2116 37.6731C65.7089 37.6731 65.2134 38.2532 64.7251 39.4134L64.062 39.167C64.7411 37.3062 65.7731 36.5461 66.7623 36.5461C67.7516 36.5461 68.2382 37.0231 68.2382 37.8199C68.1569 38.6865 67.9498 39.5373 67.6232 40.3465C67.3443 41.0233 67.1347 41.7257 66.9976 42.4432C66.9976 42.7158 67.1259 42.8573 67.3612 42.8573C67.8585 42.8573 68.3611 42.2702 68.8638 41.117L69.5215 41.3791C68.9119 43.1194 67.9868 44 66.7784 44C65.8854 44 65.3346 43.523 65.3346 42.7367M66.7463 34.57C66.7462 34.4287 66.7752 34.2888 66.8316 34.1588C66.888 34.0288 66.9706 33.9113 67.0745 33.8134C67.1784 33.7155 67.3014 33.6392 67.4361 33.589C67.5708 33.5389 67.7145 33.5159 67.8585 33.5216C67.9917 33.5172 68.1244 33.5397 68.2484 33.5877C68.3724 33.6356 68.485 33.7081 68.5793 33.8005C68.6735 33.8929 68.7474 34.0033 68.7964 34.1248C68.8453 34.2464 68.8682 34.3764 68.8638 34.507C68.8674 34.6491 68.8416 34.7905 68.7878 34.9225C68.734 35.0545 68.6534 35.1744 68.5509 35.2749C68.4484 35.3754 68.3261 35.4544 68.1914 35.5072C68.0567 35.5599 67.9126 35.5852 67.7676 35.5816C67.6311 35.5854 67.4952 35.5615 67.3685 35.5115C67.2419 35.4615 67.127 35.3865 67.0312 35.291C66.9354 35.1956 66.8606 35.0819 66.8116 34.957C66.7626 34.832 66.7404 34.6985 66.7463 34.5647" fill="#5C3825" style="fill:#5C3825;fill:color(display-p3 0.3608 0.2196 0.1451);fill-opacity:1;"/>
<path d="M78.5956 41.3632C77.9165 43.1035 77.0716 43.9842 76.0664 43.9842C75.9043 44.003 75.7401 43.9866 75.5853 43.9362C75.4304 43.8858 75.2888 43.8026 75.1704 43.6926C75.052 43.5825 74.9598 43.4483 74.9002 43.2994C74.8407 43.1505 74.8153 42.9906 74.8258 42.831C74.8478 42.4931 74.9015 42.158 74.9862 41.8298L74.89 41.7826C74.1842 43.2451 73.3233 43.9842 72.334 43.9842C71.2004 43.9842 70.3556 43.0616 70.3556 41.337C70.3505 40.5758 70.5099 39.8221 70.8233 39.1255C71.1366 38.429 71.5968 37.8053 72.1736 37.2956C72.6923 36.829 73.368 36.566 74.0719 36.5565C74.4739 36.5529 74.8653 36.6831 75.1819 36.9259C75.4986 37.1688 75.7218 37.5098 75.815 37.8931L76.1145 36.7399H77.7186L76.4621 41.4576C76.3664 41.7792 76.3037 42.1093 76.2749 42.4431C76.2749 42.7052 76.4032 42.8257 76.6385 42.8257C77.0289 42.8257 77.4673 42.2544 77.9379 41.1169L78.5956 41.3632ZM74.3178 41.8874C74.7791 41.2808 75.1151 40.5917 75.3071 39.8588L75.5905 38.8105C75.5496 38.491 75.3954 38.1957 75.155 37.9763C74.9145 37.7569 74.6031 37.6272 74.2751 37.6101C73.6601 37.6101 73.1254 38.0452 72.6709 38.9205C72.2355 39.7287 72.0045 40.6275 71.9972 41.5415C71.9972 42.4011 72.2966 42.831 72.8901 42.831C73.1807 42.7964 73.4593 42.6966 73.7041 42.5393C73.9489 42.382 74.1535 42.1715 74.3018 41.9241" fill="#5C3825" style="fill:#5C3825;fill:color(display-p3 0.3608 0.2196 0.1451);fill-opacity:1;"/>
<path d="M87.9421 41.1484L88.6319 41.4104C87.9154 43.1193 86.7978 43.9789 85.3059 43.9789C83.659 43.9789 82.6591 42.8572 82.6591 41.1484C82.6439 39.9836 83.0492 38.851 83.8034 37.9508C84.1168 37.5195 84.5306 37.1675 85.0104 36.9242C85.4902 36.6808 86.0223 36.5529 86.5625 36.5513C87.9902 36.5513 88.8244 37.3061 88.8244 38.2863C88.8244 39.7331 87.3325 40.5036 84.3488 40.6137C84.3488 40.8548 84.3221 41.0278 84.3221 41.1379C84.3221 42.4169 84.8087 43.0459 85.7658 43.0459C86.723 43.0459 87.4288 42.4169 87.9421 41.1536M85.2685 38.0766C84.8761 38.6567 84.5986 39.304 84.4504 39.9847C86.3326 39.8798 87.2737 39.2456 87.2737 38.1081C87.2737 37.5577 87.0064 37.2799 86.477 37.2799C86.224 37.3042 85.9811 37.3897 85.7702 37.5288C85.5593 37.6679 85.3869 37.8561 85.2685 38.0766Z" fill="#5C3825" style="fill:#5C3825;fill:color(display-p3 0.3608 0.2196 0.1451);fill-opacity:1;"/>
<path d="M96.7917 36.4097C96.0557 37.5063 95.6686 38.7925 95.6795 40.1052C95.6795 41.8088 96.5885 42.8414 98.0964 42.8414C99.4599 42.8414 100.449 42.2543 101.251 40.5927L102 40.8705C101.091 42.9672 99.7273 43.9789 97.8932 43.9789C95.364 43.9789 93.8882 42.4063 93.8882 39.9007C93.9184 38.3322 94.5023 36.8225 95.5405 35.6286C96.0218 35.046 96.6251 34.5714 97.3095 34.2368C97.994 33.9022 98.7437 33.7155 99.5081 33.6892C99.9799 33.6525 100.452 33.7552 100.864 33.9841C101.276 34.213 101.608 34.5576 101.818 34.9734L102.556 33.6996H103.422L102.422 37.6677H101.7C101.7 35.8226 100.962 34.727 99.4706 34.727C98.4012 34.727 97.5082 35.2827 96.797 36.3887" fill="#5C3825" style="fill:#5C3825;fill:color(display-p3 0.3608 0.2196 0.1451);fill-opacity:1;"/>
<path d="M111.7 41.3634C111.026 43.1037 110.176 43.9843 109.176 43.9843C109.014 44.0031 108.849 43.9867 108.695 43.9363C108.54 43.8859 108.398 43.8028 108.28 43.6927C108.161 43.5827 108.069 43.4484 108.01 43.2995C107.95 43.1506 107.925 42.9907 107.935 42.8311C107.957 42.4936 108.009 42.1586 108.09 41.8299L107.994 41.7828C107.288 43.2452 106.427 43.9843 105.438 43.9843C104.31 43.9843 103.46 43.0618 103.46 41.3372C103.456 40.5756 103.616 39.8218 103.93 39.1252C104.244 38.4287 104.705 37.8052 105.283 37.2957C105.795 36.8281 106.465 36.5614 107.165 36.5462C107.567 36.5444 107.957 36.6754 108.273 36.9179C108.59 37.1604 108.813 37.5004 108.908 37.8828L109.202 36.7296H110.807L109.55 41.4473C109.452 41.7682 109.389 42.0986 109.363 42.4328C109.363 42.6948 109.486 42.8154 109.721 42.8154C110.117 42.8154 110.555 42.244 111.026 41.1066L111.7 41.3634ZM107.422 41.8876C107.881 41.2797 108.217 40.5911 108.411 39.859L108.694 38.8106C108.652 38.4907 108.497 38.1953 108.256 37.976C108.014 37.7567 107.702 37.6272 107.374 37.6103C106.764 37.6103 106.229 38.0453 105.77 38.9207C105.334 39.7289 105.103 40.6277 105.096 41.5416C105.096 42.4013 105.39 42.8311 105.989 42.8311C106.279 42.7965 106.558 42.6967 106.803 42.5395C107.048 42.3822 107.252 42.1717 107.4 41.9243" fill="#5C3825" style="fill:#5C3825;fill:color(display-p3 0.3608 0.2196 0.1451);fill-opacity:1;"/>
<path d="M118.758 34.507L117.86 35.4978C117.827 35.2801 117.715 35.0812 117.546 34.937C117.376 34.7928 117.159 34.7128 116.935 34.7115C116.357 34.7115 115.962 35.1623 115.742 36.0534L115.571 36.7139H117.486L117.25 37.5892H115.352L113.78 43.7746H112.176L113.78 37.5892H112.764L112.823 37.3586L113.999 36.7139L114.047 36.5461C114.47 34.7115 115.475 33.7155 116.967 33.7155C117.308 33.6933 117.65 33.7517 117.964 33.8858C118.277 34.0199 118.553 34.2257 118.769 34.4861" fill="#5C3825" style="fill:#5C3825;fill:color(display-p3 0.3608 0.2196 0.1451);fill-opacity:1;"/>
<path d="M122.512 41.1484L123.202 41.4104C122.48 43.1193 121.362 43.9789 119.876 43.9789C118.229 43.9789 117.202 42.8572 117.202 41.1484C117.187 39.9836 117.592 38.851 118.346 37.9508C118.66 37.5195 119.074 37.1675 119.553 36.9242C120.033 36.6808 120.565 36.5529 121.106 36.5513C122.539 36.5513 123.367 37.3061 123.367 38.2863C123.367 39.7331 121.876 40.5036 118.897 40.6137C118.897 40.8548 118.865 41.0278 118.865 41.1379C118.865 42.4169 119.352 43.0459 120.309 43.0459C121.266 43.0459 121.972 42.4169 122.49 41.1536M119.817 38.0766C119.429 38.6591 119.152 39.3055 118.999 39.9847C120.881 39.8798 121.822 39.2456 121.822 38.1081C121.822 37.5577 121.56 37.2799 121.025 37.2799C120.772 37.3046 120.53 37.3904 120.319 37.5294C120.108 37.6684 119.936 37.8564 119.817 38.0766Z" fill="#5C3825" style="fill:#5C3825;fill:color(display-p3 0.3608 0.2196 0.1451);fill-opacity:1;"/>
<path d="M127.233 37.626L126.164 41.657C125.961 42.4695 126.073 42.8102 126.576 42.8102C127.078 42.8102 127.645 42.2388 128.18 41.1013L128.869 41.3634C128.132 43.1037 127.174 43.9844 125.998 43.9844C124.635 43.9844 124.18 43.1561 124.619 41.4788L125.64 37.6312H124.367L124.602 36.7401H125.244C125.434 36.7553 125.623 36.6987 125.773 36.5817C125.922 36.4648 126.02 36.2965 126.046 36.1111L126.581 34.1716H128.148L127.474 36.7401H129.324L129.121 37.6312L127.233 37.626Z" fill="#5C3825" style="fill:#5C3825;fill:color(display-p3 0.3608 0.2196 0.1451);fill-opacity:1;"/>
<path d="M134.874 41.1484L135.564 41.4104C134.842 43.1193 133.73 43.9789 132.238 43.9789C130.591 43.9789 129.565 42.8572 129.565 41.1484C129.552 39.984 129.957 38.8523 130.709 37.9508C131.023 37.5188 131.438 37.1664 131.918 36.923C132.399 36.6795 132.932 36.5521 133.474 36.5513C134.901 36.5513 135.73 37.3061 135.73 38.2863C135.73 39.7331 134.244 40.5036 131.26 40.6137C131.26 40.8548 131.228 41.0278 131.228 41.1379C131.228 42.4169 131.714 43.0459 132.671 43.0459C133.629 43.0459 134.334 42.4169 134.853 41.1536M132.179 38.0766C131.791 38.6581 131.515 39.305 131.367 39.9847C133.249 39.8798 134.19 39.2456 134.19 38.1081C134.19 37.5577 133.923 37.2799 133.388 37.2799C133.135 37.3055 132.893 37.3916 132.682 37.5305C132.472 37.6695 132.299 37.857 132.179 38.0766Z" fill="#5C3825" style="fill:#5C3825;fill:color(display-p3 0.3608 0.2196 0.1451);fill-opacity:1;"/>
<path d="M143.596 36.7505L143.034 38.6428C142.718 38.4586 142.363 38.3475 141.997 38.3178C141.106 38.3178 140.368 39.2718 139.783 41.1798L139.093 43.8007H137.489L138.746 39.0831C138.841 38.7614 138.904 38.4313 138.933 38.0976C138.941 38.0486 138.937 37.9984 138.922 37.9511C138.906 37.9038 138.88 37.8606 138.845 37.825C138.81 37.7894 138.766 37.7624 138.718 37.746C138.671 37.7296 138.62 37.7244 138.569 37.7307C138.179 37.7307 137.741 38.2968 137.27 39.4238L136.628 39.1617C137.302 37.4214 138.131 36.5408 139.136 36.5408C139.298 36.5248 139.461 36.5431 139.614 36.5945C139.768 36.6459 139.908 36.7292 140.026 36.8386C140.144 36.9481 140.236 37.0812 140.297 37.2288C140.357 37.3764 140.385 37.5351 140.377 37.694C140.359 38.1214 140.291 38.5453 140.174 38.9573L140.264 39.0306C141.002 37.369 141.837 36.5408 142.746 36.5408C143.04 36.5375 143.33 36.606 143.59 36.74" fill="#5C3825" style="fill:#5C3825;fill:color(display-p3 0.3608 0.2196 0.1451);fill-opacity:1;"/>
<path d="M145.008 42.7158C145.099 41.8713 145.311 41.0436 145.638 40.2573C145.928 39.5587 146.138 38.831 146.264 38.0872C146.264 37.8094 146.141 37.6731 145.89 37.6731C145.387 37.6731 144.885 38.255 144.398 39.4134L143.74 39.167C144.414 37.3062 145.451 36.5461 146.414 36.5461C147.376 36.5461 147.89 37.0231 147.89 37.8199C147.808 38.6859 147.603 39.5364 147.28 40.3465C147.001 41.0236 146.789 41.7258 146.649 42.4432C146.649 42.7158 146.777 42.8573 147.013 42.8573C147.515 42.8573 148.018 42.2702 148.521 41.117L149.178 41.3791C148.563 43.1194 147.638 44 146.43 44C145.537 44 144.986 43.523 144.986 42.7367M146.403 34.57C146.403 34.4287 146.432 34.2888 146.488 34.1588C146.545 34.0288 146.627 33.9113 146.731 33.8134C146.835 33.7155 146.958 33.6392 147.093 33.589C147.228 33.5389 147.371 33.5159 147.515 33.5216C147.649 33.5172 147.781 33.5397 147.905 33.5877C148.029 33.6356 148.142 33.7081 148.236 33.8005C148.33 33.8929 148.404 34.0033 148.453 34.1248C148.502 34.2464 148.525 34.3764 148.521 34.507C148.524 34.6496 148.498 34.7914 148.444 34.9238C148.39 35.0561 148.309 35.1763 148.206 35.2769C148.103 35.3774 147.98 35.4563 147.845 35.5087C147.709 35.5612 147.564 35.586 147.419 35.5816C147.283 35.5854 147.147 35.5615 147.021 35.5115C146.894 35.4614 146.78 35.3863 146.684 35.2908C146.589 35.1953 146.515 35.0815 146.466 34.9566C146.418 34.8316 146.396 34.6982 146.403 34.5647" fill="#5C3825" style="fill:#5C3825;fill:color(display-p3 0.3608 0.2196 0.1451);fill-opacity:1;"/>
<path d="M158.268 41.3634C157.595 43.1037 156.744 43.9844 155.745 43.9844C155.583 44.0031 155.418 43.9868 155.263 43.9364C155.109 43.886 154.967 43.8028 154.849 43.6927C154.73 43.5827 154.638 43.4485 154.578 43.2996C154.519 43.1507 154.493 42.9907 154.504 42.8311C154.526 42.4936 154.578 42.1587 154.659 41.8299L154.563 41.7828C153.857 43.2452 152.996 43.9844 152.007 43.9844C150.879 43.9844 150.028 43.0618 150.028 41.3372C150.024 40.5756 150.185 39.8218 150.499 39.1252C150.813 38.4287 151.274 37.8052 151.852 37.2958C152.37 36.8284 153.046 36.5652 153.75 36.5567C154.152 36.5549 154.542 36.6859 154.858 36.9284C155.175 37.1709 155.398 37.5109 155.493 37.8933L155.787 36.7401H157.391L156.135 41.4578C156.036 41.7787 155.974 42.1091 155.948 42.4432C155.948 42.7053 156.071 42.8259 156.306 42.8259C156.702 42.8259 157.14 42.2545 157.611 41.1171L158.268 41.3634ZM153.991 41.8876C154.45 41.2797 154.786 40.5911 154.98 39.859L155.263 38.8107C155.221 38.4907 155.066 38.1953 154.825 37.976C154.583 37.7567 154.271 37.6272 153.943 37.6103C153.333 37.6103 152.798 38.0453 152.338 38.9207C151.903 39.7289 151.672 40.6277 151.665 41.5417C151.665 42.4013 151.959 42.8311 152.558 42.8311C152.848 42.7966 153.127 42.6967 153.372 42.5395C153.616 42.3822 153.821 42.1717 153.969 41.9243" fill="#5C3825" style="fill:#5C3825;fill:color(display-p3 0.3608 0.2196 0.1451);fill-opacity:1;"/>
</svg>
