<svg width="174" height="44" viewBox="0 0 174 44" fill="none" xmlns="http://www.w3.org/2000/svg">
<path d="M21.4771 7.26811C21.2895 6.8254 20.9704 6.44822 20.5614 6.18555C20.1523 5.92288 19.6721 5.78686 19.1831 5.79515H7.55303V11.5612H16.1406C17.4186 11.5612 17.8036 11.2309 17.8036 10.4237H18.5415V16.0377H17.8036C17.8036 15.22 17.3865 14.8688 16.1406 14.8688H7.55303V19.686C7.55303 20.9074 7.80435 21.3162 8.9433 21.3162V21.9453H2.21655V21.3372C3.3555 21.3372 3.61217 21.0594 3.61217 19.707V4.64719C3.61217 3.36294 3.3555 3.14278 2.21655 3.14278V2.53473H19.4612C20.0058 2.56327 20.5508 2.48668 21.0654 2.30933L22.1348 7.1161L21.4771 7.26811Z" fill="#CC7C53" style="fill:#CC7C53;fill:color(display-p3 0.8000 0.4863 0.3255);fill-opacity:1;"/>
<path d="M51.4266 4.36426V16.1794C51.4263 16.9353 51.2358 17.6795 50.8721 18.346C50.5083 19.0126 49.9825 19.5809 49.3412 20.0007C46.9743 21.5713 44.1786 22.4045 41.3204 22.3909C38.49 22.3545 35.725 21.5508 33.3318 20.0688C32.6535 19.6567 32.0937 19.0818 31.7054 18.3984C31.3171 17.7151 31.1131 16.9459 31.1127 16.1636V4.32756C31.1127 3.2792 30.6582 3.10098 29.7224 3.10098V2.49292H36.5561V3.10098C35.6203 3.10098 35.1658 3.26347 35.1658 4.2699V15.802C35.1658 17.7781 38.4597 19.1358 41.4916 19.1358C44.3309 19.1358 47.7584 17.6104 47.7584 15.8753V4.34329C47.7584 3.34734 47.3414 3.12194 46.3682 3.12194V2.49816H52.8383V3.07476C52.0576 3.07476 51.4373 3.19008 51.4373 4.35901" fill="#CC7C53" style="fill:#CC7C53;fill:color(display-p3 0.8000 0.4863 0.3255);fill-opacity:1;"/>
<path d="M112.203 7.26817C112.037 6.80513 111.719 6.40914 111.299 6.14249C110.879 5.87585 110.381 5.75368 109.882 5.79521H103.171V19.8591C103.171 20.9756 103.567 21.332 104.562 21.332V21.9453H97.8401V21.332C98.947 21.332 99.225 21.0018 99.225 19.8591V5.81093H92.5731C92.0635 5.75438 91.5492 5.86729 91.1129 6.13154C90.6765 6.3958 90.3434 6.79608 90.1669 7.26817L89.4343 7.06897L90.5038 2.26221C91.0621 2.43378 91.6463 2.51003 92.2309 2.48761H110.187C110.771 2.50971 111.356 2.43347 111.914 2.26221L112.983 7.06897L112.203 7.26817Z" fill="#CC7C53" style="fill:#CC7C53;fill:color(display-p3 0.8000 0.4863 0.3255);fill-opacity:1;"/>
<path d="M120.437 21.9452V21.3319C121.507 21.3319 121.828 21.0855 121.828 19.969V4.48985C121.828 3.37334 121.485 3.12697 120.437 3.12697V2.51367H127.132V3.12697C126.062 3.12697 125.768 3.34713 125.768 4.48985V19.9847C125.768 21.1275 126.052 21.3476 127.132 21.3476V21.9452H120.437Z" fill="#CC7C53" style="fill:#CC7C53;fill:color(display-p3 0.8000 0.4863 0.3255);fill-opacity:1;"/>
<path d="M157.643 4.33269V21.9453H153.847L140.655 7.79231H140.596V20.0792C140.596 21.1275 141.013 21.3267 141.986 21.3267V21.9453H135.409V21.332C136.372 21.332 136.8 21.1433 136.8 20.0844V4.3589C136.8 3.31053 136.383 3.11135 135.409 3.11135V2.49805H140.596L153.798 16.803H153.857V4.25407C153.857 3.43634 153.146 3.11659 152.467 3.11659V2.50329H159.044V3.11659C158.258 3.11659 157.632 3.19521 157.632 4.33269" fill="#CC7C53" style="fill:#CC7C53;fill:color(display-p3 0.8000 0.4863 0.3255);fill-opacity:1;"/>
<path d="M167.311 21.9452V21.3319C168.38 21.3319 168.701 21.0855 168.701 19.969V4.48985C168.701 3.37334 168.359 3.12697 167.311 3.12697V2.51367H174V3.12697C172.93 3.12697 172.642 3.34713 172.642 4.48985V19.9847C172.642 21.1275 172.925 21.3476 174 21.3476V21.9452H167.311Z" fill="#CC7C53" style="fill:#CC7C53;fill:color(display-p3 0.8000 0.4863 0.3255);fill-opacity:1;"/>
<path d="M81.419 20.6873C79.7644 18.8082 78.3063 16.7711 77.0664 14.6067C79.9432 13.7261 82.2639 11.5979 82.2639 8.98749C82.2639 4.17548 78.323 2.1731 71.3182 2.1731C68.8532 2.1731 63.0675 2.4247 61.2815 2.50857V3.12187C61.4115 3.10339 61.544 3.11033 61.6712 3.1423C61.7984 3.17426 61.918 3.23061 62.0229 3.3081C62.1278 3.38559 62.216 3.48268 62.2824 3.59377C62.3488 3.70485 62.3921 3.82773 62.4098 3.95532C62.4259 4.04549 62.4259 4.13772 62.4098 4.2279V20.1054C62.4098 21.1538 62.0462 21.353 60.9661 21.353V21.9453H67.7089V21.332C66.6394 21.332 66.3507 21.1119 66.3507 20.0845V15.4402C67.2864 15.4978 68.0511 15.5241 69.5216 15.5241C70.4573 15.5241 71.7353 15.5241 72.4358 15.4507C72.6006 15.446 72.765 15.4302 72.9277 15.4035C73.9835 17.7668 75.379 19.9697 77.0718 21.9453H82.8734V21.332C82.5952 21.3537 82.3159 21.306 82.0615 21.1932C81.8072 21.0805 81.5862 20.9064 81.419 20.6873ZM71.1257 12.4471C70.0563 12.4471 67.7998 12.4156 66.3132 12.3056V5.49118C67.7623 5.40731 70.0028 5.3549 71.2166 5.3549C75.9595 5.3549 78.0236 6.74398 78.0236 8.85644C78.0236 10.9689 76.4194 12.4261 71.1043 12.4261" fill="#CC7C53" style="fill:#CC7C53;fill:color(display-p3 0.8000 0.4863 0.3255);fill-opacity:1;"/>
<path d="M19.2605 5.09501C19.0729 4.65231 18.7539 4.27512 18.3448 4.01245C17.9357 3.74978 17.4555 3.61377 16.9666 3.62206H5.33648V9.38808H13.924C15.202 9.38808 15.587 9.05784 15.587 8.2506H16.3249V13.8646H15.587C15.587 13.0469 15.1699 12.6957 13.924 12.6957H5.33648V17.5129C5.33648 18.7343 5.5878 19.1431 6.72675 19.1431V19.7722H0V19.1641C1.13895 19.1641 1.39561 18.8863 1.39561 17.5339V2.47409C1.39561 1.18984 1.13895 0.969689 0 0.969689V0.361634H17.2446C17.7893 0.390174 18.3343 0.313588 18.8488 0.13623L19.9182 4.943L19.2605 5.09501Z" fill="white" style="fill:white;fill-opacity:1;"/>
<path d="M49.2101 2.19092V14.006C49.2097 14.762 49.0193 15.5061 48.6555 16.1727C48.2918 16.8392 47.766 17.4076 47.1247 17.8273C44.7577 19.398 41.9621 20.2311 39.1039 20.2176C36.2734 20.1812 33.5084 19.3775 31.1152 17.8955C30.4369 17.4834 29.8772 16.9085 29.4889 16.2251C29.1005 15.5417 28.8965 14.7725 28.8961 13.9903V2.15422C28.8961 1.10586 28.4416 0.927635 27.5059 0.927635V0.31958H34.3396V0.927635C33.4038 0.927635 32.9493 1.09013 32.9493 2.09656V13.6286C32.9493 15.6048 36.2431 16.9624 39.275 16.9624C42.1143 16.9624 45.5419 15.4371 45.5419 13.702V2.16995C45.5419 1.174 45.1248 0.948599 44.1516 0.948599V0.324819H50.6217V0.901425C49.841 0.901425 49.2208 1.01674 49.2208 2.18567" fill="white" style="fill:white;fill-opacity:1;"/>
<path d="M109.986 5.09507C109.821 4.63203 109.503 4.23604 109.083 3.9694C108.663 3.70275 108.164 3.58059 107.665 3.62211H100.955V17.686C100.955 18.8025 101.35 19.1589 102.345 19.1589V19.7722H95.6235V19.1589C96.7304 19.1589 97.0085 18.8287 97.0085 17.686V3.63784H90.3566C89.8469 3.58129 89.3327 3.69419 88.8963 3.95845C88.46 4.2227 88.1268 4.62299 87.9503 5.09507L87.2178 4.89588L88.2872 0.0891113C88.8455 0.260683 89.4297 0.33693 90.0143 0.314515H107.97C108.555 0.336618 109.139 0.260379 109.697 0.0891113L110.767 4.89588L109.986 5.09507Z" fill="white" style="fill:white;fill-opacity:1;"/>
<path d="M118.221 19.7721V19.1588C119.29 19.1588 119.611 18.9124 119.611 17.7959V2.31675C119.611 1.20024 119.269 0.953878 118.221 0.953878V0.340576H124.915V0.953878C123.846 0.953878 123.552 1.17403 123.552 2.31675V17.8116C123.552 18.9544 123.835 19.1745 124.915 19.1745V19.7721H118.221Z" fill="white" style="fill:white;fill-opacity:1;"/>
<path d="M155.426 2.15959V19.7722H151.63L138.438 5.61921H138.38V17.9061C138.38 18.9545 138.797 19.1536 139.77 19.1536V19.7722H133.193V19.1589C134.155 19.1589 134.583 18.9702 134.583 17.9113V2.18581C134.583 1.13744 134.166 0.938253 133.193 0.938253V0.324951H138.38L151.582 14.6299H151.641V2.08097C151.641 1.26324 150.929 0.943492 150.25 0.943492V0.330198H156.827V0.943492C156.041 0.943492 155.416 1.02212 155.416 2.15959" fill="white" style="fill:white;fill-opacity:1;"/>
<path d="M165.094 19.7721V19.1588C166.163 19.1588 166.484 18.9124 166.484 17.7959V2.31675C166.484 1.20024 166.142 0.953878 165.094 0.953878V0.340576H171.783V0.953878C170.714 0.953878 170.425 1.17403 170.425 2.31675V17.8116C170.425 18.9544 170.709 19.1745 171.783 19.1745V19.7721H165.094Z" fill="white" style="fill:white;fill-opacity:1;"/>
<path d="M79.2025 18.5142C77.5479 16.6351 76.0897 14.598 74.8499 12.4336C77.7266 11.553 80.0473 9.42483 80.0473 6.81439C80.0473 2.00238 76.1065 0 69.1017 0C66.6366 0 60.851 0.251608 59.065 0.335477V0.948772C59.195 0.93029 59.3274 0.937235 59.4546 0.9692C59.5819 1.00116 59.7014 1.05752 59.8063 1.13501C59.9112 1.2125 59.9994 1.30958 60.0658 1.42067C60.1322 1.53176 60.1755 1.65464 60.1932 1.78222C60.2093 1.8724 60.2093 1.96463 60.1932 2.0548V17.9323C60.1932 18.9807 59.8296 19.1799 58.7495 19.1799V19.7722H65.4923V19.1589C64.4229 19.1589 64.1341 18.9388 64.1341 17.9114V13.2671C65.0699 13.3248 65.8345 13.351 67.305 13.351C68.2408 13.351 69.5187 13.351 70.2192 13.2776C70.3841 13.2729 70.5485 13.2571 70.7112 13.2304C71.767 15.5937 73.1625 17.7966 74.8552 19.7722H80.6569V19.1589C80.3786 19.1806 80.0993 19.1329 79.845 19.0201C79.5907 18.9074 79.3696 18.7333 79.2025 18.5142ZM68.9092 10.274C67.8397 10.274 65.5832 10.2425 64.0967 10.1325V3.31809C65.5458 3.23422 67.7862 3.1818 69.0001 3.1818C73.743 3.1818 75.807 4.57088 75.807 6.68335C75.807 8.79581 74.2029 10.253 68.8878 10.253" fill="white" style="fill:white;fill-opacity:1;"/>
<path d="M26.2974 33.8728C28.6822 33.8728 29.9228 34.9526 29.9228 36.4937C29.9526 37.0101 29.8456 37.5252 29.6123 37.989C29.379 38.4528 29.0273 38.8497 28.5913 39.1409C27.5333 39.7854 26.3013 40.1014 25.0569 40.0477H23.6185L22.9554 42.6162C22.9233 42.7839 22.9554 42.8783 23.0998 42.9097C23.5345 42.9827 23.9742 43.023 24.4152 43.0303L24.228 43.8166H19.6455L19.8487 43.046C20.23 43.034 20.6094 42.9884 20.9823 42.9097C21.0477 42.8891 21.1057 42.8504 21.1493 42.7984C21.1929 42.7463 21.2203 42.6831 21.2283 42.6162L23.1586 35.0942C23.1907 34.9264 23.1586 34.8163 23.0677 34.7849C22.7137 34.7258 22.3567 34.6855 21.9983 34.6643L22.1908 33.8938L26.2974 33.8728ZM25.1371 39.0727C27.1316 39.0727 28.1208 38.0715 28.1208 36.3679C28.1208 35.4296 27.4898 34.7954 26.1584 34.7954H24.9499L23.8537 39.057L25.1371 39.0727Z" fill="white" style="fill:white;fill-opacity:1;"/>
<path d="M38.4142 41.3634C37.7351 43.1037 36.8903 43.9844 35.885 43.9844C35.723 44.0032 35.5587 43.9868 35.4039 43.9364C35.249 43.886 35.1074 43.8028 34.989 43.6928C34.8706 43.5827 34.7784 43.4485 34.7188 43.2996C34.6593 43.1507 34.6339 42.9908 34.6444 42.8312C34.6664 42.4933 34.7201 42.1582 34.8048 41.83L34.7086 41.7828C34.0028 43.2453 33.1419 43.9844 32.1526 43.9844C31.0244 43.9844 30.1742 43.0618 30.1742 41.3372C30.1691 40.576 30.3285 39.8223 30.6419 39.1257C30.9552 38.4292 31.4154 37.8055 31.9922 37.2958C32.5126 36.8285 33.1902 36.5654 33.8958 36.5567C34.2969 36.5542 34.6871 36.6851 35.0026 36.9278C35.3182 37.1705 35.5406 37.5109 35.6337 37.8934L35.9331 36.7401H37.5373L36.286 41.4578C36.1867 41.7787 36.1222 42.1091 36.0935 42.4433C36.0935 42.7054 36.2218 42.8259 36.4571 42.8259C36.8475 42.8259 37.2859 42.2546 37.7565 41.1171L38.4142 41.3634ZM34.1365 41.8876C34.594 41.2795 34.928 40.5908 35.1203 39.859L35.4037 38.8107C35.3628 38.4912 35.2087 38.1959 34.9682 37.9765C34.7278 37.7571 34.4164 37.6274 34.0883 37.6103C33.4734 37.6103 32.944 38.0454 32.4842 38.9207C32.0488 39.7289 31.8177 40.6278 31.8104 41.5417C31.8104 42.4013 32.1099 42.8312 32.7034 42.8312C32.9947 42.7966 33.274 42.6968 33.5197 42.5396C33.7654 42.3823 33.9709 42.1718 34.1204 41.9243" fill="white" style="fill:white;fill-opacity:1;"/>
<path d="M47.4025 41.3634C46.7288 43.1037 45.8786 43.9843 44.8787 43.9843C44.7175 44.0025 44.5542 43.9856 44.4005 43.9347C44.2468 43.8839 44.1065 43.8004 43.9895 43.6903C43.8725 43.5801 43.7818 43.446 43.7238 43.2974C43.6659 43.1489 43.6421 42.9897 43.6542 42.8311C43.6663 42.4781 43.7129 42.127 43.7932 41.7827L43.713 41.7565C42.9751 43.2277 42.1124 43.9651 41.1249 43.9686C39.9967 43.9686 39.1465 43.046 39.1465 41.3214C39.1483 40.1422 39.5342 38.9944 40.248 38.0453C40.524 37.6019 40.9078 37.2325 41.365 36.97C41.8222 36.7075 42.3386 36.56 42.8681 36.5409C43.2637 36.5347 43.6501 36.6582 43.9659 36.8918C44.2817 37.1254 44.5089 37.4558 44.6113 37.8304L45.3171 35.1099C45.3653 34.9264 45.3171 34.8163 45.2369 34.7691C44.8845 34.7 44.5268 34.6596 44.1675 34.6486L44.3439 33.8623H47.2154L46.7876 35.5554L45.253 41.4315C45.1545 41.7524 45.0918 42.0829 45.0658 42.417C45.0658 42.6791 45.1888 42.7996 45.4401 42.7996C45.8305 42.7996 46.2743 42.2283 46.7448 41.0908L47.4025 41.3634ZM43.1248 41.8876C43.5939 41.2603 43.9303 40.5474 44.114 39.7908L44.3974 38.7425C44.3342 38.429 44.1655 38.1455 43.9182 37.9373C43.6709 37.7291 43.3595 37.6084 43.0339 37.5945C42.4243 37.5945 41.8896 38.0296 41.4297 38.905C40.9944 39.7131 40.7633 40.612 40.756 41.5259C40.756 42.3855 41.0501 42.8154 41.649 42.8154C41.9396 42.7808 42.2181 42.681 42.4629 42.5237C42.7077 42.3664 42.9123 42.1559 43.0606 41.9085" fill="white" style="fill:white;fill-opacity:1;"/>
<path d="M56.3593 41.3634C55.6855 43.1037 54.8407 43.9843 53.8354 43.9843C53.6734 44.0031 53.5091 43.9867 53.3543 43.9363C53.1995 43.8859 53.0578 43.8027 52.9395 43.6927C52.8211 43.5826 52.7288 43.4484 52.6693 43.2995C52.6097 43.1506 52.5843 42.9907 52.5949 42.8311C52.6169 42.4932 52.6706 42.1581 52.7553 41.8299L52.659 41.788C51.9532 43.2504 51.0923 43.9895 50.1031 43.9895C48.9695 43.9895 48.1246 43.067 48.1246 41.3424C48.1196 40.5811 48.2789 39.8274 48.5923 39.1309C48.9056 38.4343 49.3659 37.8107 49.9427 37.3009C50.4614 36.8344 51.137 36.5713 51.8409 36.5618C52.2429 36.5582 52.6343 36.6885 52.951 36.9313C53.2677 37.1741 53.4909 37.5151 53.5841 37.8985L53.8835 36.7453H55.4877L54.2311 41.463C54.1354 41.7845 54.0727 42.1147 54.044 42.4484C54.044 42.7105 54.1723 42.8311 54.4076 42.8311C54.7979 42.8311 55.2364 42.2597 55.7069 41.1222L56.3593 41.3634ZM52.0815 41.8876C52.5428 41.2809 52.8788 40.5918 53.0708 39.859L53.3542 38.8106C53.3133 38.4911 53.1591 38.1958 52.9187 37.9764C52.6782 37.757 52.3668 37.6274 52.0388 37.6102C51.4238 37.6102 50.8891 38.0453 50.4346 38.9207C49.9992 39.7288 49.7682 40.6277 49.7609 41.5416C49.7609 42.4012 50.0603 42.8311 50.6538 42.8311C50.9444 42.7965 51.223 42.6967 51.4678 42.5394C51.7126 42.3821 51.9172 42.1716 52.0655 41.9242" fill="white" style="fill:white;fill-opacity:1;"/>
<path d="M63.4229 36.7507L62.8561 38.643C62.5415 38.4598 62.1887 38.3487 61.8241 38.318C60.9258 38.318 60.1879 39.272 59.6104 41.18L58.9206 43.8009H57.3165L58.573 39.0833C58.671 38.7622 58.7337 38.4319 58.7602 38.0978C58.7602 37.8514 58.6372 37.7309 58.4019 37.7309C58.0116 37.7309 57.5678 38.297 57.0972 39.424L56.4556 39.1619C57.1293 37.4216 57.9635 36.541 58.9687 36.541C59.1298 36.5258 59.2923 36.5447 59.4452 36.5965C59.5981 36.6482 59.7379 36.7316 59.8551 36.841C59.9722 36.9504 60.064 37.0832 60.1242 37.2304C60.1844 37.3776 60.2116 37.5358 60.2039 37.6942C60.1891 38.1218 60.1208 38.5461 60.0007 38.9575L60.097 39.0309C60.8349 37.3692 61.6637 36.541 62.5727 36.541C62.8685 36.5384 63.1604 36.6068 63.4229 36.7402" fill="white" style="fill:white;fill-opacity:1;"/>
<path d="M64.8344 42.7158C64.923 41.8714 65.1336 41.0436 65.46 40.2573C65.7526 39.5594 65.9643 38.8315 66.091 38.0872C66.091 37.8094 65.9627 37.6731 65.7113 37.6731C65.2087 37.6731 64.7132 38.2532 64.2248 39.4134L63.5618 39.167C64.2409 37.3062 65.2729 36.5461 66.2621 36.5461C67.2513 36.5461 67.7379 37.0231 67.7379 37.8199C67.6567 38.6865 67.4496 39.5373 67.123 40.3465C66.844 41.0233 66.6345 41.7257 66.4974 42.4432C66.4974 42.7158 66.6257 42.8573 66.861 42.8573C67.3583 42.8573 67.8609 42.2702 68.3635 41.117L69.0212 41.3791C68.4117 43.1194 67.4866 44 66.2781 44C65.3852 44 64.8344 43.523 64.8344 42.7367M66.2461 34.57C66.2459 34.4287 66.275 34.2888 66.3313 34.1588C66.3877 34.0288 66.4704 33.9113 66.5743 33.8134C66.6781 33.7155 66.8011 33.6392 66.9359 33.589C67.0706 33.5389 67.2143 33.5159 67.3583 33.5216C67.4915 33.5172 67.6242 33.5397 67.7482 33.5877C67.8722 33.6356 67.9848 33.7081 68.079 33.8005C68.1733 33.8929 68.2472 34.0033 68.2961 34.1248C68.3451 34.2464 68.368 34.3764 68.3635 34.507C68.3672 34.6491 68.3414 34.7905 68.2876 34.9225C68.2338 35.0545 68.1532 35.1744 68.0506 35.2749C67.9481 35.3754 67.8258 35.4544 67.6912 35.5072C67.5565 35.5599 67.4123 35.5852 67.2674 35.5816C67.1308 35.5854 66.995 35.5615 66.8683 35.5115C66.7416 35.4615 66.6268 35.3865 66.531 35.291C66.4351 35.1956 66.3604 35.0819 66.3114 34.957C66.2624 34.832 66.2401 34.6985 66.2461 34.5647" fill="white" style="fill:white;fill-opacity:1;"/>
<path d="M78.0956 41.3632C77.4165 43.1035 76.5716 43.9842 75.5664 43.9842C75.4043 44.003 75.2401 43.9866 75.0853 43.9362C74.9304 43.8858 74.7888 43.8026 74.6704 43.6926C74.552 43.5825 74.4598 43.4483 74.4002 43.2994C74.3407 43.1505 74.3153 42.9906 74.3258 42.831C74.3478 42.4931 74.4015 42.158 74.4862 41.8298L74.39 41.7826C73.6842 43.2451 72.8233 43.9842 71.834 43.9842C70.7004 43.9842 69.8556 43.0616 69.8556 41.337C69.8505 40.5758 70.0099 39.8221 70.3233 39.1255C70.6366 38.429 71.0968 37.8053 71.6736 37.2956C72.1923 36.829 72.868 36.566 73.5719 36.5565C73.9739 36.5529 74.3653 36.6831 74.6819 36.9259C74.9986 37.1688 75.2218 37.5098 75.315 37.8931L75.6145 36.7399H77.2186L75.9621 41.4576C75.8664 41.7792 75.8037 42.1093 75.7749 42.4431C75.7749 42.7052 75.9032 42.8257 76.1385 42.8257C76.5289 42.8257 76.9673 42.2544 77.4379 41.1169L78.0956 41.3632ZM73.8178 41.8874C74.2791 41.2808 74.6151 40.5917 74.8071 39.8588L75.0905 38.8105C75.0496 38.491 74.8954 38.1957 74.655 37.9763C74.4145 37.7569 74.1031 37.6272 73.7751 37.6101C73.1601 37.6101 72.6254 38.0452 72.1709 38.9205C71.7355 39.7287 71.5045 40.6275 71.4972 41.5415C71.4972 42.4011 71.7966 42.831 72.3901 42.831C72.6807 42.7964 72.9593 42.6966 73.2041 42.5393C73.4489 42.382 73.6535 42.1715 73.8018 41.9241" fill="white" style="fill:white;fill-opacity:1;"/>
<path d="M87.4423 41.1484L88.1321 41.4104C87.4156 43.1193 86.2981 43.9789 84.8062 43.9789C83.1593 43.9789 82.1594 42.8572 82.1594 41.1484C82.1441 39.9836 82.5494 38.851 83.3036 37.9508C83.6171 37.5195 84.0308 37.1675 84.5107 36.9242C84.9905 36.6808 85.5225 36.5529 86.0628 36.5513C87.4905 36.5513 88.3246 37.3061 88.3246 38.2863C88.3246 39.7331 86.8328 40.5036 83.849 40.6137C83.849 40.8548 83.8223 41.0278 83.8223 41.1379C83.8223 42.4169 84.3089 43.0459 85.2661 43.0459C86.2232 43.0459 86.929 42.4169 87.4423 41.1536M84.7688 38.0766C84.3763 38.6567 84.0988 39.304 83.9506 39.9847C85.8328 39.8798 86.774 39.2456 86.774 38.1081C86.774 37.5577 86.5066 37.2799 85.9772 37.2799C85.7242 37.3042 85.4814 37.3897 85.2704 37.5288C85.0595 37.6679 84.8871 37.8561 84.7688 38.0766Z" fill="white" style="fill:white;fill-opacity:1;"/>
<path d="M96.2919 36.4097C95.556 37.5063 95.1688 38.7925 95.1797 40.1052C95.1797 41.8088 96.0888 42.8414 97.5967 42.8414C98.9602 42.8414 99.9494 42.2543 100.751 40.5927L101.5 40.8705C100.591 42.9672 99.2275 43.9789 97.3935 43.9789C94.8642 43.9789 93.3884 42.4063 93.3884 39.9007C93.4187 38.3322 94.0026 36.8225 95.0407 35.6286C95.5221 35.046 96.1253 34.5714 96.8098 34.2368C97.4942 33.9022 98.2439 33.7155 99.0083 33.6892C99.4802 33.6525 99.9524 33.7552 100.364 33.9841C100.776 34.213 101.108 34.5576 101.318 34.9734L102.056 33.6996H102.922L101.923 37.6677H101.201C101.201 35.8226 100.463 34.727 98.9709 34.727C97.9014 34.727 97.0085 35.2827 96.2973 36.3887" fill="white" style="fill:white;fill-opacity:1;"/>
<path d="M111.2 41.3634C110.526 43.1037 109.676 43.9843 108.676 43.9843C108.514 44.0031 108.35 43.9867 108.195 43.9363C108.04 43.8859 107.898 43.8028 107.78 43.6927C107.662 43.5827 107.569 43.4484 107.51 43.2995C107.45 43.1506 107.425 42.9907 107.435 42.8311C107.457 42.4936 107.509 42.1586 107.59 41.8299L107.494 41.7828C106.788 43.2452 105.927 43.9843 104.938 43.9843C103.81 43.9843 102.96 43.0618 102.96 41.3372C102.956 40.5756 103.116 39.8218 103.43 39.1252C103.745 38.4287 104.206 37.8052 104.783 37.2957C105.296 36.8281 105.965 36.5614 106.665 36.5462C107.067 36.5444 107.457 36.6754 107.774 36.9179C108.09 37.1604 108.314 37.5004 108.409 37.8828L108.703 36.7296H110.307L109.05 41.4473C108.952 41.7682 108.889 42.0986 108.863 42.4328C108.863 42.6948 108.986 42.8154 109.221 42.8154C109.617 42.8154 110.055 42.244 110.526 41.1066L111.2 41.3634ZM106.922 41.8876C107.381 41.2797 107.717 40.5911 107.911 39.859L108.195 38.8106C108.153 38.4907 107.997 38.1953 107.756 37.976C107.515 37.7567 107.203 37.6272 106.874 37.6103C106.264 37.6103 105.73 38.0453 105.27 38.9207C104.834 39.7289 104.603 40.6277 104.596 41.5416C104.596 42.4013 104.89 42.8311 105.489 42.8311C105.78 42.7965 106.058 42.6967 106.303 42.5395C106.548 42.3822 106.752 42.1717 106.901 41.9243" fill="white" style="fill:white;fill-opacity:1;"/>
<path d="M118.258 34.507L117.36 35.4978C117.327 35.2801 117.215 35.0812 117.046 34.937C116.876 34.7928 116.659 34.7128 116.435 34.7115C115.857 34.7115 115.462 35.1623 115.242 36.0534L115.071 36.7139H116.986L116.75 37.5892H114.852L113.28 43.7746H111.676L113.28 37.5892H112.264L112.323 37.3586L113.499 36.7139L113.547 36.5461C113.97 34.7115 114.975 33.7155 116.467 33.7155C116.808 33.6933 117.15 33.7517 117.464 33.8858C117.777 34.0199 118.053 34.2257 118.269 34.4861" fill="white" style="fill:white;fill-opacity:1;"/>
<path d="M122.012 41.1484L122.702 41.4104C121.98 43.1193 120.862 43.9789 119.376 43.9789C117.729 43.9789 116.702 42.8572 116.702 41.1484C116.687 39.9836 117.092 38.851 117.846 37.9508C118.16 37.5195 118.574 37.1675 119.053 36.9242C119.533 36.6808 120.065 36.5529 120.606 36.5513C122.039 36.5513 122.867 37.3061 122.867 38.2863C122.867 39.7331 121.376 40.5036 118.397 40.6137C118.397 40.8548 118.365 41.0278 118.365 41.1379C118.365 42.4169 118.852 43.0459 119.809 43.0459C120.766 43.0459 121.472 42.4169 121.99 41.1536M119.317 38.0766C118.929 38.6591 118.652 39.3055 118.499 39.9847C120.381 39.8798 121.322 39.2456 121.322 38.1081C121.322 37.5577 121.06 37.2799 120.525 37.2799C120.272 37.3046 120.03 37.3904 119.819 37.5294C119.608 37.6684 119.436 37.8564 119.317 38.0766Z" fill="white" style="fill:white;fill-opacity:1;"/>
<path d="M126.734 37.626L125.664 41.657C125.461 42.4695 125.573 42.8102 126.076 42.8102C126.578 42.8102 127.145 42.2388 127.68 41.1013L128.37 41.3634C127.632 43.1037 126.675 43.9844 125.498 43.9844C124.135 43.9844 123.68 43.1561 124.119 41.4788L125.14 37.6312H123.867L124.103 36.7401H124.744C124.935 36.7553 125.124 36.6987 125.273 36.5817C125.422 36.4648 125.52 36.2965 125.546 36.1111L126.081 34.1716H127.648L126.974 36.7401H128.824L128.621 37.6312L126.734 37.626Z" fill="white" style="fill:white;fill-opacity:1;"/>
<path d="M134.374 41.1484L135.064 41.4104C134.342 43.1193 133.23 43.9789 131.738 43.9789C130.091 43.9789 129.065 42.8572 129.065 41.1484C129.052 39.984 129.457 38.8523 130.209 37.9508C130.523 37.5188 130.938 37.1664 131.418 36.923C131.899 36.6795 132.432 36.5521 132.974 36.5513C134.401 36.5513 135.23 37.3061 135.23 38.2863C135.23 39.7331 133.744 40.5036 130.76 40.6137C130.76 40.8548 130.728 41.0278 130.728 41.1379C130.728 42.4169 131.214 43.0459 132.171 43.0459C133.129 43.0459 133.834 42.4169 134.353 41.1536M131.679 38.0766C131.291 38.6581 131.015 39.305 130.867 39.9847C132.749 39.8798 133.69 39.2456 133.69 38.1081C133.69 37.5577 133.423 37.2799 132.888 37.2799C132.635 37.3055 132.393 37.3916 132.182 37.5305C131.972 37.6695 131.799 37.857 131.679 38.0766Z" fill="white" style="fill:white;fill-opacity:1;"/>
<path d="M143.096 36.7505L142.534 38.6428C142.218 38.4586 141.863 38.3475 141.497 38.3178C140.606 38.3178 139.868 39.2718 139.283 41.1798L138.593 43.8007H136.989L138.246 39.0831C138.341 38.7614 138.404 38.4313 138.433 38.0976C138.441 38.0486 138.437 37.9984 138.422 37.9511C138.406 37.9038 138.38 37.8606 138.345 37.825C138.31 37.7894 138.266 37.7624 138.218 37.746C138.171 37.7296 138.12 37.7244 138.069 37.7307C137.679 37.7307 137.241 38.2968 136.77 39.4238L136.128 39.1617C136.802 37.4214 137.631 36.5408 138.636 36.5408C138.798 36.5248 138.961 36.5431 139.114 36.5945C139.268 36.6459 139.408 36.7292 139.526 36.8386C139.644 36.9481 139.736 37.0812 139.797 37.2288C139.857 37.3764 139.885 37.5351 139.877 37.694C139.859 38.1214 139.791 38.5453 139.674 38.9573L139.764 39.0306C140.502 37.369 141.337 36.5408 142.246 36.5408C142.54 36.5375 142.83 36.606 143.09 36.74" fill="white" style="fill:white;fill-opacity:1;"/>
<path d="M144.507 42.7158C144.599 41.8713 144.811 41.0436 145.138 40.2573C145.428 39.5587 145.637 38.831 145.764 38.0872C145.764 37.8094 145.641 37.6731 145.39 37.6731C144.887 37.6731 144.384 38.255 143.898 39.4134L143.24 39.167C143.914 37.3062 144.951 36.5461 145.914 36.5461C146.876 36.5461 147.389 37.0231 147.389 37.8199C147.308 38.6859 147.103 39.5364 146.78 40.3465C146.5 41.0236 146.289 41.7258 146.149 42.4432C146.149 42.7158 146.277 42.8573 146.512 42.8573C147.015 42.8573 147.518 42.2702 148.02 41.117L148.678 41.3791C148.063 43.1194 147.138 44 145.93 44C145.037 44 144.486 43.523 144.486 42.7367M145.903 34.57C145.903 34.4287 145.932 34.2888 145.988 34.1588C146.045 34.0288 146.127 33.9113 146.231 33.8134C146.335 33.7155 146.458 33.6392 146.593 33.589C146.727 33.5389 146.871 33.5159 147.015 33.5216C147.148 33.5172 147.281 33.5397 147.405 33.5877C147.529 33.6356 147.642 33.7081 147.736 33.8005C147.83 33.8929 147.904 34.0033 147.953 34.1248C148.002 34.2464 148.025 34.3764 148.02 34.507C148.024 34.6496 147.998 34.7914 147.944 34.9238C147.89 35.0561 147.809 35.1763 147.706 35.2769C147.603 35.3774 147.48 35.4563 147.344 35.5087C147.209 35.5612 147.064 35.586 146.919 35.5816C146.783 35.5854 146.647 35.5615 146.521 35.5115C146.394 35.4614 146.28 35.3863 146.184 35.2908C146.089 35.1953 146.015 35.0815 145.966 34.9566C145.918 34.8316 145.896 34.6982 145.903 34.5647" fill="white" style="fill:white;fill-opacity:1;"/>
<path d="M157.769 41.3634C157.095 43.1037 156.245 43.9844 155.245 43.9844C155.083 44.0031 154.919 43.9868 154.764 43.9364C154.609 43.886 154.467 43.8028 154.349 43.6927C154.23 43.5827 154.138 43.4485 154.079 43.2996C154.019 43.1507 153.994 42.9907 154.004 42.8311C154.026 42.4936 154.078 42.1587 154.159 41.8299L154.063 41.7828C153.357 43.2452 152.496 43.9844 151.507 43.9844C150.379 43.9844 149.529 43.0618 149.529 41.3372C149.525 40.5756 149.685 39.8218 149.999 39.1252C150.313 38.4287 150.775 37.8052 151.352 37.2958C151.87 36.8284 152.546 36.5652 153.25 36.5567C153.652 36.5549 154.042 36.6859 154.359 36.9284C154.675 37.1709 154.898 37.5109 154.993 37.8933L155.288 36.7401H156.892L155.635 41.4578C155.537 41.7787 155.474 42.1091 155.448 42.4432C155.448 42.7053 155.571 42.8259 155.806 42.8259C156.202 42.8259 156.64 42.2545 157.111 41.1171L157.769 41.3634ZM153.491 41.8876C153.95 41.2797 154.286 40.5911 154.48 39.859L154.764 38.8107C154.721 38.4907 154.566 38.1953 154.325 37.976C154.084 37.7567 153.771 37.6272 153.443 37.6103C152.833 37.6103 152.298 38.0453 151.839 38.9207C151.403 39.7289 151.172 40.6277 151.165 41.5417C151.165 42.4013 151.459 42.8311 152.058 42.8311C152.348 42.7966 152.627 42.6967 152.872 42.5395C153.117 42.3822 153.321 42.1717 153.47 41.9243" fill="white" style="fill:white;fill-opacity:1;"/>
</svg>
