<svg width="69" height="69" viewBox="0 0 69 69" fill="none" xmlns="http://www.w3.org/2000/svg">
<mask id="path-1-inside-1_206_188" fill="white">
<path d="M46.3299 25.27H46.7799L34.5399 34.93L47.4799 45.16H47.0299L34.3299 35.13L21.6299 45.16H21.1799L34.1299 34.93L21.89 25.27H22.3399L34.3299 34.76L46.3299 25.27Z"/>
</mask>
<path d="M46.3299 25.27H46.7799L34.5399 34.93L47.4799 45.16H47.0299L34.3299 35.13L21.6299 45.16H21.1799L34.1299 34.93L21.89 25.27H22.3399L34.3299 34.76L46.3299 25.27Z" fill="#DB7453" style="fill:#DB7453;fill:color(display-p3 0.8588 0.4549 0.3255);fill-opacity:1;"/>
<path d="M46.3299 25.27V24.27H45.9823L45.7096 24.4856L46.3299 25.27ZM46.7799 25.27L47.3995 26.055L49.6612 24.27H46.7799V25.27ZM34.5399 34.93L33.9204 34.145L32.9266 34.9293L33.9198 35.7145L34.5399 34.93ZM47.4799 45.16V46.16H50.3573L48.1001 44.3755L47.4799 45.16ZM47.0299 45.16L46.4102 45.9448L46.6827 46.16H47.0299V45.16ZM34.3299 35.13L34.9497 34.3452L34.3299 33.8558L33.7101 34.3452L34.3299 35.13ZM21.6299 45.16V46.16H21.9772L22.2497 45.9448L21.6299 45.16ZM21.1799 45.16L20.5601 44.3753L18.3008 46.16H21.1799V45.16ZM34.1299 34.93L34.7498 35.7147L35.7436 34.9296L34.7495 34.145L34.1299 34.93ZM21.89 25.27V24.27H19.0087L21.2704 26.055L21.89 25.27ZM22.3399 25.27L22.9606 24.4859L22.6878 24.27H22.3399V25.27ZM34.3299 34.76L33.7093 35.5441L34.3297 36.0351L34.9502 35.5444L34.3299 34.76ZM46.3299 26.27H46.7799V24.27H46.3299V26.27ZM46.1604 24.485L33.9204 34.145L35.1595 35.715L47.3995 26.055L46.1604 24.485ZM33.9198 35.7145L46.8598 45.9445L48.1001 44.3755L35.1601 34.1455L33.9198 35.7145ZM47.4799 44.16H47.0299V46.16H47.4799V44.16ZM47.6497 44.3752L34.9497 34.3452L33.7101 35.9148L46.4102 45.9448L47.6497 44.3752ZM33.7101 34.3452L21.0102 44.3752L22.2497 45.9448L34.9497 35.9148L33.7101 34.3452ZM21.6299 44.16H21.1799V46.16H21.6299V44.16ZM21.7998 45.9447L34.7498 35.7147L33.5101 34.1453L20.5601 44.3753L21.7998 45.9447ZM34.7495 34.145L22.5095 24.485L21.2704 26.055L33.5104 35.715L34.7495 34.145ZM21.89 26.27H22.3399V24.27H21.89V26.27ZM21.7193 26.0541L33.7093 35.5441L34.9505 33.9759L22.9606 24.4859L21.7193 26.0541ZM34.9502 35.5444L46.9502 26.0544L45.7096 24.4856L33.7096 33.9756L34.9502 35.5444Z" fill="#DB7453" style="fill:#DB7453;fill:color(display-p3 0.8588 0.4549 0.3255);fill-opacity:1;" mask="url(#path-1-inside-1_206_188)"/>
<path d="M46.3299 25.27H46.7799L34.5399 34.93L47.4799 45.16H47.0299L34.3299 35.13L21.6299 45.16H21.1799L34.1299 34.93L21.89 25.27H22.3399L34.3299 34.76L46.3299 25.27Z" stroke="#DB7453" style="stroke:#DB7453;stroke:color(display-p3 0.8588 0.4549 0.3255);stroke-opacity:1;" stroke-miterlimit="10"/>
<mask id="path-4-inside-2_206_188" fill="white">
<path d="M11.0899 53.51L5.68992 56.16L3.70992 52.11C3.09992 50.87 3.04991 49.55 4.47991 48.85C5.90991 48.15 6.91991 48.99 7.52991 50.24L9.20991 53.66L10.7899 52.89L11.0899 53.51ZM5.96991 55.25L8.62992 53.95L6.92991 50.48C6.47991 49.57 5.77991 49 4.77991 49.48C3.77991 49.97 3.81992 50.87 4.26992 51.78L5.96991 55.25Z"/>
</mask>
<path d="M11.0899 53.51L5.68992 56.16L3.70992 52.11C3.09992 50.87 3.04991 49.55 4.47991 48.85C5.90991 48.15 6.91991 48.99 7.52991 50.24L9.20991 53.66L10.7899 52.89L11.0899 53.51ZM5.96991 55.25L8.62992 53.95L6.92991 50.48C6.47991 49.57 5.77991 49 4.77991 49.48C3.77991 49.97 3.81992 50.87 4.26992 51.78L5.96991 55.25Z" fill="#231A22" style="fill:#231A22;fill:color(display-p3 0.1373 0.1020 0.1333);fill-opacity:1;"/>
<path d="M11.0899 53.51L11.5305 54.4077L12.4232 53.9696L11.9901 53.0745L11.0899 53.51ZM5.68992 56.16L4.79153 56.5992L5.2314 57.4989L6.13046 57.0577L5.68992 56.16ZM3.70992 52.11L4.60831 51.6708L4.60722 51.6686L3.70992 52.11ZM7.52991 50.24L6.63121 50.6786L6.63236 50.6809L7.52991 50.24ZM9.20991 53.66L8.31235 54.1009L8.75187 54.9956L9.64798 54.5589L9.20991 53.66ZM10.7899 52.89L11.6901 52.4545L11.2533 51.5518L10.3518 51.9911L10.7899 52.89ZM5.96991 55.25L5.07189 55.69L5.51142 56.5871L6.409 56.1485L5.96991 55.25ZM8.62992 53.95L9.069 54.8485L9.96832 54.409L9.52794 53.5101L8.62992 53.95ZM6.92991 50.48L7.82793 50.0401L7.82629 50.0367L6.92991 50.48ZM4.77991 49.48L4.34717 48.5785L4.3399 48.582L4.77991 49.48ZM4.26992 51.78L5.16795 51.34L5.16631 51.3367L4.26992 51.78ZM10.6494 52.6123L5.24937 55.2622L6.13046 57.0577L11.5305 54.4077L10.6494 52.6123ZM6.5883 55.7208L4.6083 51.6708L2.81154 52.5492L4.79153 56.5992L6.5883 55.7208ZM4.60722 51.6686C4.34794 51.1415 4.27266 50.7198 4.31778 50.4328C4.35195 50.2155 4.46622 49.9701 4.91957 49.7482L4.04025 47.9518C3.0636 48.4299 2.48788 49.1945 2.34205 50.1222C2.20717 50.9802 2.4619 51.8385 2.81262 52.5514L4.60722 51.6686ZM4.91957 49.7482C5.37549 49.525 5.63963 49.5851 5.831 49.6902C6.08415 49.8293 6.37138 50.1461 6.63121 50.6786L8.42861 49.8014C8.07845 49.0839 7.55568 48.3557 6.79383 47.9373C5.9702 47.4849 5.01433 47.475 4.04025 47.9518L4.91957 49.7482ZM6.63236 50.6809L8.31235 54.1009L10.1075 53.2191L8.42747 49.7991L6.63236 50.6809ZM9.64798 54.5589L11.228 53.789L10.3518 51.9911L8.77183 52.7611L9.64798 54.5589ZM9.88976 53.3256L10.1897 53.9456L11.9901 53.0745L11.6901 52.4545L9.88976 53.3256ZM6.409 56.1485L9.069 54.8485L8.19083 53.0516L5.53083 54.3516L6.409 56.1485ZM9.52794 53.5101L7.82793 50.0401L6.03189 50.92L7.7319 54.39L9.52794 53.5101ZM7.82629 50.0367C7.5588 49.4958 7.15474 48.9195 6.54367 48.5829C5.86954 48.2115 5.10065 48.2168 4.34718 48.5785L5.21264 50.3815C5.35135 50.315 5.43498 50.3058 5.47371 50.3058C5.50844 50.3058 5.53902 50.3128 5.57865 50.3347C5.68008 50.3905 5.85101 50.5542 6.03352 50.9233L7.82629 50.0367ZM4.3399 48.582C3.58413 48.9524 3.10458 49.5592 2.99178 50.3272C2.89045 51.0171 3.10876 51.6878 3.37353 52.2233L5.16631 51.3367C4.98108 50.9622 4.95438 50.7279 4.97055 50.6178C4.97657 50.5769 4.9878 50.5535 5.00541 50.5308C5.02578 50.5045 5.08139 50.4459 5.21993 50.378L4.3399 48.582ZM3.3719 52.22L5.07189 55.69L6.86794 54.8101L5.16794 51.3401L3.3719 52.22Z" fill="#DB7453" style="fill:#DB7453;fill:color(display-p3 0.8588 0.4549 0.3255);fill-opacity:1;" mask="url(#path-4-inside-2_206_188)"/>
<mask id="path-6-inside-3_206_188" fill="white">
<path d="M1.59005 45.78L0.910053 41.06C0.730053 39.78 1.06006 38.69 2.49005 38.49C3.92005 38.28 4.54006 39.27 4.71006 40.53L4.79004 41.08L6.50005 37.65L6.65004 38.72L4.95005 42.04L5.31005 44.54L7.44005 44.23L7.54006 44.91L1.59005 45.78ZM4.10006 40.61C3.97006 39.71 3.55005 39.05 2.59005 39.19C1.63005 39.33 1.41004 40.06 1.54004 40.95L2.13005 45.01L4.68004 44.64L4.10006 40.61Z"/>
</mask>
<path d="M1.59005 45.78L0.910053 41.06C0.730053 39.78 1.06006 38.69 2.49005 38.49C3.92005 38.28 4.54006 39.27 4.71006 40.53L4.79004 41.08L6.50005 37.65L6.65004 38.72L4.95005 42.04L5.31005 44.54L7.44005 44.23L7.54006 44.91L1.59005 45.78ZM4.10006 40.61C3.97006 39.71 3.55005 39.05 2.59005 39.19C1.63005 39.33 1.41004 40.06 1.54004 40.95L2.13005 45.01L4.68004 44.64L4.10006 40.61Z" fill="#231A22" style="fill:#231A22;fill:color(display-p3 0.1373 0.1020 0.1333);fill-opacity:1;"/>
<path d="M1.59005 45.78L0.600265 45.9226L0.743159 46.9145L1.73472 46.7695L1.59005 45.78ZM0.910053 41.06L-0.080209 41.1993L-0.0797281 41.2026L0.910053 41.06ZM2.49005 38.49L2.62857 39.4804L2.63535 39.4794L2.49005 38.49ZM4.71006 40.53L3.71898 40.6637L3.72047 40.6739L4.71006 40.53ZM4.79004 41.08L3.80045 41.2239L4.26008 44.3843L5.68499 41.5262L4.79004 41.08ZM6.50005 37.65L7.49037 37.5112L7.04298 34.3197L5.6051 37.2038L6.50005 37.65ZM6.65004 38.72L7.54014 39.1758L7.68426 38.8943L7.64036 38.5812L6.65004 38.72ZM4.95005 42.04L4.05995 41.5842L3.91489 41.8675L3.96026 42.1825L4.95005 42.04ZM5.31005 44.54L4.32026 44.6825L4.463 45.6738L5.45407 45.5296L5.31005 44.54ZM7.44005 44.23L8.42941 44.0845L8.28412 43.0966L7.29603 43.2404L7.44005 44.23ZM7.54006 44.91L7.68474 45.8995L8.67504 45.7547L8.52942 44.7645L7.54006 44.91ZM4.10006 40.61L5.08986 40.4675L5.08978 40.467L4.10006 40.61ZM1.54004 40.95L2.52965 40.8062L2.52954 40.8055L1.54004 40.95ZM2.13005 45.01L1.14045 45.1538L1.28423 46.1432L2.27365 45.9996L2.13005 45.01ZM4.68004 44.64L4.82364 45.6297L5.81213 45.4862L5.66984 44.4976L4.68004 44.64ZM2.57983 45.6374L1.89983 40.9174L-0.0797281 41.2026L0.600265 45.9226L2.57983 45.6374ZM1.90031 40.9207C1.82353 40.3748 1.88242 40.0251 1.98285 39.8326C2.04935 39.7052 2.1814 39.5429 2.62857 39.4804L2.35154 37.4996C1.36871 37.6371 0.620764 38.1198 0.209762 38.9073C-0.167312 39.6299 -0.183427 40.4652 -0.0802034 41.1993L1.90031 40.9207ZM2.63535 39.4794C3.07087 39.4154 3.24109 39.5339 3.34294 39.6426C3.49567 39.8056 3.64719 40.1312 3.71904 40.6637L5.70108 40.3963C5.60292 39.6688 5.35944 38.8694 4.80217 38.2749C4.19402 37.626 3.33924 37.3546 2.34476 37.5006L2.63535 39.4794ZM3.72047 40.6739L3.80045 41.2239L5.77963 40.9361L5.69965 40.3861L3.72047 40.6739ZM5.68499 41.5262L7.395 38.0962L5.6051 37.2038L3.8951 40.6338L5.68499 41.5262ZM5.50973 37.7888L5.65973 38.8588L7.64036 38.5812L7.49037 37.5112L5.50973 37.7888ZM5.75995 38.2642L4.05995 41.5842L5.84014 42.4958L7.54014 39.1758L5.75995 38.2642ZM3.96026 42.1825L4.32026 44.6825L6.29984 44.3975L5.93984 41.8975L3.96026 42.1825ZM5.45407 45.5296L7.58407 45.2196L7.29603 43.2404L5.16603 43.5504L5.45407 45.5296ZM6.45069 44.3755L6.5507 45.0555L8.52942 44.7645L8.42941 44.0845L6.45069 44.3755ZM7.39538 43.9205L1.44537 44.7905L1.73472 46.7695L7.68474 45.8995L7.39538 43.9205ZM5.08978 40.467C5.01221 39.93 4.83046 39.3052 4.38934 38.8298C3.89416 38.2962 3.20479 38.0898 2.44574 38.2005L2.73435 40.1795C2.85265 40.1623 2.9023 40.1769 2.90892 40.179C2.91101 40.1797 2.91239 40.1785 2.92327 40.1902C2.96465 40.2348 3.0579 40.39 3.11033 40.7529L5.08978 40.467ZM2.44574 38.2005C1.69956 38.3093 1.09502 38.6883 0.765473 39.3344C0.470576 39.9126 0.47252 40.5604 0.550543 41.0945L2.52954 40.8055C2.47757 40.4496 2.52451 40.2874 2.54712 40.2431C2.55213 40.2333 2.5523 40.2344 2.55603 40.2319C2.56427 40.2264 2.61161 40.1974 2.73435 40.1795L2.44574 38.2005ZM0.550438 41.0938L1.14045 45.1538L3.11966 44.8662L2.52965 40.8062L0.550438 41.0938ZM2.27365 45.9996L4.82364 45.6297L4.53645 43.6504L1.98646 44.0204L2.27365 45.9996ZM5.66984 44.4976L5.08986 40.4675L3.11025 40.7524L3.69024 44.7825L5.66984 44.4976Z" fill="#DB7453" style="fill:#DB7453;fill:color(display-p3 0.8588 0.4549 0.3255);fill-opacity:1;" mask="url(#path-6-inside-3_206_188)"/>
<mask id="path-8-inside-4_206_188" fill="white">
<path d="M0.759916 30.87C1.08992 28.24 2.59993 27.03 4.37993 27.25C6.15993 27.47 7.31991 29.01 6.98991 31.64C6.65991 34.27 5.14992 35.48 3.36992 35.26C1.58992 35.03 0.429916 33.5 0.759916 30.87ZM6.34993 31.57C6.61993 29.36 5.71991 28.13 4.28991 27.95C2.86991 27.77 1.67991 28.74 1.39991 30.95C1.11991 33.16 2.02992 34.4 3.44992 34.58C4.87992 34.75 6.06993 33.78 6.34993 31.57Z"/>
</mask>
<path d="M0.759916 30.87C1.08992 28.24 2.59993 27.03 4.37993 27.25C6.15993 27.47 7.31991 29.01 6.98991 31.64C6.65991 34.27 5.14992 35.48 3.36992 35.26C1.58992 35.03 0.429916 33.5 0.759916 30.87ZM6.34993 31.57C6.61993 29.36 5.71991 28.13 4.28991 27.95C2.86991 27.77 1.67991 28.74 1.39991 30.95C1.11991 33.16 2.02992 34.4 3.44992 34.58C4.87992 34.75 6.06993 33.78 6.34993 31.57Z" fill="#231A22" style="fill:#231A22;fill:color(display-p3 0.1373 0.1020 0.1333);fill-opacity:1;"/>
<path d="M3.36992 35.26L3.24177 36.2518L3.24725 36.2525L3.36992 35.26ZM6.34993 31.57L7.34201 31.6957L7.34255 31.6913L6.34993 31.57ZM4.28991 27.95L4.16416 28.9421L4.16503 28.9422L4.28991 27.95ZM3.44992 34.58L3.32416 35.5721L3.33187 35.573L3.44992 34.58ZM1.75214 30.9945C1.89713 29.839 2.28554 29.1205 2.71167 28.7193C3.1211 28.3338 3.64123 28.1663 4.25726 28.2424L4.50259 26.2576C3.33862 26.1137 2.21374 26.4412 1.34068 27.2632C0.484298 28.0695 -0.0472958 29.271 -0.232304 30.7455L1.75214 30.9945ZM4.25726 28.2424C4.87299 28.3186 5.33289 28.6068 5.63227 29.0778C5.94443 29.5688 6.14281 30.359 5.99769 31.5155L7.98213 31.7645C8.16701 30.2911 7.9504 28.9962 7.32007 28.0048C6.67696 26.9932 5.66686 26.4015 4.50259 26.2576L4.25726 28.2424ZM5.99769 31.5155C5.8527 32.6711 5.46429 33.3895 5.03817 33.7907C4.62873 34.1762 4.10861 34.3437 3.49258 34.2676L3.24725 36.2525C4.41123 36.3963 5.5361 36.0688 6.40916 35.2468C7.26553 34.4405 7.79712 33.239 7.98213 31.7645L5.99769 31.5155ZM3.49806 34.2683C2.87785 34.1881 2.41645 33.8978 2.11715 33.4279C1.80541 32.9383 1.60702 32.151 1.75214 30.9945L-0.232304 30.7455C-0.417191 32.219 -0.20058 33.5117 0.430179 34.5022C1.07338 35.5122 2.08199 36.1019 3.24177 36.2518L3.49806 34.2683ZM7.34255 31.6913C7.49486 30.4446 7.33514 29.3366 6.811 28.4778C6.26957 27.5907 5.40631 27.0826 4.4148 26.9578L4.16503 28.9422C4.60352 28.9974 4.90527 29.1944 5.10384 29.5197C5.3197 29.8734 5.475 30.4854 5.35731 31.4487L7.34255 31.6913ZM4.41567 26.958C3.42688 26.8326 2.46443 27.1127 1.72004 27.8371C0.998079 28.5396 0.56618 29.5746 0.407846 30.8243L2.39198 31.0757C2.51365 30.1154 2.81675 29.5605 3.11479 29.2705C3.3904 29.0023 3.73295 28.8874 4.16416 28.9421L4.41567 26.958ZM0.407846 30.8243C0.249508 32.0741 0.409564 33.1847 0.932882 34.0456C1.47246 34.9334 2.33425 35.4466 3.32416 35.572L3.57567 33.5879C3.14558 33.5334 2.84237 33.3366 2.64195 33.0069C2.42527 32.6504 2.27032 32.036 2.39198 31.0757L0.407846 30.8243ZM3.33187 35.573C4.32153 35.6906 5.28373 35.409 6.02857 34.6842C6.75159 33.9806 7.18362 32.9457 7.342 31.6957L5.35786 31.4443C5.23623 32.4043 4.93326 32.9594 4.63377 33.2508C4.35611 33.521 4.00831 33.6393 3.56797 33.587L3.33187 35.573Z" fill="#DB7453" style="fill:#DB7453;fill:color(display-p3 0.8588 0.4549 0.3255);fill-opacity:1;" mask="url(#path-8-inside-4_206_188)"/>
<mask id="path-10-inside-5_206_188" fill="white">
<path d="M8.05008 25.38L2.6001 22.84L3.84009 20.17C5.16009 17.33 6.82009 16.66 8.44009 17.43C10.0601 18.19 10.6201 19.88 9.30008 22.72L8.05008 25.38ZM3.47009 22.49L7.7601 24.47L8.71008 22.42C9.83008 20.01 9.44011 18.65 8.14011 18.03C6.84011 17.41 5.55009 18 4.42009 20.42L3.47009 22.49Z"/>
</mask>
<path d="M8.05008 25.38L2.6001 22.84L3.84009 20.17C5.16009 17.33 6.82009 16.66 8.44009 17.43C10.0601 18.19 10.6201 19.88 9.30008 22.72L8.05008 25.38ZM3.47009 22.49L7.7601 24.47L8.71008 22.42C9.83008 20.01 9.44011 18.65 8.14011 18.03C6.84011 17.41 5.55009 18 4.42009 20.42L3.47009 22.49Z" fill="#231A22" style="fill:#231A22;fill:color(display-p3 0.1373 0.1020 0.1333);fill-opacity:1;"/>
<path d="M8.05008 25.38L7.62765 26.2864L8.53117 26.7075L8.95513 25.8053L8.05008 25.38ZM2.6001 22.84L1.69313 22.4188L1.27249 23.3245L2.17767 23.7464L2.6001 22.84ZM3.84009 20.17L2.93325 19.7485L2.93313 19.7488L3.84009 20.17ZM8.44009 17.43L8.0108 18.3332L8.01537 18.3353L8.44009 17.43ZM9.30008 22.72L10.2051 23.1453L10.2069 23.1415L9.30008 22.72ZM3.47009 22.49L2.56124 22.0729L2.14502 22.9798L3.05103 23.3979L3.47009 22.49ZM7.7601 24.47L7.34104 25.3779L8.2476 25.7964L8.66741 24.8904L7.7601 24.47ZM8.71008 22.42L7.80323 21.9986L7.80277 21.9995L8.71008 22.42ZM4.42009 20.42L3.51398 19.9969L3.51123 20.0029L4.42009 20.42ZM8.47251 24.4736L3.02253 21.9336L2.17767 23.7464L7.62765 26.2864L8.47251 24.4736ZM3.50706 23.2612L4.74705 20.5912L2.93313 19.7488L1.69313 22.4188L3.50706 23.2612ZM4.74692 20.5915C5.36256 19.2669 5.9887 18.6062 6.50596 18.3244C6.96879 18.0723 7.44784 18.0656 8.01081 18.3332L8.86938 16.5268C7.81235 16.0244 6.6514 15.9677 5.54923 16.5681C4.50148 17.1388 3.63761 18.2331 2.93325 19.7485L4.74692 20.5915ZM8.01537 18.3353C8.58281 18.6015 8.88724 18.9762 8.99266 19.4943C9.11009 20.0716 9.00883 20.9741 8.39324 22.2985L10.2069 23.1415C10.9113 21.6259 11.1901 20.2634 10.9525 19.0956C10.7029 17.8688 9.91738 17.0185 8.86481 16.5247L8.01537 18.3353ZM8.39503 22.2947L7.14503 24.9547L8.95513 25.8053L10.2051 23.1453L8.39503 22.2947ZM3.05103 23.3979L7.34104 25.3779L8.17916 23.562L3.88915 21.582L3.05103 23.3979ZM8.66741 24.8904L9.6174 22.8405L7.80277 21.9995L6.85279 24.0495L8.66741 24.8904ZM9.61694 22.8414C10.2136 21.5575 10.487 20.3958 10.3189 19.3891C10.1382 18.3064 9.47457 17.5585 8.57058 17.1274L7.70963 18.9326C8.10564 19.1215 8.28701 19.3636 8.34625 19.7184C8.41816 20.1492 8.32655 20.8725 7.80323 21.9986L9.61694 22.8414ZM8.57058 17.1274C7.65739 16.6919 6.65297 16.6618 5.70513 17.2255C4.82801 17.7473 4.11462 18.7106 3.514 19.9969L5.32618 20.8431C5.85556 19.7094 6.35217 19.1677 6.72756 18.9444C7.03224 18.7632 7.32282 18.7481 7.70963 18.9326L8.57058 17.1274ZM3.51123 20.0029L2.56124 22.0729L4.37895 22.9071L5.32895 20.8371L3.51123 20.0029Z" fill="#DB7453" style="fill:#DB7453;fill:color(display-p3 0.8588 0.4549 0.3255);fill-opacity:1;" mask="url(#path-10-inside-5_206_188)"/>
<mask id="path-12-inside-6_206_188" fill="white">
<path d="M12.7899 7.97L13.2799 7.48999L15.8299 10.05C17.0899 11.31 16.7699 12.69 15.0699 14.39C13.3599 16.09 11.9799 16.4 10.7099 15.16L8.15991 12.6L8.6499 12.11L11.1999 14.67C12.1999 15.68 13.2999 15.24 14.5999 13.95C15.8999 12.65 16.3399 11.55 15.3299 10.55L12.7899 7.97Z"/>
</mask>
<path d="M12.7899 7.97L13.2799 7.48999L15.8299 10.05C17.0899 11.31 16.7699 12.69 15.0699 14.39C13.3599 16.09 11.9799 16.4 10.7099 15.16L8.15991 12.6L8.6499 12.11L11.1999 14.67C12.1999 15.68 13.2999 15.24 14.5999 13.95C15.8999 12.65 16.3399 11.55 15.3299 10.55L12.7899 7.97Z" fill="#231A22" style="fill:#231A22;fill:color(display-p3 0.1373 0.1020 0.1333);fill-opacity:1;"/>
<path d="M12.7899 7.97L12.0901 7.25566L11.374 7.95719L12.0773 8.67156L12.7899 7.97ZM13.2799 7.48999L13.9884 6.78427L13.2885 6.08166L12.5801 6.77565L13.2799 7.48999ZM15.8299 10.05L15.1214 10.7557L15.1228 10.7571L15.8299 10.05ZM15.0699 14.39L15.7749 15.0992L15.777 15.0971L15.0699 14.39ZM10.7099 15.16L10.0013 15.8658L10.0113 15.8755L10.7099 15.16ZM8.15991 12.6L7.45278 11.8929L6.7471 12.5986L7.45142 13.3057L8.15991 12.6ZM8.6499 12.11L9.35839 11.4043L8.65127 10.6944L7.94277 11.4029L8.6499 12.11ZM11.1999 14.67L11.9105 13.9664L11.9084 13.9643L11.1999 14.67ZM14.5999 13.95L15.3043 14.6599L15.307 14.6571L14.5999 13.95ZM15.3299 10.55L14.6172 11.2516L14.6263 11.2606L15.3299 10.55ZM13.4897 8.68435L13.9797 8.20434L12.5801 6.77565L12.0901 7.25566L13.4897 8.68435ZM12.5714 8.19571L15.1214 10.7557L16.5384 9.34427L13.9884 6.78427L12.5714 8.19571ZM15.1228 10.7571C15.5726 11.2069 15.6381 11.5472 15.5773 11.8695C15.4985 12.2864 15.166 12.8797 14.3628 13.6829L15.777 15.0971C16.6738 14.2003 17.3513 13.2536 17.5425 12.2405C17.7517 11.1328 17.3472 10.1531 16.537 9.34288L15.1228 10.7571ZM14.3649 13.6808C13.5577 14.4833 12.9614 14.8155 12.54 14.8948C12.2095 14.9569 11.8633 14.8885 11.4085 14.4445L10.0113 15.8755C10.8265 16.6715 11.8053 17.0681 12.9098 16.8603C13.9234 16.6696 14.8721 15.9967 15.7749 15.0992L14.3649 13.6808ZM11.4184 14.4543L8.8684 11.8943L7.45142 13.3057L10.0014 15.8657L11.4184 14.4543ZM8.86704 13.3071L9.35703 12.8171L7.94277 11.4029L7.45278 11.8929L8.86704 13.3071ZM7.94141 12.8157L10.4914 15.3757L11.9084 13.9643L9.35839 11.4043L7.94141 12.8157ZM10.4893 15.3736C10.8295 15.7171 11.2236 15.9826 11.6782 16.1214C12.1385 16.262 12.5992 16.2537 13.037 16.1409C13.8665 15.927 14.6238 15.3351 15.3043 14.6598L13.8955 13.2402C13.276 13.855 12.8333 14.128 12.5378 14.2042C12.4131 14.2363 12.3301 14.2293 12.2622 14.2086C12.1888 14.1862 12.0704 14.1279 11.9105 13.9664L10.4893 15.3736ZM15.307 14.6571C15.9876 13.9766 16.5831 13.2193 16.799 12.3891C16.9129 11.9509 16.9217 11.4896 16.7813 11.0288C16.6426 10.5738 16.377 10.1795 16.0335 9.83937L14.6263 11.2606C14.7878 11.4205 14.8459 11.5387 14.8682 11.6118C14.8887 11.6791 14.8956 11.7616 14.8633 11.8859C14.7867 12.1807 14.5122 12.6235 13.8928 13.2429L15.307 14.6571ZM16.0425 9.84843L13.5025 7.26844L12.0773 8.67156L14.6173 11.2515L16.0425 9.84843Z" fill="#DB7453" style="fill:#DB7453;fill:color(display-p3 0.8588 0.4549 0.3255);fill-opacity:1;" mask="url(#path-12-inside-6_206_188)"/>
<mask id="path-14-inside-7_206_188" fill="white">
<path d="M20.48 4.14002L22.7 9.03L22.08 9.29999L19.86 4.41001L17 5.70999L16.73 5.12L23.07 2.25L23.35 2.82999L20.48 4.14002Z"/>
</mask>
<path d="M20.48 4.14002L22.7 9.03L22.08 9.29999L19.86 4.41001L17 5.70999L16.73 5.12L23.07 2.25L23.35 2.82999L20.48 4.14002Z" fill="#231A22" style="fill:#231A22;fill:color(display-p3 0.1373 0.1020 0.1333);fill-opacity:1;"/>
<path d="M20.48 4.14002L20.0647 3.23031L19.1569 3.6447L19.5694 4.5534L20.48 4.14002ZM22.7 9.03L23.0992 9.94685L24.0304 9.54138L23.6105 8.61662L22.7 9.03ZM22.08 9.29999L21.1694 9.71337L21.5764 10.6099L22.4792 10.2168L22.08 9.29999ZM19.86 4.41001L20.7705 3.99662L20.3569 3.08565L19.4462 3.49964L19.86 4.41001ZM17 5.70999L16.0907 6.12611L16.5057 7.03311L17.4138 6.62036L17 5.70999ZM16.73 5.12L16.3176 4.20899L15.4029 4.62307L15.8207 5.53611L16.73 5.12ZM23.07 2.25L23.9705 1.81525L23.5464 0.936659L22.6576 1.339L23.07 2.25ZM23.35 2.82999L23.7652 3.7397L24.6948 3.31541L24.2505 2.39523L23.35 2.82999ZM19.5694 4.5534L21.7894 9.44338L23.6105 8.61662L21.3905 3.72663L19.5694 4.5534ZM22.3007 8.11315L21.6807 8.38314L22.4792 10.2168L23.0992 9.94685L22.3007 8.11315ZM22.9905 8.88661L20.7705 3.99662L18.9494 4.82339L21.1694 9.71337L22.9905 8.88661ZM19.4462 3.49964L16.5862 4.79963L17.4138 6.62036L20.2738 5.32037L19.4462 3.49964ZM17.9093 5.29388L17.6393 4.70388L15.8207 5.53611L16.0907 6.12611L17.9093 5.29388ZM17.1424 6.031L23.4824 3.16101L22.6576 1.339L16.3176 4.20899L17.1424 6.031ZM22.1694 2.68476L22.4494 3.26474L24.2505 2.39523L23.9705 1.81525L22.1694 2.68476ZM22.9347 1.92028L20.0647 3.23031L20.8952 5.04973L23.7652 3.7397L22.9347 1.92028Z" fill="#DB7453" style="fill:#DB7453;fill:color(display-p3 0.8588 0.4549 0.3255);fill-opacity:1;" mask="url(#path-14-inside-7_206_188)"/>
<mask id="path-16-inside-8_206_188" fill="white">
<path d="M30.88 0.890027C33.53 0.770027 34.9699 2.06002 35.0499 3.85002C35.1299 5.64002 33.81 7.05002 31.15 7.16002C28.5 7.28002 27.06 5.99002 26.98 4.20002C26.9 2.42002 28.23 1.01003 30.88 0.890027ZM31.13 6.52C33.35 6.42 34.42 5.32002 34.35 3.88002C34.28 2.45002 33.13 1.44002 30.91 1.54002C28.69 1.64002 27.62 2.74 27.68 4.18C27.75 5.61 28.9 6.61 31.13 6.52Z"/>
</mask>
<path d="M30.88 0.890027C33.53 0.770027 34.9699 2.06002 35.0499 3.85002C35.1299 5.64002 33.81 7.05002 31.15 7.16002C28.5 7.28002 27.06 5.99002 26.98 4.20002C26.9 2.42002 28.23 1.01003 30.88 0.890027ZM31.13 6.52C33.35 6.42 34.42 5.32002 34.35 3.88002C34.28 2.45002 33.13 1.44002 30.91 1.54002C28.69 1.64002 27.62 2.74 27.68 4.18C27.75 5.61 28.9 6.61 31.13 6.52Z" fill="#231A22" style="fill:#231A22;fill:color(display-p3 0.1373 0.1020 0.1333);fill-opacity:1;"/>
<path d="M31.15 7.16002L31.1086 6.16086L31.1047 6.16104L31.15 7.16002ZM26.98 4.20002L27.979 4.15538L27.979 4.15513L26.98 4.20002ZM31.13 6.52L31.1703 7.5192L31.175 7.51899L31.13 6.52ZM34.35 3.88002L35.3488 3.83146L35.3488 3.83112L34.35 3.88002ZM27.68 4.18L26.6808 4.22164L26.6811 4.2289L27.68 4.18ZM30.9252 1.889C32.0889 1.83631 32.8601 2.09877 33.3248 2.45086C33.7717 2.78937 34.0232 3.27427 34.0509 3.89467L36.0489 3.80537C35.9967 2.63576 35.4882 1.58067 34.5326 0.856681C33.5948 0.146284 32.321 -0.176254 30.8347 -0.108949L30.9252 1.889ZM34.0509 3.89467C34.0787 4.51475 33.8714 5.01831 33.4568 5.39328C33.0249 5.78376 32.2782 6.11251 31.1086 6.16087L31.1913 8.15916C32.6817 8.09753 33.925 7.66627 34.7981 6.87675C35.6884 6.07172 36.1012 4.97528 36.0489 3.80537L34.0509 3.89467ZM31.1047 6.16104C29.941 6.21373 29.1698 5.95128 28.7051 5.59918C28.2582 5.26068 28.0067 4.77577 27.979 4.15538L25.981 4.24467C26.0332 5.41428 26.5417 6.46937 27.4974 7.19336C28.4351 7.90376 29.7089 8.2263 31.1952 8.15899L31.1047 6.16104ZM27.979 4.15513C27.9515 3.54427 28.1581 3.04222 28.5762 2.6649C29.0114 2.27216 29.7607 1.94174 30.9252 1.889L30.8347 -0.108949C29.3492 -0.041682 28.1086 0.392891 27.2362 1.18015C26.3468 1.98283 25.9284 3.07578 25.981 4.24492L27.979 4.15513ZM31.175 7.51899C32.4293 7.46249 33.4964 7.11835 34.2558 6.45628C35.04 5.77266 35.3975 4.83347 35.3488 3.83146L33.3511 3.92857C33.3724 4.36657 33.2299 4.69737 32.9416 4.94873C32.6285 5.22166 32.0506 5.47752 31.085 5.52101L31.175 7.51899ZM35.3488 3.83112C35.3002 2.83962 34.8633 1.93981 34.0257 1.32852C33.2125 0.735016 32.1218 0.484421 30.865 0.541034L30.955 2.53901C31.9181 2.49562 32.5124 2.70002 32.8467 2.94402C33.1566 3.17023 33.3297 3.49042 33.3512 3.92891L35.3488 3.83112ZM30.865 0.541034C29.6102 0.597553 28.5439 0.941806 27.7837 1.60298C26.9995 2.28508 26.6392 3.22172 26.6808 4.22164L28.6791 4.13837C28.6607 3.69829 28.8055 3.36494 29.0962 3.11205C29.411 2.83823 29.9897 2.58249 30.955 2.53901L30.865 0.541034ZM26.6811 4.2289C26.7297 5.22168 27.1677 6.11953 28.0074 6.7292C28.821 7.31992 29.9122 7.56996 31.1703 7.51919L31.0896 5.52081C30.1177 5.56004 29.5189 5.35508 29.1825 5.11081C28.8722 4.88548 28.7002 4.56833 28.6788 4.13111L26.6811 4.2289Z" fill="#DB7453" style="fill:#DB7453;fill:color(display-p3 0.8588 0.4549 0.3255);fill-opacity:1;" mask="url(#path-16-inside-8_206_188)"/>
<mask id="path-18-inside-9_206_188" fill="white">
<path d="M53.45 16.16L52.82 15.69L52.94 13.92L49.04 10.99L47.39 11.61L46.76 11.14L53.4 8.60001L54.03 9.07001L53.45 16.16ZM50.22 10.54L49.7 10.71L53.01 13.18L53.04 12.63L53.33 9.29999L50.22 10.54Z"/>
</mask>
<path d="M53.45 16.16L52.82 15.69L52.94 13.92L49.04 10.99L47.39 11.61L46.76 11.14L53.4 8.60001L54.03 9.07001L53.45 16.16ZM50.22 10.54L49.7 10.71L53.01 13.18L53.04 12.63L53.33 9.29999L50.22 10.54Z" fill="#231A22" style="fill:#231A22;fill:color(display-p3 0.1373 0.1020 0.1333);fill-opacity:1;"/>
<path d="M53.45 16.16L52.8521 16.9615L54.2995 18.0413L54.4467 16.2415L53.45 16.16ZM52.82 15.69L51.8223 15.6224L51.7855 16.1658L52.222 16.4915L52.82 15.69ZM52.94 13.92L53.9377 13.9877L53.9744 13.4464L53.5407 13.1205L52.94 13.92ZM49.04 10.99L49.6407 10.1905L49.2019 9.86088L48.6883 10.0539L49.04 10.99ZM47.39 11.61L46.7921 12.4115L47.2302 12.7383L47.7418 12.5461L47.39 11.61ZM46.76 11.14L46.4027 10.206L44.7057 10.8552L46.1621 11.9416L46.76 11.14ZM53.4 8.60001L53.998 7.79848L53.5568 7.46936L53.0427 7.66601L53.4 8.60001ZM54.03 9.07001L55.0267 9.15154L55.0718 8.59962L54.628 8.26848L54.03 9.07001ZM50.22 10.54L50.5307 11.4905L50.5609 11.4807L50.5904 11.4689L50.22 10.54ZM49.7 10.71L49.3893 9.75949L47.5569 10.3585L49.102 11.5114L49.7 10.71ZM53.01 13.18L52.4119 13.9814L53.9069 15.097L54.0085 13.2345L53.01 13.18ZM53.04 12.63L52.0438 12.5433L52.0424 12.5594L52.0415 12.5755L53.04 12.63ZM53.33 9.29999L54.3262 9.38674L54.467 7.77008L52.9596 8.3711L53.33 9.29999ZM54.048 15.3585L53.418 14.8885L52.222 16.4915L52.8521 16.9615L54.048 15.3585ZM53.8177 15.7576L53.9377 13.9877L51.9423 13.8524L51.8223 15.6224L53.8177 15.7576ZM53.5407 13.1205L49.6407 10.1905L48.4393 11.7895L52.3393 14.7195L53.5407 13.1205ZM48.6883 10.0539L47.0383 10.6739L47.7418 12.5461L49.3918 11.9261L48.6883 10.0539ZM47.988 10.8084L47.3579 10.3385L46.1621 11.9416L46.7921 12.4115L47.988 10.8084ZM47.1173 12.074L53.7573 9.534L53.0427 7.66601L46.4027 10.206L47.1173 12.074ZM52.802 9.40153L53.432 9.87153L54.628 8.26848L53.998 7.79848L52.802 9.40153ZM53.0333 8.98848L52.4533 16.0785L54.4467 16.2415L55.0267 9.15154L53.0333 8.98848ZM49.9093 9.58951L49.3893 9.75949L50.0107 11.6605L50.5307 11.4905L49.9093 9.58951ZM49.102 11.5114L52.4119 13.9814L53.6081 12.3785L50.2981 9.90854L49.102 11.5114ZM54.0085 13.2345L54.0385 12.6845L52.0415 12.5755L52.0115 13.1255L54.0085 13.2345ZM54.0362 12.7168L54.3262 9.38674L52.3338 9.21324L52.0438 12.5433L54.0362 12.7168ZM52.9596 8.3711L49.8496 9.61113L50.5904 11.4689L53.7004 10.2289L52.9596 8.3711Z" fill="#DB7453" style="fill:#DB7453;fill:color(display-p3 0.8588 0.4549 0.3255);fill-opacity:1;" mask="url(#path-18-inside-9_206_188)"/>
<mask id="path-20-inside-10_206_188" fill="white">
<path d="M59.6799 13.95L62.5499 17.76C63.3299 18.79 63.5499 19.91 62.3999 20.78C61.2499 21.65 60.2299 21.08 59.4699 20.06L59.1299 19.61L59.2899 23.43L58.6399 22.55L58.5299 18.83L57.0099 16.81L55.2899 18.1L54.8799 17.55L59.6799 13.95ZM59.9699 19.69C60.5199 20.42 61.2099 20.79 61.9799 20.21C62.7499 19.63 62.5899 18.88 62.0499 18.16L59.5799 14.89L57.5199 16.44L59.9699 19.69Z"/>
</mask>
<path d="M59.6799 13.95L62.5499 17.76C63.3299 18.79 63.5499 19.91 62.3999 20.78C61.2499 21.65 60.2299 21.08 59.4699 20.06L59.1299 19.61L59.2899 23.43L58.6399 22.55L58.5299 18.83L57.0099 16.81L55.2899 18.1L54.8799 17.55L59.6799 13.95ZM59.9699 19.69C60.5199 20.42 61.2099 20.79 61.9799 20.21C62.7499 19.63 62.5899 18.88 62.0499 18.16L59.5799 14.89L57.5199 16.44L59.9699 19.69Z" fill="#231A22" style="fill:#231A22;fill:color(display-p3 0.1373 0.1020 0.1333);fill-opacity:1;"/>
<path d="M59.6799 13.95L60.4786 13.3483L59.8782 12.5513L59.0799 13.15L59.6799 13.95ZM62.5499 17.76L61.7511 18.3617L61.7527 18.3637L62.5499 17.76ZM59.4699 20.06L60.2718 19.4625L60.2678 19.4572L59.4699 20.06ZM59.1299 19.61L59.9278 19.0072L57.9967 16.4513L58.1308 19.6518L59.1299 19.61ZM59.2899 23.43L58.4855 24.0241L60.4257 26.6508L60.289 23.3881L59.2899 23.43ZM58.6399 22.55L57.6403 22.5796L57.6496 22.8924L57.8355 23.1441L58.6399 22.55ZM58.5299 18.83L59.5294 18.8004L59.52 18.4827L59.3289 18.2287L58.5299 18.83ZM57.0099 16.81L57.8089 16.2087L57.2086 15.4109L56.4099 16.01L57.0099 16.81ZM55.2899 18.1L54.4881 18.6977L55.0875 19.5018L55.8899 18.9L55.2899 18.1ZM54.8799 17.55L54.2799 16.75L53.4822 17.3482L54.0781 18.1476L54.8799 17.55ZM59.9699 19.69L60.7686 19.0883L60.7684 19.088L59.9699 19.69ZM62.0499 18.16L62.8499 17.56L62.8478 17.5573L62.0499 18.16ZM59.5799 14.89L60.3778 14.2873L59.7762 13.4908L58.9786 14.0909L59.5799 14.89ZM57.5199 16.44L56.9186 15.6409L56.1188 16.2427L56.7213 17.042L57.5199 16.44ZM58.8811 14.5517L61.7511 18.3617L63.3486 17.1583L60.4786 13.3483L58.8811 14.5517ZM61.7527 18.3637C62.0807 18.7969 62.1951 19.1298 62.1988 19.3469C62.2013 19.4963 62.1587 19.7085 61.7965 19.9825L63.0032 21.5775C63.7911 20.9815 64.2135 20.1988 64.1985 19.3131C64.1846 18.4953 63.799 17.7531 63.3471 17.1563L61.7527 18.3637ZM61.7965 19.9825C61.4479 20.2463 61.2422 20.2249 61.0991 20.1782C60.8849 20.1082 60.5938 19.8947 60.2718 19.4625L58.668 20.6575C59.106 21.2453 59.7048 21.8268 60.4782 22.0793C61.3225 22.3551 62.2019 22.1837 63.0032 21.5775L61.7965 19.9825ZM60.2678 19.4572L59.9278 19.0072L58.332 20.2128L58.672 20.6628L60.2678 19.4572ZM58.1308 19.6518L58.2908 23.4718L60.289 23.3881L60.129 19.5681L58.1308 19.6518ZM60.0943 22.8359L59.4443 21.9559L57.8355 23.1441L58.4855 24.0241L60.0943 22.8359ZM59.6395 22.5204L59.5294 18.8004L57.5303 18.8595L57.6403 22.5796L59.6395 22.5204ZM59.3289 18.2287L57.8089 16.2087L56.2108 17.4113L57.7308 19.4313L59.3289 18.2287ZM56.4099 16.01L54.6899 17.3L55.8899 18.9L57.6099 17.61L56.4099 16.01ZM56.0916 17.5024L55.6816 16.9523L54.0781 18.1476L54.4881 18.6977L56.0916 17.5024ZM55.4799 18.35L60.2799 14.75L59.0799 13.15L54.2799 16.75L55.4799 18.35ZM59.1712 20.2918C59.5008 20.7292 59.9632 21.1879 60.5793 21.391C61.2688 21.6183 61.9711 21.4686 62.5815 21.0087L61.3782 19.4112C61.2843 19.482 61.2341 19.4932 61.2266 19.4946C61.2235 19.4952 61.2217 19.4969 61.2054 19.4915C61.1465 19.4721 60.989 19.3808 60.7686 19.0883L59.1712 20.2918ZM62.5815 21.0087C63.1855 20.5538 63.5289 19.9286 63.5056 19.2054C63.4848 18.5588 63.1737 17.9918 62.8499 17.56L61.2499 18.76C61.466 19.0482 61.5049 19.2162 61.5066 19.2696C61.5071 19.2825 61.5059 19.2819 61.5044 19.2848C61.5006 19.2922 61.4746 19.3386 61.3782 19.4112L62.5815 21.0087ZM62.8478 17.5573L60.3778 14.2873L58.7819 15.4927L61.2519 18.7627L62.8478 17.5573ZM58.9786 14.0909L56.9186 15.6409L58.1211 17.2391L60.1811 15.6891L58.9786 14.0909ZM56.7213 17.042L59.1714 20.292L60.7684 19.088L58.3184 15.838L56.7213 17.042Z" fill="#DB7453" style="fill:#DB7453;fill:color(display-p3 0.8588 0.4549 0.3255);fill-opacity:1;" mask="url(#path-20-inside-10_206_188)"/>
<mask id="path-22-inside-11_206_188" fill="white">
<path d="M66.2599 26.99L61.1199 28.57L60.9199 27.91L66.0499 26.33L65.1299 23.34L65.7499 23.15L67.7899 29.8L67.1699 29.99L66.2599 26.99Z"/>
</mask>
<path d="M66.2599 26.99L61.1199 28.57L60.9199 27.91L66.0499 26.33L65.1299 23.34L65.7499 23.15L67.7899 29.8L67.1699 29.99L66.2599 26.99Z" fill="#231A22" style="fill:#231A22;fill:color(display-p3 0.1373 0.1020 0.1333);fill-opacity:1;"/>
<path d="M66.2599 26.99L67.2169 26.6997L66.9255 25.7392L65.9661 26.0341L66.2599 26.99ZM61.1199 28.57L60.1629 28.86L60.454 29.8209L61.4137 29.5259L61.1199 28.57ZM60.9199 27.91L60.6256 26.9543L59.6742 27.2473L59.9629 28.2L60.9199 27.91ZM66.0499 26.33L66.3442 27.2857L67.2997 26.9914L67.0057 26.0359L66.0499 26.33ZM65.1299 23.34L64.8369 22.3839L63.8797 22.6772L64.1741 23.6341L65.1299 23.34ZM65.7499 23.15L66.7059 22.8567L66.4127 21.901L65.4569 22.1939L65.7499 23.15ZM67.7899 29.8L68.0829 30.7561L69.0393 30.463L68.7459 29.5067L67.7899 29.8ZM67.1699 29.99L66.213 30.2803L66.5041 31.2399L67.4629 30.9461L67.1699 29.99ZM65.9661 26.0341L60.8261 27.6142L61.4137 29.5259L66.5537 27.9459L65.9661 26.0341ZM62.0769 28.28L61.877 27.62L59.9629 28.2L60.1629 28.86L62.0769 28.28ZM61.2143 28.8657L66.3442 27.2857L65.7555 25.3743L60.6256 26.9543L61.2143 28.8657ZM67.0057 26.0359L66.0857 23.0459L64.1741 23.6341L65.0941 26.6241L67.0057 26.0359ZM65.4229 24.2961L66.0429 24.1061L65.4569 22.1939L64.8369 22.3839L65.4229 24.2961ZM64.7939 23.4433L66.8339 30.0933L68.7459 29.5067L66.7059 22.8567L64.7939 23.4433ZM67.4969 28.8439L66.8769 29.0339L67.4629 30.9461L68.0829 30.7561L67.4969 28.8439ZM68.1269 29.6997L67.2169 26.6997L65.303 27.2803L66.213 30.2803L68.1269 29.6997Z" fill="#DB7453" style="fill:#DB7453;fill:color(display-p3 0.8588 0.4549 0.3255);fill-opacity:1;" mask="url(#path-22-inside-11_206_188)"/>
<mask id="path-24-inside-12_206_188" fill="white">
<path d="M62.2301 33.61L68.2301 33.95L67.8601 40.46L67.2201 40.42L67.5501 34.6L65.6001 34.49L65.3001 39.8L64.6601 39.76L64.9601 34.45L62.8301 34.33L62.4901 40.33L61.8501 40.29L62.2301 33.61Z"/>
</mask>
<path d="M62.2301 33.61L68.2301 33.95L67.8601 40.46L67.2201 40.42L67.5501 34.6L65.6001 34.49L65.3001 39.8L64.6601 39.76L64.9601 34.45L62.8301 34.33L62.4901 40.33L61.8501 40.29L62.2301 33.61Z" fill="#231A22" style="fill:#231A22;fill:color(display-p3 0.1373 0.1020 0.1333);fill-opacity:1;"/>
<path d="M62.2301 33.61L62.2867 32.6116L61.2885 32.555L61.2317 33.5532L62.2301 33.61ZM68.2301 33.95L69.2285 34.0068L69.2852 33.0082L68.2867 32.9516L68.2301 33.95ZM67.8601 40.46L67.7977 41.458L68.8014 41.5207L68.8585 40.5167L67.8601 40.46ZM67.2201 40.42L66.2217 40.3634L66.1654 41.3561L67.1577 41.4181L67.2201 40.42ZM67.5501 34.6L68.5485 34.6566L68.6051 33.6579L67.6064 33.6016L67.5501 34.6ZM65.6001 34.49L65.6564 33.4916L64.6581 33.4353L64.6017 34.4336L65.6001 34.49ZM65.3001 39.8L65.2377 40.798L66.2417 40.8608L66.2985 39.8564L65.3001 39.8ZM64.6601 39.76L63.6617 39.7036L63.6056 40.6961L64.5977 40.7581L64.6601 39.76ZM64.9601 34.45L65.9585 34.5064L66.0149 33.5079L65.0163 33.4516L64.9601 34.45ZM62.8301 34.33L62.8863 33.3316L61.8882 33.2753L61.8317 34.2734L62.8301 34.33ZM62.4901 40.33L62.4277 41.328L63.4316 41.3908L63.4885 40.3866L62.4901 40.33ZM61.8501 40.29L60.8517 40.2332L60.7952 41.2261L61.7878 41.2881L61.8501 40.29ZM62.1735 34.6084L68.1735 34.9484L68.2867 32.9516L62.2867 32.6116L62.1735 34.6084ZM67.2317 33.8933L66.8617 40.4032L68.8585 40.5167L69.2285 34.0068L67.2317 33.8933ZM67.9224 39.4619L67.2824 39.422L67.1577 41.4181L67.7977 41.458L67.9224 39.4619ZM68.2185 40.4766L68.5485 34.6566L66.5517 34.5434L66.2217 40.3634L68.2185 40.4766ZM67.6064 33.6016L65.6564 33.4916L65.5438 35.4884L67.4938 35.5984L67.6064 33.6016ZM64.6017 34.4336L64.3017 39.7436L66.2985 39.8564L66.5985 34.5464L64.6017 34.4336ZM65.3624 38.8019L64.7224 38.762L64.5977 40.7581L65.2377 40.798L65.3624 38.8019ZM65.6585 39.8164L65.9585 34.5064L63.9617 34.3936L63.6617 39.7036L65.6585 39.8164ZM65.0163 33.4516L62.8863 33.3316L62.7738 35.3284L64.9038 35.4484L65.0163 33.4516ZM61.8317 34.2734L61.4917 40.2734L63.4885 40.3866L63.8285 34.3866L61.8317 34.2734ZM62.5524 39.3319L61.9124 39.292L61.7878 41.2881L62.4277 41.328L62.5524 39.3319ZM62.8485 40.3468L63.2285 33.6668L61.2317 33.5532L60.8517 40.2332L62.8485 40.3468Z" fill="#DB7453" style="fill:#DB7453;fill:color(display-p3 0.8588 0.4549 0.3255);fill-opacity:1;" mask="url(#path-24-inside-12_206_188)"/>
<mask id="path-26-inside-13_206_188" fill="white">
<path d="M61.8301 42.57L62.3301 42.97C61.5601 43.88 60.9401 44.92 60.5001 46.03C60.1501 46.93 59.7001 48.62 60.6201 48.98C61.3801 49.27 61.8301 48.23 62.4801 46.81C63.1801 45.24 63.9401 43.6 65.3401 44.14C66.7401 44.69 66.3301 46.55 65.8401 47.8C65.4401 48.81 64.9201 49.78 64.3101 50.68L63.7601 50.32C64.3701 49.43 64.8801 48.47 65.2801 47.47C65.5401 46.8 66.0601 45.17 65.1201 44.8C64.2601 44.46 63.6701 45.76 63.0801 47.09C62.3901 48.65 61.6901 50.15 60.3901 49.65C58.9901 49.1 59.3801 47.13 59.9401 45.68C60.3901 44.55 61.0201 43.49 61.8301 42.57Z"/>
</mask>
<path d="M61.8301 42.57L62.3301 42.97C61.5601 43.88 60.9401 44.92 60.5001 46.03C60.1501 46.93 59.7001 48.62 60.6201 48.98C61.3801 49.27 61.8301 48.23 62.4801 46.81C63.1801 45.24 63.9401 43.6 65.3401 44.14C66.7401 44.69 66.3301 46.55 65.8401 47.8C65.4401 48.81 64.9201 49.78 64.3101 50.68L63.7601 50.32C64.3701 49.43 64.8801 48.47 65.2801 47.47C65.5401 46.8 66.0601 45.17 65.1201 44.8C64.2601 44.46 63.6701 45.76 63.0801 47.09C62.3901 48.65 61.6901 50.15 60.3901 49.65C58.9901 49.1 59.3801 47.13 59.9401 45.68C60.3901 44.55 61.0201 43.49 61.8301 42.57Z" fill="#231A22" style="fill:#231A22;fill:color(display-p3 0.1373 0.1020 0.1333);fill-opacity:1;"/>
<path d="M61.8301 42.57L62.4548 41.7891L61.7099 41.1932L61.0795 41.9092L61.8301 42.57ZM62.3301 42.97L63.0935 43.6159L63.7574 42.8313L62.9548 42.1891L62.3301 42.97ZM60.5001 46.03L59.5704 45.6615L59.5681 45.6676L60.5001 46.03ZM60.6201 48.98L60.2557 49.9113L60.2636 49.9143L60.6201 48.98ZM62.4801 46.81L63.3894 47.2262L63.3934 47.2172L62.4801 46.81ZM65.3401 44.14L65.7058 43.2092L65.7 43.207L65.3401 44.14ZM65.8401 47.8L66.7698 48.1682L66.7711 48.165L65.8401 47.8ZM64.3101 50.68L63.7624 51.5167L64.5858 52.0556L65.1379 51.241L64.3101 50.68ZM63.7601 50.32L62.9353 49.7547L62.3577 50.5973L63.2125 51.1567L63.7601 50.32ZM65.2801 47.47L66.2086 47.8414L66.2124 47.8318L65.2801 47.47ZM65.1201 44.8L64.7524 45.73L64.7538 45.7305L65.1201 44.8ZM63.0801 47.09L62.166 46.6845L62.1655 46.6855L63.0801 47.09ZM60.3901 49.65L60.0244 50.5808L60.0311 50.5833L60.3901 49.65ZM59.9401 45.68L59.011 45.31L59.0073 45.3197L59.9401 45.68ZM61.2054 43.3509L61.7054 43.7509L62.9548 42.1891L62.4548 41.7891L61.2054 43.3509ZM61.5667 42.3241C60.7255 43.3181 60.0499 44.4521 59.5705 45.6615L61.4297 46.3985C61.8303 45.3879 62.3946 44.4419 63.0935 43.6159L61.5667 42.3241ZM59.5681 45.6676C59.3778 46.1569 59.1379 46.9118 59.0864 47.6366C59.0607 47.9971 59.0752 48.4287 59.225 48.8377C59.3866 49.2788 59.7121 49.6985 60.2557 49.9113L60.9845 48.0488C61.0681 48.0815 61.1049 48.155 61.103 48.1499C61.0893 48.1125 61.0657 47.9979 61.0813 47.7785C61.1123 47.3432 61.2724 46.8031 61.4321 46.3924L59.5681 45.6676ZM60.2636 49.9143C60.7035 50.0822 61.1649 50.0667 61.584 49.859C61.9545 49.6754 62.2176 49.3781 62.403 49.1204C62.7636 48.6193 63.0859 47.8893 63.3894 47.2262L61.5708 46.3938C61.2243 47.1507 60.9966 47.6507 60.7797 47.9521C60.6764 48.0957 60.6438 48.0928 60.6959 48.067C60.7965 48.0171 60.9167 48.0229 60.9766 48.0457L60.2636 49.9143ZM63.3934 47.2172C63.7592 46.397 64.0691 45.7367 64.4133 45.3269C64.5747 45.1348 64.6877 45.0686 64.7453 45.0475C64.776 45.0362 64.835 45.017 64.9802 45.073L65.7 43.207C65.1452 42.993 64.5842 42.9763 64.0567 43.1698C63.5562 43.3533 63.173 43.694 62.8819 44.0406C62.3211 44.7083 61.9011 45.653 61.5668 46.4028L63.3934 47.2172ZM64.9744 45.0708C65.1126 45.125 65.1678 45.1894 65.2037 45.254C65.2504 45.338 65.2951 45.4852 65.299 45.7238C65.307 46.2189 65.1377 46.8518 64.9091 47.435L66.7711 48.165C67.0325 47.4982 67.3131 46.5761 67.2987 45.6912C67.2913 45.2398 67.2066 44.7407 66.9518 44.2823C66.6862 43.8044 66.2676 43.43 65.7057 43.2093L64.9744 45.0708ZM64.9104 47.4318C64.5386 48.3704 64.0536 49.276 63.4823 50.1189L65.1379 51.241C65.7866 50.284 66.3416 49.2496 66.7698 48.1682L64.9104 47.4318ZM64.8577 49.8433L64.3078 49.4833L63.2125 51.1567L63.7624 51.5167L64.8577 49.8433ZM64.585 50.8854C65.2374 49.9335 65.7818 48.9082 66.2086 47.8414L64.3516 47.0986C63.9784 48.0318 63.5028 48.9266 62.9353 49.7547L64.585 50.8854ZM66.2124 47.8318C66.3513 47.4738 66.5893 46.7903 66.6466 46.1059C66.6752 45.7646 66.6668 45.3409 66.5165 44.9332C66.353 44.4896 66.0232 44.0808 65.4864 43.8695L64.7538 45.7305C64.7354 45.7233 64.7033 45.7048 64.6736 45.6727C64.6461 45.643 64.6384 45.6209 64.6399 45.6249C64.6484 45.6479 64.67 45.7429 64.6536 45.9391C64.6209 46.3297 64.4689 46.7962 64.3478 47.1082L66.2124 47.8318ZM65.4878 43.87C64.9945 43.675 64.4969 43.7168 64.0662 43.937C63.6813 44.1338 63.3977 44.4472 63.1921 44.7278C62.7863 45.2818 62.4471 46.0508 62.166 46.6845L63.9942 47.4955C64.303 46.7992 64.5539 46.2532 64.8055 45.9097C64.9287 45.7415 64.9907 45.7105 64.9768 45.7177C64.9171 45.7482 64.8157 45.7549 64.7524 45.73L65.4878 43.87ZM62.1655 46.6855C61.8049 47.5008 61.5121 48.1233 61.1962 48.5016C61.0494 48.6774 60.9545 48.7279 60.9187 48.741C60.9096 48.7443 60.8725 48.7641 60.7491 48.7167L60.0311 50.5833C60.5577 50.7859 61.0956 50.8057 61.6049 50.6196C62.0876 50.4433 62.4545 50.1151 62.7315 49.7834C63.2631 49.1467 63.6652 48.2392 63.9946 47.4945L62.1655 46.6855ZM60.7558 48.7192C60.5909 48.6545 60.4354 48.526 60.4301 47.9924C60.4244 47.4373 60.6098 46.7216 60.8729 46.0403L59.0073 45.3197C58.7104 46.0884 58.4208 47.0827 58.4302 48.0126C58.4398 48.964 58.7893 50.0955 60.0245 50.5807L60.7558 48.7192ZM60.8691 46.05C61.2802 45.0176 61.8524 44.058 62.5806 43.2308L61.0795 41.9092C60.1878 42.922 59.5 44.0824 59.0111 45.31L60.8691 46.05Z" fill="#DB7453" style="fill:#DB7453;fill:color(display-p3 0.8588 0.4549 0.3255);fill-opacity:1;" mask="url(#path-26-inside-13_206_188)"/>
<mask id="path-28-inside-14_206_188" fill="white">
<path d="M52.71 56.89L53.25 56.31L55 56.58L58.23 52.93L57.75 51.23L58.27 50.64L60.27 57.46L59.75 58.05L52.71 56.89ZM58.58 54.15L58.45 53.62L55.71 56.72L56.24 56.79L59.53 57.34L58.58 54.15Z"/>
</mask>
<path d="M52.71 56.89L53.25 56.31L55 56.58L58.23 52.93L57.75 51.23L58.27 50.64L60.27 57.46L59.75 58.05L52.71 56.89ZM58.58 54.15L58.45 53.62L55.71 56.72L56.24 56.79L59.53 57.34L58.58 54.15Z" fill="#231A22" style="fill:#231A22;fill:color(display-p3 0.1373 0.1020 0.1333);fill-opacity:1;"/>
<path d="M52.71 56.89L51.9781 56.2086L50.7073 57.5735L52.5474 57.8767L52.71 56.89ZM53.25 56.31L53.4025 55.3217L52.879 55.2409L52.5181 55.6286L53.25 56.31ZM55 56.58L54.8475 57.5683L55.387 57.6516L55.7488 57.2427L55 56.58ZM58.23 52.93L58.9789 53.5927L59.3407 53.1838L59.1924 52.6583L58.23 52.93ZM57.75 51.23L56.9998 50.5688L56.6396 50.9775L56.7876 51.5018L57.75 51.23ZM58.27 50.64L59.2295 50.3586L58.7191 48.618L57.5197 49.9788L58.27 50.64ZM60.27 57.46L61.0202 58.1212L61.3847 57.7076L61.2295 57.1786L60.27 57.46ZM59.75 58.05L59.5874 59.0367L60.1339 59.1267L60.5002 58.7112L59.75 58.05ZM58.58 54.15L57.6087 54.3882L57.6146 54.412L57.6216 54.4354L58.58 54.15ZM58.45 53.62L59.4212 53.3818L58.9661 51.5261L57.7007 52.9577L58.45 53.62ZM55.71 56.72L54.9607 56.0577L53.7165 57.4653L55.579 57.7114L55.71 56.72ZM56.24 56.79L56.4049 55.8037L56.3879 55.8008L56.3709 55.7986L56.24 56.79ZM59.53 57.34L59.3651 58.3263L60.9458 58.5906L60.4884 57.0546L59.53 57.34ZM53.4419 57.5714L53.9819 56.9914L52.5181 55.6286L51.9781 56.2086L53.4419 57.5714ZM53.0975 57.2983L54.8475 57.5683L55.1525 55.5917L53.4025 55.3217L53.0975 57.2983ZM55.7488 57.2427L58.9789 53.5927L57.4811 52.2673L54.2511 55.9173L55.7488 57.2427ZM59.1924 52.6583L58.7123 50.9583L56.7876 51.5018L57.2676 53.2017L59.1924 52.6583ZM58.5002 51.8912L59.0202 51.3012L57.5197 49.9788L56.9998 50.5688L58.5002 51.8912ZM57.3104 50.9214L59.3104 57.7414L61.2295 57.1786L59.2295 50.3586L57.3104 50.9214ZM59.5198 56.7988L58.9998 57.3888L60.5002 58.7112L61.0202 58.1212L59.5198 56.7988ZM59.9125 57.0633L52.8725 55.9033L52.5474 57.8767L59.5874 59.0367L59.9125 57.0633ZM59.5512 53.9118L59.4212 53.3818L57.4788 53.8582L57.6087 54.3882L59.5512 53.9118ZM57.7007 52.9577L54.9607 56.0577L56.4592 57.3822L59.1992 54.2823L57.7007 52.9577ZM55.579 57.7114L56.109 57.7814L56.3709 55.7986L55.8409 55.7286L55.579 57.7114ZM56.0751 57.7763L59.3651 58.3263L59.6949 56.3537L56.4049 55.8037L56.0751 57.7763ZM60.4884 57.0546L59.5384 53.8646L57.6216 54.4354L58.5716 57.6254L60.4884 57.0546Z" fill="#DB7453" style="fill:#DB7453;fill:color(display-p3 0.8588 0.4549 0.3255);fill-opacity:1;" mask="url(#path-28-inside-14_206_188)"/>
<mask id="path-30-inside-15_206_188" fill="white">
<path d="M48.3401 66.24L47.7401 66.58L44.8401 61.31L45.4401 60.97L53.0201 62.68L52.6201 61.99L50.5201 58.18L51.1201 57.85L54.0201 63.12L53.4301 63.45L45.8501 61.74L46.2601 62.48L48.3401 66.24Z"/>
</mask>
<path d="M48.3401 66.24L47.7401 66.58L44.8401 61.31L45.4401 60.97L53.0201 62.68L52.6201 61.99L50.5201 58.18L51.1201 57.85L54.0201 63.12L53.4301 63.45L45.8501 61.74L46.2601 62.48L48.3401 66.24Z" fill="#231A22" style="fill:#231A22;fill:color(display-p3 0.1373 0.1020 0.1333);fill-opacity:1;"/>
<path d="M48.3401 66.24L48.8331 67.11L49.6942 66.622L49.2151 65.7559L48.3401 66.24ZM47.7401 66.58L46.864 67.0621L47.3522 67.9493L48.2331 67.45L47.7401 66.58ZM44.8401 61.31L44.347 60.44L43.4879 60.9269L43.964 61.7921L44.8401 61.31ZM45.4401 60.97L45.6602 59.9945L45.2832 59.9095L44.9471 60.1L45.4401 60.97ZM53.0201 62.68L52.8 63.6555L55.0335 64.1594L53.8852 62.1785L53.0201 62.68ZM52.6201 61.99L51.7443 62.4727L51.7495 62.4822L51.7549 62.4915L52.6201 61.99ZM50.5201 58.18L50.0381 57.3038L49.1612 57.7862L49.6443 58.6627L50.5201 58.18ZM51.1201 57.85L51.9962 57.3679L51.5142 56.4919L50.6382 56.9738L51.1201 57.85ZM54.0201 63.12L54.5083 63.9927L55.375 63.5079L54.8962 62.6379L54.0201 63.12ZM53.4301 63.45L53.21 64.4255L53.5838 64.5098L53.9183 64.3228L53.4301 63.45ZM45.8501 61.74L46.0702 60.7645L43.8944 60.2737L44.9754 62.2246L45.8501 61.74ZM46.2601 62.48L47.1351 61.9959L47.1348 61.9953L46.2601 62.48ZM47.847 65.37L47.247 65.71L48.2331 67.45L48.8331 67.11L47.847 65.37ZM48.6162 66.0979L45.7162 60.8279L43.964 61.7921L46.864 67.0621L48.6162 66.0979ZM45.3331 62.18L45.9331 61.84L44.9471 60.1L44.347 60.44L45.3331 62.18ZM45.22 61.9455L52.8 63.6555L53.2401 61.7045L45.6602 59.9945L45.22 61.9455ZM53.8852 62.1785L53.4852 61.4885L51.7549 62.4915L52.1549 63.1815L53.8852 62.1785ZM53.4959 61.5073L51.3959 57.6973L49.6443 58.6627L51.7443 62.4727L53.4959 61.5073ZM51.002 59.0562L51.602 58.7262L50.6382 56.9738L50.0381 57.3038L51.002 59.0562ZM50.244 58.3321L53.144 63.6021L54.8962 62.6379L51.9962 57.3679L50.244 58.3321ZM53.5319 62.2473L52.9419 62.5773L53.9183 64.3228L54.5083 63.9927L53.5319 62.2473ZM53.6502 62.4745L46.0702 60.7645L45.63 62.7155L53.21 64.4255L53.6502 62.4745ZM44.9754 62.2246L45.3854 62.9646L47.1348 61.9953L46.7248 61.2553L44.9754 62.2246ZM45.3851 62.964L47.4651 66.7241L49.2151 65.7559L47.1351 61.9959L45.3851 62.964Z" fill="#DB7453" style="fill:#DB7453;fill:color(display-p3 0.8588 0.4549 0.3255);fill-opacity:1;" mask="url(#path-30-inside-15_206_188)"/>
<mask id="path-32-inside-16_206_188" fill="white">
<path d="M34.8599 63.68L35.6399 63.53L36.8699 64.8L41.6499 63.86L42.2999 62.21L43.0999 62.07L40.5399 68.7L39.7599 68.85L34.8599 63.68ZM41.1899 65.05L41.4099 64.55L37.3599 65.37L37.7399 65.75L40.0099 68.19L41.1899 65.05Z"/>
</mask>
<path d="M34.8599 63.68L35.6399 63.53L36.8699 64.8L41.6499 63.86L42.2999 62.21L43.0999 62.07L40.5399 68.7L39.7599 68.85L34.8599 63.68ZM41.1899 65.05L41.4099 64.55L37.3599 65.37L37.7399 65.75L40.0099 68.19L41.1899 65.05Z" fill="#231A22" style="fill:#231A22;fill:color(display-p3 0.1373 0.1020 0.1333);fill-opacity:1;"/>
<path d="M34.8599 63.68L34.6711 62.698L32.8781 63.0427L34.1341 64.3679L34.8599 63.68ZM35.6399 63.53L36.3582 62.8343L35.9821 62.4459L35.4511 62.548L35.6399 63.53ZM36.8699 64.8L36.1516 65.4957L36.5296 65.8861L37.0628 65.7812L36.8699 64.8ZM41.6499 63.86L41.8428 64.8412L42.3797 64.7356L42.5803 64.2265L41.6499 63.86ZM42.2999 62.21L42.1275 61.225L41.575 61.3217L41.3695 61.8435L42.2999 62.21ZM43.0999 62.07L44.0328 62.4302L44.6699 60.78L42.9275 61.085L43.0999 62.07ZM40.5399 68.7L40.7287 69.682L41.2731 69.5774L41.4728 69.0602L40.5399 68.7ZM39.7599 68.85L39.0341 69.5379L39.4108 69.9354L39.9487 69.832L39.7599 68.85ZM41.1899 65.05L40.2746 64.6472L40.2635 64.6724L40.2538 64.6982L41.1899 65.05ZM41.4099 64.55L42.3252 64.9527L43.1021 63.1871L41.2114 63.5699L41.4099 64.55ZM37.3599 65.37L37.1614 64.3899L35.3353 64.7596L36.6528 66.0771L37.3599 65.37ZM37.7399 65.75L38.472 65.0689L38.4597 65.0556L38.447 65.0429L37.7399 65.75ZM40.0099 68.19L39.2777 68.8711L40.3778 70.0536L40.946 68.5418L40.0099 68.19ZM35.0487 64.662L35.8287 64.512L35.4511 62.548L34.6711 62.698L35.0487 64.662ZM34.9216 64.2257L36.1516 65.4957L37.5882 64.1043L36.3582 62.8343L34.9216 64.2257ZM37.0628 65.7812L41.8428 64.8412L41.4569 62.8788L36.6769 63.8188L37.0628 65.7812ZM42.5803 64.2265L43.2303 62.5766L41.3695 61.8435L40.7195 63.4935L42.5803 64.2265ZM42.4723 63.1951L43.2723 63.055L42.9275 61.085L42.1275 61.225L42.4723 63.1951ZM42.167 61.7098L39.607 68.3398L41.4728 69.0602L44.0328 62.4302L42.167 61.7098ZM40.3511 67.718L39.5711 67.868L39.9487 69.832L40.7287 69.682L40.3511 67.718ZM40.4857 68.1621L35.5857 62.9921L34.1341 64.3679L39.0341 69.5379L40.4857 68.1621ZM42.1052 65.4527L42.3252 64.9527L40.4946 64.1472L40.2746 64.6472L42.1052 65.4527ZM41.2114 63.5699L37.1614 64.3899L37.5583 66.3501L41.6083 65.5301L41.2114 63.5699ZM36.6528 66.0771L37.0328 66.4571L38.447 65.0429L38.067 64.6629L36.6528 66.0771ZM37.0077 66.4311L39.2777 68.8711L40.742 67.5089L38.472 65.0689L37.0077 66.4311ZM40.946 68.5418L42.126 65.4018L40.2538 64.6982L39.0738 67.8382L40.946 68.5418Z" fill="#DB7453" style="fill:#DB7453;fill:color(display-p3 0.8588 0.4549 0.3255);fill-opacity:1;" mask="url(#path-32-inside-16_206_188)"/>
</svg>
