<svg width="73" height="74" viewBox="0 0 73 74" fill="none" xmlns="http://www.w3.org/2000/svg">
<mask id="path-1-inside-1_275_180" fill="white">
<path d="M49.0994 26.3558H49.5837L36.4119 36.7954L50.337 47.851H49.8527L36.1859 37.0116L22.5192 47.851H22.0349L35.9707 36.7954L22.799 26.3558H23.2832L36.1859 36.6117L49.0994 26.3558Z"/>
</mask>
<path d="M49.0994 26.3558H49.5837L36.4119 36.7954L50.337 47.851H49.8527L36.1859 37.0116L22.5192 47.851H22.0349L35.9707 36.7954L22.799 26.3558H23.2832L36.1859 36.6117L49.0994 26.3558Z" fill="#DB7453" style="fill:#DB7453;fill:color(display-p3 0.8588 0.4549 0.3255);fill-opacity:1;"/>
<path d="M49.0994 26.3558V25.3558H48.7506L48.4775 25.5728L49.0994 26.3558ZM49.5837 26.3558L50.2048 27.1395L52.4553 25.3558H49.5837V26.3558ZM36.4119 36.7954L35.7908 36.0117L34.8028 36.7947L35.7901 37.5786L36.4119 36.7954ZM50.337 47.851V48.851H53.2048L50.9588 47.0678L50.337 47.851ZM49.8527 47.851L49.2313 48.6345L49.5043 48.851H49.8527V47.851ZM36.1859 37.0116L36.8073 36.2281L36.1859 35.7352L35.5645 36.2281L36.1859 37.0116ZM22.5192 47.851V48.851H22.8676L23.1406 48.6345L22.5192 47.851ZM22.0349 47.851L21.4134 47.0676L19.1654 48.851H22.0349V47.851ZM35.9707 36.7954L36.5922 37.5788L37.5802 36.795L36.5919 36.0117L35.9707 36.7954ZM22.799 26.3558V25.3558H19.9273L22.1778 27.1395L22.799 26.3558ZM23.2832 26.3558L23.9055 25.573L23.6322 25.3558H23.2832V26.3558ZM36.1859 36.6117L35.5637 37.3945L36.1857 37.8889L36.8079 37.3948L36.1859 36.6117ZM49.0994 27.3558H49.5837V25.3558H49.0994V27.3558ZM48.9625 25.5721L35.7908 36.0117L37.0331 37.5791L50.2048 27.1395L48.9625 25.5721ZM35.7901 37.5786L49.7152 48.6342L50.9588 47.0678L37.0337 36.0122L35.7901 37.5786ZM50.337 46.851H49.8527V48.851H50.337V46.851ZM50.4741 47.0675L36.8073 36.2281L35.5645 37.795L49.2313 48.6345L50.4741 47.0675ZM35.5645 36.2281L21.8978 47.0675L23.1406 48.6345L36.8073 37.795L35.5645 36.2281ZM22.5192 46.851H22.0349V48.851H22.5192V46.851ZM22.6564 48.6344L36.5922 37.5788L35.3492 36.012L21.4134 47.0676L22.6564 48.6344ZM36.5919 36.0117L23.4201 25.5721L22.1778 27.1395L35.3496 37.5791L36.5919 36.0117ZM22.799 27.3558H23.2832V25.3558H22.799V27.3558ZM22.661 27.1387L35.5637 37.3945L36.8082 35.8289L23.9055 25.573L22.661 27.1387ZM36.8079 37.3948L49.7213 27.1389L48.4775 25.5728L35.564 35.8286L36.8079 37.3948Z" fill="#E6E0BA" style="fill:#E6E0BA;fill:color(display-p3 0.9020 0.8784 0.7294);fill-opacity:1;" mask="url(#path-1-inside-1_275_180)"/>
<path d="M49.0994 26.3558H49.5837L36.4119 36.7954L50.337 47.851H49.8527L36.1859 37.0116L22.5192 47.851H22.0349L35.9707 36.7954L22.799 26.3558H23.2832L36.1859 36.6117L49.0994 26.3558Z" stroke="#E6E0BA" style="stroke:#E6E0BA;stroke:color(display-p3 0.9020 0.8784 0.7294);stroke-opacity:1;" stroke-miterlimit="10"/>
<mask id="path-4-inside-2_275_180" fill="white">
<path d="M11.1769 56.8749L5.36582 59.7387L3.2351 55.3619C2.57866 54.0218 2.52484 52.5953 4.0637 51.8389C5.60256 51.0824 6.68945 51.9901 7.34588 53.341L9.15376 57.037L10.8541 56.2049L11.1769 56.8749ZM5.66713 58.7553L8.52962 57.3504L6.7002 53.6004C6.21594 52.617 5.46266 52.001 4.38654 52.5197C3.31042 53.0492 3.35347 54.0219 3.83772 55.0053L5.66713 58.7553Z"/>
</mask>
<path d="M11.1769 56.8749L5.36582 59.7387L3.2351 55.3619C2.57866 54.0218 2.52484 52.5953 4.0637 51.8389C5.60256 51.0824 6.68945 51.9901 7.34588 53.341L9.15376 57.037L10.8541 56.2049L11.1769 56.8749ZM5.66713 58.7553L8.52962 57.3504L6.7002 53.6004C6.21594 52.617 5.46266 52.001 4.38654 52.5197C3.31042 53.0492 3.35347 54.0219 3.83772 55.0053L5.66713 58.7553Z" fill="#231A22" style="fill:#231A22;fill:color(display-p3 0.1373 0.1020 0.1333);fill-opacity:1;"/>
<path d="M11.1769 56.8749L11.6189 57.7719L12.508 57.3338L12.0778 56.4409L11.1769 56.8749ZM5.36582 59.7387L4.4667 60.1764L4.90653 61.0799L5.80787 60.6357L5.36582 59.7387ZM3.2351 55.3619L4.13422 54.9242L4.13314 54.922L3.2351 55.3619ZM7.34588 53.341L6.44645 53.7781L6.44759 53.7804L7.34588 53.341ZM9.15376 57.037L8.25547 57.4764L8.69495 58.3749L9.59334 57.9352L9.15376 57.037ZM10.8541 56.2049L11.7549 55.7708L11.3182 54.8644L10.4145 55.3067L10.8541 56.2049ZM5.66713 58.7553L4.76837 59.1938L5.20787 60.0947L6.10772 59.653L5.66713 58.7553ZM8.52962 57.3504L8.97021 58.2481L9.86579 57.8086L9.42838 56.912L8.52962 57.3504ZM6.7002 53.6004L7.59896 53.1619L7.59733 53.1586L6.7002 53.6004ZM4.38654 52.5197L3.9523 51.6189L3.94502 51.6224L4.38654 52.5197ZM3.83772 55.0053L4.73649 54.5668L4.73486 54.5635L3.83772 55.0053ZM10.7348 55.9779L4.92376 58.8417L5.80787 60.6357L11.6189 57.7719L10.7348 55.9779ZM6.26494 59.301L4.13421 54.9242L2.33598 55.7996L4.4667 60.1764L6.26494 59.301ZM4.13314 54.922C3.85041 54.3448 3.76178 53.8707 3.81413 53.5362C3.85564 53.2711 3.99781 52.9855 4.50487 52.7363L3.62253 50.9414C2.59074 51.4487 1.99039 52.2546 1.8382 53.2269C1.69686 54.1298 1.96335 55.0389 2.33705 55.8018L4.13314 54.922ZM4.50487 52.7363C5.01444 52.4858 5.32358 52.5489 5.55271 52.6753C5.84445 52.8362 6.16296 53.1947 6.44645 53.7781L8.24531 52.9039C7.87236 52.1365 7.31922 51.3656 6.51869 50.924C5.65555 50.4479 4.65182 50.4354 3.62253 50.9414L4.50487 52.7363ZM6.44759 53.7804L8.25547 57.4764L10.0521 56.5976L8.24418 52.9016L6.44759 53.7804ZM9.59334 57.9352L11.2936 57.1031L10.4145 55.3067L8.71418 56.1388L9.59334 57.9352ZM9.95317 56.6389L10.276 57.309L12.0778 56.4409L11.7549 55.7708L9.95317 56.6389ZM6.10772 59.653L8.97021 58.2481L8.08903 56.4527L5.22654 57.8576L6.10772 59.653ZM9.42838 56.912L7.59896 53.1619L5.80145 54.0389L7.63087 57.7889L9.42838 56.912ZM7.59733 53.1586C7.31314 52.5815 6.88763 51.9748 6.2494 51.6217C5.54728 51.2333 4.74462 51.237 3.95232 51.6189L4.82077 53.4205C4.97831 53.3446 5.07901 53.3314 5.13321 53.3314C5.18335 53.3315 5.22825 53.3424 5.28124 53.3718C5.40975 53.4429 5.60301 53.6359 5.80307 54.0422L7.59733 53.1586ZM3.94502 51.6224C3.15044 52.0135 2.65432 52.6489 2.53752 53.4476C2.43208 54.1685 2.65887 54.8749 2.94059 55.4471L4.73486 54.5635C4.53232 54.1522 4.49546 53.8806 4.51646 53.737C4.52492 53.6792 4.54235 53.6404 4.5703 53.6042C4.60091 53.5646 4.67078 53.4943 4.82806 53.4169L3.94502 51.6224ZM2.93897 55.4437L4.76837 59.1938L6.56589 58.3169L4.73648 54.5668L2.93897 55.4437Z" fill="#E6E0BA" style="fill:#E6E0BA;fill:color(display-p3 0.9020 0.8784 0.7294);fill-opacity:1;" mask="url(#path-4-inside-2_275_180)"/>
<mask id="path-6-inside-3_275_180" fill="white">
<path d="M0.953449 48.5208L0.221692 43.4199C0.0279902 42.0366 0.383113 40.8587 1.92197 40.6425C3.46083 40.4156 4.12803 41.4855 4.31097 42.8472L4.39704 43.4415L6.23722 39.7347L6.39863 40.8911L4.56923 44.479L4.95663 47.1808L7.24878 46.8458L7.3564 47.5806L0.953449 48.5208ZM3.65453 42.9336C3.51463 41.961 3.06265 41.2477 2.02957 41.399C0.996494 41.5503 0.759743 42.3392 0.899639 43.3011L1.53456 47.6887L4.27867 47.2889L3.65453 42.9336Z"/>
</mask>
<path d="M0.953449 48.5208L0.221692 43.4199C0.0279902 42.0366 0.383113 40.8587 1.92197 40.6425C3.46083 40.4156 4.12803 41.4855 4.31097 42.8472L4.39704 43.4415L6.23722 39.7347L6.39863 40.8911L4.56923 44.479L4.95663 47.1808L7.24878 46.8458L7.3564 47.5806L0.953449 48.5208ZM3.65453 42.9336C3.51463 41.961 3.06265 41.2477 2.02957 41.399C0.996494 41.5503 0.759743 42.3392 0.899639 43.3011L1.53456 47.6887L4.27867 47.2889L3.65453 42.9336Z" fill="#231A22" style="fill:#231A22;fill:color(display-p3 0.1373 0.1020 0.1333);fill-opacity:1;"/>
<path d="M0.953449 48.5208L-0.0364175 48.6628L0.106056 49.656L1.09873 49.5102L0.953449 48.5208ZM0.221692 43.4199L-0.768651 43.5586L-0.768174 43.5619L0.221692 43.4199ZM1.92197 40.6425L2.06106 41.6328L2.06787 41.6318L1.92197 40.6425ZM4.31097 42.8472L3.31982 42.9803L3.32129 42.9905L4.31097 42.8472ZM4.39704 43.4415L3.40737 43.5849L3.86693 46.7583L5.29274 43.8862L4.39704 43.4415ZM6.23722 39.7347L7.22762 39.5965L6.7803 36.3919L5.34152 39.2901L6.23722 39.7347ZM6.39863 40.8911L7.28951 41.3453L7.43257 41.0648L7.38903 40.7529L6.39863 40.8911ZM4.56923 44.479L3.67835 44.0248L3.53436 44.3072L3.57935 44.621L4.56923 44.479ZM4.95663 47.1808L3.96676 47.3227L4.10908 48.3153L5.10125 48.1703L4.95663 47.1808ZM7.24878 46.8458L8.23823 46.7009L8.09337 45.7117L7.10416 45.8563L7.24878 46.8458ZM7.3564 47.5806L7.50168 48.57L8.49069 48.4248L8.34585 47.4357L7.3564 47.5806ZM3.65453 42.9336L4.64442 42.7917L4.64434 42.7912L3.65453 42.9336ZM0.899639 43.3011L1.88933 43.1579L1.88923 43.1571L0.899639 43.3011ZM1.53456 47.6887L0.544873 47.8319L0.688231 48.8226L1.67876 48.6783L1.53456 47.6887ZM4.27867 47.2889L4.42286 48.2784L5.41008 48.1346L5.26855 47.147L4.27867 47.2889ZM1.94332 48.3788L1.21156 43.2779L-0.768174 43.5619L-0.0364175 48.6628L1.94332 48.3788ZM1.21203 43.2813C1.12828 42.6831 1.18992 42.2847 1.30947 42.0547C1.39503 41.89 1.56108 41.703 2.06106 41.6328L1.78288 39.6522C0.744002 39.7982 -0.0369337 40.3082 -0.465223 41.1324C-0.859526 41.8912 -0.878594 42.7734 -0.768645 43.5586L1.21203 43.2813ZM2.06787 41.6318C2.55618 41.5598 2.76466 41.693 2.89388 41.8314C3.07441 42.0249 3.24141 42.3963 3.31987 42.9803L5.30206 42.714C5.19759 41.9364 4.93951 41.092 4.356 40.4668C3.72117 39.7866 2.82662 39.4983 1.77607 39.6532L2.06787 41.6318ZM3.32129 42.9905L3.40737 43.5849L5.38672 43.2982L5.30064 42.7038L3.32129 42.9905ZM5.29274 43.8862L7.13292 40.1794L5.34152 39.2901L3.50134 42.9969L5.29274 43.8862ZM5.24682 39.873L5.40823 41.0293L7.38903 40.7529L7.22762 39.5965L5.24682 39.873ZM5.50775 40.4369L3.67835 44.0248L5.46011 44.9333L7.28951 41.3453L5.50775 40.4369ZM3.57935 44.621L3.96676 47.3227L5.94651 47.0388L5.5591 44.3371L3.57935 44.621ZM5.10125 48.1703L7.3934 47.8353L7.10416 45.8563L4.81201 46.1913L5.10125 48.1703ZM6.25933 46.9907L6.36695 47.7255L8.34585 47.4357L8.23823 46.7009L6.25933 46.9907ZM7.21112 46.5912L0.808168 47.5315L1.09873 49.5102L7.50168 48.57L7.21112 46.5912ZM4.64434 42.7912C4.56197 42.2185 4.37017 41.5626 3.91147 41.0662C3.39829 40.5108 2.6819 40.2928 1.88466 40.4096L2.17448 42.3885C2.31052 42.3686 2.37522 42.3843 2.39467 42.3906C2.40964 42.3954 2.42216 42.4014 2.44252 42.4235C2.50306 42.489 2.60719 42.676 2.66472 43.076L4.64434 42.7912ZM1.88466 40.4096C1.10034 40.5245 0.473875 40.9224 0.133141 41.5933C-0.172898 42.1959 -0.172795 42.8754 -0.0899479 43.445L1.88923 43.1571C1.83218 42.7649 1.88071 42.5691 1.91634 42.4989C1.92786 42.4762 1.93709 42.4669 1.95248 42.4567C1.97228 42.4435 2.03401 42.409 2.17448 42.3885L1.88466 40.4096ZM-0.0900521 43.4443L0.544873 47.8319L2.52426 47.5455L1.88933 43.1579L-0.0900521 43.4443ZM1.67876 48.6783L4.42286 48.2784L4.13448 46.2993L1.39037 46.6992L1.67876 48.6783ZM5.26855 47.147L4.64442 42.7917L2.66464 43.0755L3.28878 47.4307L5.26855 47.147Z" fill="#E6E0BA" style="fill:#E6E0BA;fill:color(display-p3 0.9020 0.8784 0.7294);fill-opacity:1;" mask="url(#path-6-inside-3_275_180)"/>
<mask id="path-8-inside-4_275_180" fill="white">
<path d="M0.0603255 32.4078C0.415446 29.5656 2.0404 28.2579 3.9559 28.4957C5.87141 28.7335 7.11969 30.3977 6.76457 33.24C6.40945 36.0822 4.78451 37.3899 2.86901 37.1521C0.953509 36.9036 -0.294795 35.2501 0.0603255 32.4078ZM6.07587 33.1643C6.36642 30.776 5.3979 29.4467 3.85904 29.2522C2.33095 29.0577 1.05036 30.106 0.749044 32.4943C0.447729 34.8827 1.42701 36.2227 2.9551 36.4172C4.49396 36.6009 5.77456 35.5527 6.07587 33.1643Z"/>
</mask>
<path d="M0.0603255 32.4078C0.415446 29.5656 2.0404 28.2579 3.9559 28.4957C5.87141 28.7335 7.11969 30.3977 6.76457 33.24C6.40945 36.0822 4.78451 37.3899 2.86901 37.1521C0.953509 36.9036 -0.294795 35.2501 0.0603255 32.4078ZM6.07587 33.1643C6.36642 30.776 5.3979 29.4467 3.85904 29.2522C2.33095 29.0577 1.05036 30.106 0.749044 32.4943C0.447729 34.8827 1.42701 36.2227 2.9551 36.4172C4.49396 36.6009 5.77456 35.5527 6.07587 33.1643Z" fill="#231A22" style="fill:#231A22;fill:color(display-p3 0.1373 0.1020 0.1333);fill-opacity:1;"/>
<path d="M2.86901 37.1521L2.74032 38.1438L2.74583 38.1445L2.86901 37.1521ZM6.07587 33.1643L7.06802 33.2895L7.06855 33.2851L6.07587 33.1643ZM3.85904 29.2522L3.73276 30.2442L3.73363 30.2443L3.85904 29.2522ZM2.9551 36.4172L2.82882 37.4092L2.83656 37.4102L2.9551 36.4172ZM1.05261 32.5318C1.21037 31.2692 1.63445 30.473 2.11001 30.0234C2.56846 29.5899 3.15045 29.4034 3.83273 29.4881L4.07908 27.5033C2.84586 27.3502 1.65762 27.6987 0.735937 28.5701C-0.168642 29.4254 -0.734593 30.7042 -0.931959 32.2839L1.05261 32.5318ZM3.83273 29.4881C4.51473 29.5727 5.03077 29.8952 5.36679 30.426C5.71577 30.9773 5.93016 31.8525 5.77229 33.116L7.75686 33.364C7.95411 31.7853 7.72191 30.4072 7.05665 29.3563C6.37843 28.2849 5.31258 27.6564 4.07908 27.5033L3.83273 29.4881ZM5.77229 33.116C5.61453 34.3786 5.19045 35.1748 4.71489 35.6244C4.25644 36.0579 3.67447 36.2444 2.99219 36.1597L2.74583 38.1445C3.97905 38.2976 5.1673 37.9491 6.08897 37.0777C6.99355 36.2224 7.55949 34.9436 7.75686 33.364L5.77229 33.116ZM2.99769 36.1604C2.31118 36.0714 1.79363 35.7468 1.4577 35.2171C1.10914 34.6674 0.894748 33.7953 1.05261 32.5318L-0.931959 32.2839C-1.12922 33.8626 -0.897021 35.2384 -0.231332 36.2881C0.446985 37.3578 1.51134 37.9843 2.74033 38.1438L2.99769 36.1604ZM7.06855 33.2851C7.23098 31.95 7.05941 30.7735 6.50805 29.8662C5.93924 28.9303 5.0319 28.3925 3.98445 28.2601L3.73363 30.2443C4.22504 30.3064 4.57139 30.5305 4.79892 30.9049C5.0439 31.308 5.21132 31.9903 5.08319 33.0436L7.06855 33.2851ZM3.98532 28.2602C2.94094 28.1273 1.92807 28.4244 1.1451 29.1895C0.384985 29.9322 -0.0742894 31.0311 -0.243091 32.3691L1.74118 32.6195C1.87369 31.5691 2.20537 30.9497 2.5429 30.6199C2.85758 30.3124 3.24905 30.1826 3.73276 30.2442L3.98532 28.2602ZM-0.243091 32.3691C-0.411912 33.7073 -0.240007 34.8866 0.310534 35.7962C0.877477 36.733 1.78335 37.2761 2.82882 37.4092L3.08138 35.4252C2.59876 35.3638 2.25094 35.1397 2.02155 34.7607C1.77576 34.3545 1.60869 33.6697 1.74118 32.6195L-0.243091 32.3691ZM2.83656 37.4102C3.88217 37.535 4.89497 37.2362 5.67848 36.4705C6.43976 35.7266 6.89916 34.6278 7.06801 33.2895L5.08373 33.0392C4.95126 34.0892 4.61971 34.7088 4.28065 35.0401C3.96382 35.3497 3.56689 35.4832 3.07365 35.4243L2.83656 37.4102Z" fill="#E6E0BA" style="fill:#E6E0BA;fill:color(display-p3 0.9020 0.8784 0.7294);fill-opacity:1;" mask="url(#path-8-inside-4_275_180)"/>
<mask id="path-10-inside-5_275_180" fill="white">
<path d="M7.90563 26.4744L2.04077 23.7295L3.37515 20.844C4.79564 17.7748 6.58201 17.0507 8.32533 17.8829C10.0687 18.7042 10.6713 20.5306 9.25078 23.5998L7.90563 26.4744ZM2.97699 23.3512L7.59357 25.491L8.61587 23.2756C9.82113 20.6711 9.40147 19.2013 8.00251 18.5313C6.60355 17.8613 5.21533 18.4989 3.99931 21.1142L2.97699 23.3512Z"/>
</mask>
<path d="M7.90563 26.4744L2.04077 23.7295L3.37515 20.844C4.79564 17.7748 6.58201 17.0507 8.32533 17.8829C10.0687 18.7042 10.6713 20.5306 9.25078 23.5998L7.90563 26.4744ZM2.97699 23.3512L7.59357 25.491L8.61587 23.2756C9.82113 20.6711 9.40147 19.2013 8.00251 18.5313C6.60355 17.8613 5.21533 18.4989 3.99931 21.1142L2.97699 23.3512Z" fill="#231A22" style="fill:#231A22;fill:color(display-p3 0.1373 0.1020 0.1333);fill-opacity:1;"/>
<path d="M7.90563 26.4744L7.48172 27.3801L8.3875 27.8041L8.81137 26.8983L7.90563 26.4744ZM2.04077 23.7295L1.13313 23.3097L0.71531 24.2132L1.61686 24.6352L2.04077 23.7295ZM3.37515 20.844L2.46764 20.424L2.46751 20.4243L3.37515 20.844ZM8.32533 17.8829L7.89455 18.7853L7.89913 18.7875L8.32533 17.8829ZM9.25078 23.5998L10.1565 24.0236L10.1583 24.0198L9.25078 23.5998ZM2.97699 23.3512L2.06747 22.9356L1.65404 23.8402L2.55647 24.2585L2.97699 23.3512ZM7.59357 25.491L7.17305 26.3983L8.08187 26.8195L8.50157 25.91L7.59357 25.491ZM8.61587 23.2756L7.70833 22.8556L7.70788 22.8566L8.61587 23.2756ZM3.99931 21.1142L3.09251 20.6926L3.08978 20.6985L3.99931 21.1142ZM8.32953 25.5687L2.46468 22.8237L1.61686 24.6352L7.48172 27.3801L8.32953 25.5687ZM2.94842 24.1492L4.2828 21.2637L2.46751 20.4243L1.13313 23.3097L2.94842 24.1492ZM4.28267 21.264C4.949 19.8243 5.63234 19.0933 6.20911 18.7777C6.73062 18.4924 7.27068 18.4875 7.89456 18.7853L8.7561 16.9804C7.63666 16.4461 6.41188 16.3871 5.24925 17.0231C4.14188 17.6289 3.22179 18.7945 2.46764 20.424L4.28267 21.264ZM7.89913 18.7875C8.52743 19.0835 8.87487 19.5069 8.99439 20.0969C9.12584 20.7458 9.00933 21.7406 8.34326 23.1798L10.1583 24.0198C10.9127 22.3897 11.2051 20.9367 10.9546 19.6998C10.6921 18.404 9.86655 17.5036 8.75153 16.9782L7.89913 18.7875ZM8.34504 23.1759L6.99988 26.0506L8.81137 26.8983L10.1565 24.0236L8.34504 23.1759ZM2.55647 24.2585L7.17305 26.3983L8.0141 24.5837L3.39752 22.4439L2.55647 24.2585ZM8.50157 25.91L9.52386 23.6946L7.70788 22.8566L6.68558 25.072L8.50157 25.91ZM9.52341 23.6956C10.1625 22.3144 10.449 21.0775 10.2722 20.014C10.0829 18.8749 9.38873 18.0864 8.43447 17.6294L7.57054 19.4332C8.01524 19.6462 8.23042 19.9276 8.29931 20.342C8.38077 20.832 8.27447 21.6322 7.70834 22.8556L9.52341 23.6956ZM8.43447 17.6294C7.47095 17.1679 6.41578 17.1371 5.41949 17.7322C4.49477 18.2846 3.73578 19.3091 3.09253 20.6926L4.90608 21.5358C5.47886 20.3039 6.02198 19.702 6.44512 19.4492C6.79668 19.2392 7.1351 19.2246 7.57054 19.4332L8.43447 17.6294ZM3.08978 20.6985L2.06747 22.9356L3.88652 23.7669L4.90883 21.5298L3.08978 20.6985Z" fill="#E6E0BA" style="fill:#E6E0BA;fill:color(display-p3 0.9020 0.8784 0.7294);fill-opacity:1;" mask="url(#path-10-inside-5_275_180)"/>
<mask id="path-12-inside-6_275_180" fill="white">
<path d="M13.0063 7.65974L13.5336 7.14099L16.2777 9.90758C17.6336 11.2693 17.2892 12.7607 15.4598 14.5979C13.6197 16.435 12.1346 16.77 10.7679 15.43L8.0238 12.6634L8.55109 12.1338L11.2952 14.9004C12.3714 15.992 13.5551 15.5164 14.954 14.1223C16.353 12.7174 16.8265 11.5286 15.7396 10.4479L13.0063 7.65974Z"/>
</mask>
<path d="M13.0063 7.65974L13.5336 7.14099L16.2777 9.90758C17.6336 11.2693 17.2892 12.7607 15.4598 14.5979C13.6197 16.435 12.1346 16.77 10.7679 15.43L8.0238 12.6634L8.55109 12.1338L11.2952 14.9004C12.3714 15.992 13.5551 15.5164 14.954 14.1223C16.353 12.7174 16.8265 11.5286 15.7396 10.4479L13.0063 7.65974Z" fill="#231A22" style="fill:#231A22;fill:color(display-p3 0.1373 0.1020 0.1333);fill-opacity:1;"/>
<path d="M13.0063 7.65974L12.305 6.94688L11.5934 7.64695L12.2922 8.35979L13.0063 7.65974ZM13.5336 7.14099L14.2435 6.43678L13.5422 5.72968L12.8322 6.42813L13.5336 7.14099ZM16.2777 9.90758L15.5677 10.6118L15.569 10.6132L16.2777 9.90758ZM15.4598 14.5979L16.1664 15.3055L16.1684 15.3035L15.4598 14.5979ZM10.7679 15.43L10.0579 16.1343L10.0678 16.144L10.7679 15.43ZM8.0238 12.6634L7.31518 11.9578L6.61398 12.662L7.31382 13.3676L8.0238 12.6634ZM8.55109 12.1338L9.26108 11.4296L8.55246 10.7152L7.84247 11.4282L8.55109 12.1338ZM11.2952 14.9004L12.0073 14.1984L12.0052 14.1962L11.2952 14.9004ZM14.954 14.1223L15.6599 14.8307L15.6626 14.8279L14.954 14.1223ZM15.7396 10.4479L15.0254 11.148L15.0345 11.1571L15.7396 10.4479ZM13.7076 8.3726L14.2349 7.85385L12.8322 6.42813L12.305 6.94688L13.7076 8.3726ZM12.8236 7.84521L15.5677 10.6118L16.9876 9.20337L14.2435 6.43678L12.8236 7.84521ZM15.569 10.6132C16.0671 11.1133 16.1523 11.5077 16.0805 11.8896C15.991 12.3652 15.619 13.0208 14.7512 13.8922L16.1684 15.3035C17.1301 14.3377 17.8449 13.329 18.046 12.2592C18.2648 11.0957 17.8441 10.0635 16.9863 9.20198L15.569 10.6132ZM14.7533 13.8902C13.8807 14.7614 13.2258 15.133 12.7506 15.2228C12.3674 15.2952 11.9716 15.2097 11.468 14.716L10.0678 16.144C10.9309 16.9903 11.9609 17.4074 13.122 17.188C14.1911 16.986 15.1988 16.2715 16.1664 15.3055L14.7533 13.8902ZM11.4779 14.7258L8.73379 11.9592L7.31382 13.3676L10.0579 16.1342L11.4779 14.7258ZM8.73243 13.369L9.25972 12.8394L7.84247 11.4282L7.31518 11.9578L8.73243 13.369ZM7.84111 12.838L10.5852 15.6047L12.0052 14.1962L9.26108 11.4296L7.84111 12.838ZM10.5831 15.6025C10.942 15.9666 11.3557 16.2457 11.831 16.3915C12.3122 16.539 12.7944 16.5306 13.2542 16.4116C14.1272 16.1856 14.9303 15.5578 15.6599 14.8307L14.2482 13.414C13.5788 14.081 13.0906 14.388 12.753 14.4754C12.6074 14.5131 12.5045 14.5061 12.4173 14.4793C12.3243 14.4508 12.1865 14.3801 12.0073 14.1984L10.5831 15.6025ZM15.6626 14.8279C16.3929 14.0946 17.0206 13.2891 17.2471 12.4142C17.3663 11.9538 17.3751 11.4714 17.229 10.99C17.0846 10.5142 16.8073 10.0993 16.4447 9.73881L15.0345 11.1571C15.2153 11.3369 15.2864 11.4758 15.3152 11.5708C15.3423 11.6601 15.3491 11.7654 15.3109 11.9129C15.2227 12.2538 14.9142 12.7451 14.2454 13.4167L15.6626 14.8279ZM16.4537 9.74789L13.7204 6.95969L12.2922 8.35979L15.0255 11.148L16.4537 9.74789Z" fill="#E6E0BA" style="fill:#E6E0BA;fill:color(display-p3 0.9020 0.8784 0.7294);fill-opacity:1;" mask="url(#path-12-inside-6_275_180)"/>
<mask id="path-14-inside-7_275_180" fill="white">
<path d="M21.2817 3.52057L23.6707 8.80517L23.0035 9.09695L20.6145 3.81234L17.5368 5.21724L17.2462 4.57963L24.0688 1.47803L24.3701 2.10482L21.2817 3.52057Z"/>
</mask>
<path d="M21.2817 3.52057L23.6707 8.80517L23.0035 9.09695L20.6145 3.81234L17.5368 5.21724L17.2462 4.57963L24.0688 1.47803L24.3701 2.10482L21.2817 3.52057Z" fill="#231A22" style="fill:#231A22;fill:color(display-p3 0.1373 0.1020 0.1333);fill-opacity:1;"/>
<path d="M21.2817 3.52057L20.865 2.61152L19.9607 3.02605L20.3705 3.9325L21.2817 3.52057ZM23.6707 8.80517L24.0713 9.7214L24.9989 9.31576L24.5819 8.39324L23.6707 8.80517ZM23.0035 9.09695L22.0922 9.50888L22.4991 10.4089L23.4041 10.0132L23.0035 9.09695ZM20.6145 3.81234L21.5257 3.40041L21.1122 2.48586L20.1992 2.90264L20.6145 3.81234ZM17.5368 5.21724L16.6268 5.63189L17.0417 6.54248L17.952 6.12694L17.5368 5.21724ZM17.2462 4.57963L16.8324 3.66929L15.9212 4.0835L16.3362 4.99429L17.2462 4.57963ZM24.0688 1.47803L24.9701 1.04477L24.546 0.162608L23.655 0.567682L24.0688 1.47803ZM24.3701 2.10482L24.7869 3.01386L25.7127 2.58947L25.2714 1.67156L24.3701 2.10482ZM20.3705 3.9325L22.7595 9.2171L24.5819 8.39324L22.1929 3.10864L20.3705 3.9325ZM23.27 7.88895L22.6028 8.18073L23.4041 10.0132L24.0713 9.7214L23.27 7.88895ZM23.9147 8.68502L21.5257 3.40041L19.7032 4.22427L22.0922 9.50888L23.9147 8.68502ZM20.1992 2.90264L17.1215 4.30754L17.952 6.12694L21.0297 4.72205L20.1992 2.90264ZM18.4467 4.80259L18.1562 4.16498L16.3362 4.99429L16.6268 5.63189L18.4467 4.80259ZM17.6601 5.48998L24.4827 2.38837L23.655 0.567682L16.8324 3.66929L17.6601 5.48998ZM23.1676 1.91129L23.4689 2.53808L25.2714 1.67156L24.9701 1.04477L23.1676 1.91129ZM23.9534 1.19578L20.865 2.61152L21.6984 4.42961L24.7869 3.01386L23.9534 1.19578Z" fill="#E6E0BA" style="fill:#E6E0BA;fill:color(display-p3 0.9020 0.8784 0.7294);fill-opacity:1;" mask="url(#path-14-inside-7_275_180)"/>
<mask id="path-16-inside-8_275_180" fill="white">
<path d="M32.4729 0.00835514C35.3246 -0.121329 36.8742 1.27277 36.9603 3.20722C37.0464 5.14167 35.6259 6.66546 32.7634 6.78433C29.9117 6.91402 28.3621 5.51992 28.276 3.58547C28.1899 1.66182 29.6212 0.138039 32.4729 0.00835514ZM32.7419 6.09267C35.1309 5.9846 36.2824 4.79585 36.207 3.23964C36.1317 1.69424 34.8942 0.602734 32.5052 0.710804C30.1162 0.818874 28.9647 2.00763 29.0293 3.56384C29.1046 5.10924 30.3422 6.18993 32.7419 6.09267Z"/>
</mask>
<path d="M32.4729 0.00835514C35.3246 -0.121329 36.8742 1.27277 36.9603 3.20722C37.0464 5.14167 35.6259 6.66546 32.7634 6.78433C29.9117 6.91402 28.3621 5.51992 28.276 3.58547C28.1899 1.66182 29.6212 0.138039 32.4729 0.00835514ZM32.7419 6.09267C35.1309 5.9846 36.2824 4.79585 36.207 3.23964C36.1317 1.69424 34.8942 0.602734 32.5052 0.710804C30.1162 0.818874 28.9647 2.00763 29.0293 3.56384C29.1046 5.10924 30.3422 6.18993 32.7419 6.09267Z" fill="#231A22" style="fill:#231A22;fill:color(display-p3 0.1373 0.1020 0.1333);fill-opacity:1;"/>
<path d="M32.7634 6.78433L32.7219 5.78519L32.718 5.78537L32.7634 6.78433ZM28.276 3.58547L29.275 3.54101L29.275 3.54076L28.276 3.58547ZM32.7419 6.09267L32.7824 7.09186L32.7871 7.09165L32.7419 6.09267ZM36.207 3.23964L37.2059 3.19129L37.2058 3.19095L36.207 3.23964ZM29.0293 3.56384L28.0301 3.60529L28.0305 3.61252L29.0293 3.56384ZM32.5183 1.00732C33.7819 0.949859 34.6302 1.23551 35.1482 1.62959C35.6487 2.01034 35.9304 2.55752 35.9613 3.25168L37.9593 3.16276C37.9041 1.92246 37.368 0.805375 36.3592 0.0378797C35.3679 -0.716282 34.0156 -1.06283 32.4275 -0.990612L32.5183 1.00732ZM35.9613 3.25168C35.9922 3.94554 35.7602 4.51415 35.2953 4.9363C34.8137 5.37362 33.9917 5.73246 32.7219 5.7852L32.8049 7.78347C34.3976 7.71733 35.7171 7.25484 36.6398 6.41694C37.5793 5.56387 38.0145 4.40335 37.9593 3.16276L35.9613 3.25168ZM32.718 5.78537C31.4544 5.84283 30.6061 5.55718 30.0881 5.1631C29.5876 4.78235 29.3059 4.23517 29.275 3.54101L27.277 3.62993C27.3322 4.87023 27.8683 5.98732 28.8771 6.75481C29.8684 7.50897 31.2207 7.85552 32.8089 7.7833L32.718 5.78537ZM29.275 3.54076C29.2444 2.85652 29.4759 2.28963 29.9443 1.86514C30.4293 1.42555 31.2539 1.06482 32.5183 1.00732L32.4275 -0.990612C30.8401 -0.918429 29.5232 -0.452422 28.6012 0.383218C27.6626 1.23395 27.2215 2.39077 27.277 3.63018L29.275 3.54076ZM32.7871 7.09165C34.1268 7.03104 35.2571 6.66221 36.0573 5.9616C36.8818 5.23977 37.2571 4.24979 37.2059 3.19129L35.2082 3.28799C35.2323 3.78569 35.0695 4.1682 34.7399 4.45681C34.386 4.76665 33.746 5.04623 32.6967 5.09369L32.7871 7.09165ZM37.2058 3.19095C37.1548 2.14331 36.6959 1.19436 35.8149 0.548617C34.9578 -0.079597 33.8021 -0.348889 32.46 -0.288175L32.5504 1.70978C33.5972 1.66243 34.2548 1.88485 34.6326 2.16172C34.9864 2.42106 35.184 2.79057 35.2082 3.28832L37.2058 3.19095ZM32.46 -0.288175C31.1199 -0.227553 29.9904 0.141405 29.1893 0.841115C28.3646 1.56142 27.9863 2.54886 28.0301 3.60529L30.0284 3.52238C30.0077 3.0226 30.1728 2.63756 30.505 2.34742C30.8607 2.03668 31.5015 1.75723 32.5504 1.70978L32.46 -0.288175ZM28.0305 3.61252C28.0816 4.66143 28.5415 5.60822 29.4248 6.25226C30.2823 6.87758 31.4386 7.14631 32.7824 7.09185L32.7014 5.09349C31.6455 5.13629 30.9831 4.9133 30.6031 4.63625C30.2488 4.3779 30.0523 4.01164 30.0281 3.51515L28.0305 3.61252Z" fill="#E6E0BA" style="fill:#E6E0BA;fill:color(display-p3 0.9020 0.8784 0.7294);fill-opacity:1;" mask="url(#path-16-inside-8_275_180)"/>
<mask id="path-18-inside-9_275_180" fill="white">
<path d="M56.7613 16.5107L56.0833 16.0027L56.2124 14.0899L52.0156 10.9234L50.24 11.5935L49.562 11.0856L56.7075 8.34058L57.3854 8.84851L56.7613 16.5107ZM53.2854 10.4371L52.7258 10.6208L56.2878 13.2902L56.3201 12.6958L56.6321 9.09705L53.2854 10.4371Z"/>
</mask>
<path d="M56.7613 16.5107L56.0833 16.0027L56.2124 14.0899L52.0156 10.9234L50.24 11.5935L49.562 11.0856L56.7075 8.34058L57.3854 8.84851L56.7613 16.5107ZM53.2854 10.4371L52.7258 10.6208L56.2878 13.2902L56.3201 12.6958L56.6321 9.09705L53.2854 10.4371Z" fill="#231A22" style="fill:#231A22;fill:color(display-p3 0.1373 0.1020 0.1333);fill-opacity:1;"/>
<path d="M56.7613 16.5107L56.1617 17.311L57.611 18.3968L57.758 16.5919L56.7613 16.5107ZM56.0833 16.0027L55.0856 15.9354L55.049 16.4773L55.4837 16.803L56.0833 16.0027ZM56.2124 14.0899L57.2102 14.1573L57.2466 13.6175L56.8147 13.2916L56.2124 14.0899ZM52.0156 10.9234L52.6179 10.1252L52.178 9.7933L51.6625 9.98783L52.0156 10.9234ZM50.24 11.5935L49.6404 12.3938L50.0796 12.7228L50.593 12.5291L50.24 11.5935ZM49.562 11.0856L49.2034 10.1521L47.5143 10.801L48.9624 11.8859L49.562 11.0856ZM56.7075 8.34058L57.307 7.54027L56.8647 7.2089L56.3488 7.40709L56.7075 8.34058ZM57.3854 8.84851L58.3821 8.92969L58.427 8.3793L57.985 8.0482L57.3854 8.84851ZM53.2854 10.4371L53.5973 11.3872L53.6276 11.3773L53.6571 11.3655L53.2854 10.4371ZM52.7258 10.6208L52.4139 9.67073L50.5896 10.2696L52.1261 11.4211L52.7258 10.6208ZM56.2878 13.2902L55.6881 14.0904L57.1849 15.2121L57.2863 13.3444L56.2878 13.2902ZM56.3201 12.6958L55.3238 12.6094L55.3224 12.6255L55.3215 12.6416L56.3201 12.6958ZM56.6321 9.09705L57.6284 9.18343L57.7687 7.56473L56.2604 8.1687L56.6321 9.09705ZM57.3609 15.7104L56.6829 15.2024L55.4837 16.803L56.1617 17.311L57.3609 15.7104ZM57.081 16.0701L57.2102 14.1573L55.2147 14.0226L55.0856 15.9354L57.081 16.0701ZM56.8147 13.2916L52.6179 10.1252L51.4133 11.7217L55.6102 14.8882L56.8147 13.2916ZM51.6625 9.98783L49.8869 10.6579L50.593 12.5291L52.3686 11.859L51.6625 9.98783ZM50.8395 10.7931L50.1616 10.2852L48.9624 11.8859L49.6404 12.3938L50.8395 10.7931ZM49.9206 12.0191L57.0661 9.27406L56.3488 7.40709L49.2034 10.1521L49.9206 12.0191ZM56.1079 9.14088L56.7858 9.64881L57.985 8.0482L57.307 7.54027L56.1079 9.14088ZM56.3887 8.76732L55.7646 16.4295L57.758 16.5919L58.3821 8.92969L56.3887 8.76732ZM52.9735 9.48703L52.4139 9.67073L53.0377 11.5709L53.5973 11.3872L52.9735 9.48703ZM52.1261 11.4211L55.6881 14.0904L56.8875 12.4899L53.3255 9.82061L52.1261 11.4211ZM57.2863 13.3444L57.3186 12.75L55.3215 12.6416L55.2893 13.2359L57.2863 13.3444ZM57.3163 12.7822L57.6284 9.18343L55.6359 9.01066L55.3238 12.6094L57.3163 12.7822ZM56.2604 8.1687L52.9137 9.50879L53.6571 11.3655L57.0038 10.0254L56.2604 8.1687Z" fill="#E6E0BA" style="fill:#E6E0BA;fill:color(display-p3 0.9020 0.8784 0.7294);fill-opacity:1;" mask="url(#path-18-inside-9_275_180)"/>
<mask id="path-20-inside-10_275_180" fill="white">
<path d="M63.4651 14.1222L66.5535 18.2397C67.3929 19.3528 67.6297 20.5632 66.3921 21.5034C65.1546 22.4436 64.0569 21.8276 63.2391 20.7253L62.8732 20.2389L63.0454 24.3672L62.3459 23.4162L62.2275 19.396L60.5918 17.213L58.7409 18.6071L58.2997 18.0127L63.4651 14.1222ZM63.7771 20.3254C64.369 21.1143 65.1116 21.5142 65.9402 20.8874C66.7688 20.2605 66.5966 19.45 66.0155 18.6719L63.3574 15.1381L61.1406 16.8131L63.7771 20.3254Z"/>
</mask>
<path d="M63.4651 14.1222L66.5535 18.2397C67.3929 19.3528 67.6297 20.5632 66.3921 21.5034C65.1546 22.4436 64.0569 21.8276 63.2391 20.7253L62.8732 20.2389L63.0454 24.3672L62.3459 23.4162L62.2275 19.396L60.5918 17.213L58.7409 18.6071L58.2997 18.0127L63.4651 14.1222ZM63.7771 20.3254C64.369 21.1143 65.1116 21.5142 65.9402 20.8874C66.7688 20.2605 66.5966 19.45 66.0155 18.6719L63.3574 15.1381L61.1406 16.8131L63.7771 20.3254Z" fill="#231A22" style="fill:#231A22;fill:color(display-p3 0.1373 0.1020 0.1333);fill-opacity:1;"/>
<path d="M63.4651 14.1222L64.265 13.5221L63.6638 12.7206L62.8634 13.3234L63.4651 14.1222ZM66.5535 18.2397L65.7536 18.8397L65.7551 18.8417L66.5535 18.2397ZM63.2391 20.7253L64.0422 20.1294L64.0382 20.1241L63.2391 20.7253ZM62.8732 20.2389L63.6723 19.6377L61.7401 17.0695L61.8741 20.2806L62.8732 20.2389ZM63.0454 24.3672L62.2398 24.9597L64.1811 27.5991L64.0445 24.3255L63.0454 24.3672ZM62.3459 23.4162L61.3464 23.4456L61.3555 23.7574L61.5403 24.0087L62.3459 23.4162ZM62.2275 19.396L63.2271 19.3665L63.2178 19.0499L63.0278 18.7963L62.2275 19.396ZM60.5918 17.213L61.3921 16.6133L60.791 15.8111L59.9902 16.4142L60.5918 17.213ZM58.7409 18.6071L57.9379 19.2031L58.5381 20.0117L59.3425 19.4059L58.7409 18.6071ZM58.2997 18.0127L57.6981 17.2139L56.9048 17.8113L57.4967 18.6087L58.2997 18.0127ZM63.7771 20.3254L64.5771 19.7253L64.5769 19.7251L63.7771 20.3254ZM66.0155 18.6719L66.8167 18.0736L66.8146 18.0708L66.0155 18.6719ZM63.3574 15.1381L64.1566 14.537L63.5542 13.736L62.7546 14.3402L63.3574 15.1381ZM61.1406 16.8131L60.5378 16.0153L59.7424 16.6162L60.3409 17.4135L61.1406 16.8131ZM62.6651 14.7222L65.7536 18.8397L67.3535 17.6396L64.265 13.5221L62.6651 14.7222ZM65.7551 18.8417C66.113 19.3163 66.2474 19.693 66.2518 19.9532C66.2551 20.1461 66.193 20.3988 65.7872 20.7071L66.9971 22.2996C67.8288 21.6678 68.2671 20.8451 68.2515 19.9195C68.2371 19.0612 67.8335 18.2761 67.352 17.6376L65.7551 18.8417ZM65.7872 20.7071C65.3948 21.0052 65.149 20.9888 64.9699 20.9301C64.7188 20.8477 64.3936 20.603 64.0422 20.1294L62.436 21.3211C62.9025 21.9498 63.535 22.5643 64.3466 22.8305C65.2301 23.1202 66.152 22.9417 66.9971 22.2996L65.7872 20.7071ZM64.0382 20.1241L63.6723 19.6377L62.0741 20.8401L62.44 21.3264L64.0382 20.1241ZM61.8741 20.2806L62.0463 24.4089L64.0445 24.3255L63.8723 20.1973L61.8741 20.2806ZM63.851 23.7747L63.1515 22.8237L61.5403 24.0087L62.2398 24.9597L63.851 23.7747ZM63.3455 23.3868L63.2271 19.3665L61.228 19.4254L61.3464 23.4456L63.3455 23.3868ZM63.0278 18.7963L61.3921 16.6133L59.7916 17.8126L61.4273 19.9956L63.0278 18.7963ZM59.9902 16.4142L58.1393 17.8083L59.3425 19.4059L61.1935 18.0118L59.9902 16.4142ZM59.5439 18.0111L59.1026 17.4167L57.4967 18.6087L57.9379 19.2031L59.5439 18.0111ZM58.9013 18.8115L64.0667 14.921L62.8634 13.3234L57.6981 17.2139L58.9013 18.8115ZM62.9772 20.9255C63.3273 21.3922 63.8132 21.874 64.4556 22.0866C65.1724 22.3239 65.9036 22.1689 66.5435 21.6849L65.3369 20.0898C65.2282 20.172 65.164 20.1896 65.1433 20.1936C65.1272 20.1968 65.1127 20.1974 65.0841 20.1879C65.0002 20.1601 64.8188 20.0475 64.5771 19.7253L62.9772 20.9255ZM66.5435 21.6849C67.1768 21.2058 67.53 20.554 67.506 19.8044C67.4844 19.1308 67.1611 18.5347 66.8167 18.0736L65.2143 19.2703C65.451 19.5873 65.5043 19.7855 65.507 19.8684C65.5079 19.8961 65.5037 19.9099 65.4952 19.9263C65.4845 19.9471 65.4479 20.0059 65.3369 20.0898L66.5435 21.6849ZM66.8146 18.0708L64.1566 14.537L62.5583 15.7392L65.2163 19.273L66.8146 18.0708ZM62.7546 14.3402L60.5378 16.0153L61.7435 17.611L63.9603 15.9359L62.7546 14.3402ZM60.3409 17.4135L62.9774 20.9257L64.5769 19.7251L61.9404 16.2128L60.3409 17.4135Z" fill="#E6E0BA" style="fill:#E6E0BA;fill:color(display-p3 0.9020 0.8784 0.7294);fill-opacity:1;" mask="url(#path-20-inside-10_275_180)"/>
<mask id="path-22-inside-11_275_180" fill="white">
<path d="M70.5461 28.2145L65.0148 29.922L64.7996 29.2087L70.32 27.5012L69.33 24.2699L69.9972 24.0646L72.1925 31.2512L71.5253 31.4566L70.5461 28.2145Z"/>
</mask>
<path d="M70.5461 28.2145L65.0148 29.922L64.7996 29.2087L70.32 27.5012L69.33 24.2699L69.9972 24.0646L72.1925 31.2512L71.5253 31.4566L70.5461 28.2145Z" fill="#231A22" style="fill:#231A22;fill:color(display-p3 0.1373 0.1020 0.1333);fill-opacity:1;"/>
<path d="M70.5461 28.2145L71.5033 27.9253L71.2124 26.9622L70.2511 27.259L70.5461 28.2145ZM65.0148 29.922L64.0574 30.2108L64.3481 31.1744L65.3097 30.8775L65.0148 29.922ZM64.7996 29.2087L64.5041 28.2534L63.5553 28.5468L63.8422 29.4976L64.7996 29.2087ZM70.32 27.5012L70.6155 28.4565L71.5683 28.1618L71.2762 27.2083L70.32 27.5012ZM69.33 24.2699L69.0359 23.3142L68.0813 23.6079L68.3739 24.5629L69.33 24.2699ZM69.9972 24.0646L70.9536 23.7724L70.6608 22.8141L69.7031 23.1088L69.9972 24.0646ZM72.1925 31.2512L72.4867 32.207L73.4404 31.9135L73.1489 30.9591L72.1925 31.2512ZM71.5253 31.4566L70.5681 31.7457L70.8587 32.708L71.8195 32.4123L71.5253 31.4566ZM70.2511 27.259L64.7198 28.9665L65.3097 30.8775L70.841 29.17L70.2511 27.259ZM65.9721 29.6331L65.7569 28.9199L63.8422 29.4976L64.0574 30.2108L65.9721 29.6331ZM65.0951 30.1641L70.6155 28.4565L70.0246 26.5459L64.5041 28.2534L65.0951 30.1641ZM71.2762 27.2083L70.2862 23.977L68.3739 24.5629L69.3639 27.7941L71.2762 27.2083ZM69.6242 25.2257L70.2914 25.0203L69.7031 23.1088L69.0359 23.3142L69.6242 25.2257ZM69.0408 24.3567L71.2362 31.5434L73.1489 30.9591L70.9536 23.7724L69.0408 24.3567ZM71.8984 30.2955L71.2312 30.5008L71.8195 32.4123L72.4867 32.207L71.8984 30.2955ZM72.4826 31.1674L71.5033 27.9253L69.5888 28.5036L70.5681 31.7457L72.4826 31.1674Z" fill="#E6E0BA" style="fill:#E6E0BA;fill:color(display-p3 0.9020 0.8784 0.7294);fill-opacity:1;" mask="url(#path-22-inside-11_275_180)"/>
<mask id="path-24-inside-12_275_180" fill="white">
<path d="M66.2101 35.369L72.6668 35.7365L72.2686 42.7718L71.5799 42.7286L71.935 36.4389L69.8366 36.32L69.5138 42.0586L68.8251 42.0154L69.1479 36.2768L66.8557 36.1471L66.4898 42.6313L65.8011 42.5881L66.2101 35.369Z"/>
</mask>
<path d="M66.2101 35.369L72.6668 35.7365L72.2686 42.7718L71.5799 42.7286L71.935 36.4389L69.8366 36.32L69.5138 42.0586L68.8251 42.0154L69.1479 36.2768L66.8557 36.1471L66.4898 42.6313L65.8011 42.5881L66.2101 35.369Z" fill="#231A22" style="fill:#231A22;fill:color(display-p3 0.1373 0.1020 0.1333);fill-opacity:1;"/>
<path d="M66.2101 35.369L66.2669 34.3706L65.2683 34.3138L65.2117 35.3125L66.2101 35.369ZM72.6668 35.7365L73.6652 35.793L73.7217 34.7949L72.7236 34.7381L72.6668 35.7365ZM72.2686 42.7718L72.206 43.7699L73.2102 43.8329L73.267 42.8283L72.2686 42.7718ZM71.5799 42.7286L70.5815 42.6722L70.5255 43.6644L71.5173 43.7267L71.5799 42.7286ZM71.935 36.4389L72.9334 36.4953L72.9898 35.4971L71.9916 35.4405L71.935 36.4389ZM69.8366 36.32L69.8932 35.3216L68.8944 35.2651L68.8382 36.2639L69.8366 36.32ZM69.5138 42.0586L69.4511 43.0566L70.4556 43.1196L70.5122 42.1147L69.5138 42.0586ZM68.8251 42.0154L67.8266 41.9592L67.7708 42.9512L68.7624 43.0134L68.8251 42.0154ZM69.1479 36.2768L70.1463 36.333L70.2024 35.3349L69.2044 35.2784L69.1479 36.2768ZM66.8557 36.1471L66.9122 35.1487L65.9137 35.0922L65.8573 36.0908L66.8557 36.1471ZM66.4898 42.6313L66.4272 43.6294L67.4316 43.6924L67.4883 42.6877L66.4898 42.6313ZM65.8011 42.5881L64.8027 42.5316L64.7465 43.5239L65.7385 43.5862L65.8011 42.5881ZM66.1533 36.3674L72.61 36.7349L72.7236 34.7381L66.2669 34.3706L66.1533 36.3674ZM71.6684 35.68L71.2702 42.7153L73.267 42.8283L73.6652 35.793L71.6684 35.68ZM72.3312 41.7738L71.6425 41.7306L71.5173 43.7267L72.206 43.7699L72.3312 41.7738ZM72.5783 42.785L72.9334 36.4953L70.9366 36.3826L70.5815 42.6722L72.5783 42.785ZM71.9916 35.4405L69.8932 35.3216L69.78 37.3184L71.8785 37.4373L71.9916 35.4405ZM68.8382 36.2639L68.5153 42.0024L70.5122 42.1147L70.835 36.3762L68.8382 36.2639ZM69.5764 41.0605L68.8877 41.0173L68.7624 43.0134L69.4511 43.0566L69.5764 41.0605ZM69.8235 42.0715L70.1463 36.333L68.1495 36.2207L67.8266 41.9592L69.8235 42.0715ZM69.2044 35.2784L66.9122 35.1487L66.7992 37.1455L69.0914 37.2752L69.2044 35.2784ZM65.8573 36.0908L65.4914 42.575L67.4883 42.6877L67.8541 36.2035L65.8573 36.0908ZM66.5525 41.6333L65.8638 41.5901L65.7385 43.5862L66.4272 43.6294L66.5525 41.6333ZM66.7995 42.6447L67.2085 35.4256L65.2117 35.3125L64.8027 42.5316L66.7995 42.6447Z" fill="#E6E0BA" style="fill:#E6E0BA;fill:color(display-p3 0.9020 0.8784 0.7294);fill-opacity:1;" mask="url(#path-24-inside-12_275_180)"/>
<mask id="path-26-inside-13_275_180" fill="white">
<path d="M65.7793 45.0519L66.3173 45.4842C65.4887 46.4676 64.8215 47.5915 64.348 48.7911C63.9714 49.7637 63.4871 51.5901 64.4772 51.9792C65.295 52.2926 65.7793 51.1686 66.4788 49.634C67.2321 47.9373 68.0499 46.165 69.5565 46.7486C71.063 47.343 70.6218 49.353 70.0945 50.7039C69.6641 51.7954 69.1045 52.8437 68.4481 53.8163L67.8562 53.4273C68.5127 52.4655 69.0615 51.428 69.4919 50.3473C69.7717 49.6232 70.3313 47.8617 69.3197 47.4618C68.3943 47.0944 67.7593 48.4993 67.1244 49.9366C66.3819 51.6225 65.6286 53.2436 64.2297 52.7032C62.7231 52.1088 63.1428 49.9799 63.7454 48.4128C64.2297 47.1917 64.9076 46.0461 65.7793 45.0519Z"/>
</mask>
<path d="M65.7793 45.0519L66.3173 45.4842C65.4887 46.4676 64.8215 47.5915 64.348 48.7911C63.9714 49.7637 63.4871 51.5901 64.4772 51.9792C65.295 52.2926 65.7793 51.1686 66.4788 49.634C67.2321 47.9373 68.0499 46.165 69.5565 46.7486C71.063 47.343 70.6218 49.353 70.0945 50.7039C69.6641 51.7954 69.1045 52.8437 68.4481 53.8163L67.8562 53.4273C68.5127 52.4655 69.0615 51.428 69.4919 50.3473C69.7717 49.6232 70.3313 47.8617 69.3197 47.4618C68.3943 47.0944 67.7593 48.4993 67.1244 49.9366C66.3819 51.6225 65.6286 53.2436 64.2297 52.7032C62.7231 52.1088 63.1428 49.9799 63.7454 48.4128C64.2297 47.1917 64.9076 46.0461 65.7793 45.0519Z" fill="#231A22" style="fill:#231A22;fill:color(display-p3 0.1373 0.1020 0.1333);fill-opacity:1;"/>
<path d="M65.7793 45.0519L66.4056 44.2723L65.6588 43.6724L65.0273 44.3926L65.7793 45.0519ZM66.3173 45.4842L67.0821 46.1285L67.7416 45.3457L66.9436 44.7046L66.3173 45.4842ZM64.348 48.7911L63.4179 48.4239L63.4155 48.43L64.348 48.7911ZM64.4772 51.9792L64.1114 52.9099L64.1193 52.913L64.4772 51.9792ZM66.4788 49.634L67.3888 50.0488L67.3927 50.0398L66.4788 49.634ZM69.5565 46.7486L69.9235 45.8183L69.9177 45.8161L69.5565 46.7486ZM70.0945 50.7039L71.0248 51.0708L71.0261 51.0675L70.0945 50.7039ZM68.4481 53.8163L67.8988 54.652L68.7243 55.1946L69.277 54.3758L68.4481 53.8163ZM67.8562 53.4273L67.0302 52.8636L66.4566 53.704L67.3069 54.2629L67.8562 53.4273ZM69.4919 50.3473L70.421 50.7174L70.4247 50.7077L69.4919 50.3473ZM69.3197 47.4618L68.9507 48.3912L68.9521 48.3918L69.3197 47.4618ZM67.1244 49.9366L66.2097 49.5326L66.2093 49.5336L67.1244 49.9366ZM64.2297 52.7032L63.8627 53.6335L63.8694 53.6361L64.2297 52.7032ZM63.7454 48.4128L62.8158 48.0442L62.8121 48.0539L63.7454 48.4128ZM65.153 45.8315L65.691 46.2637L66.9436 44.7046L66.4056 44.2723L65.153 45.8315ZM65.5526 44.8398C64.6531 45.9074 63.9305 47.1253 63.4179 48.4239L65.2782 49.1582C65.7126 48.0578 66.3244 47.0278 67.0821 46.1285L65.5526 44.8398ZM63.4155 48.43C63.212 48.9556 62.9572 49.7624 62.9026 50.5333C62.8754 50.9169 62.8914 51.37 63.0469 51.7963C63.214 52.2545 63.5496 52.6891 64.1114 52.9099L64.8429 51.0485C64.9097 51.0747 64.9346 51.1352 64.9258 51.1111C64.9054 51.0551 64.8804 50.9178 64.8976 50.6746C64.9318 50.1919 65.1075 49.5992 65.2806 49.1522L63.4155 48.43ZM64.1193 52.913C64.5746 53.0874 65.0502 53.071 65.4822 52.856C65.865 52.6655 66.1391 52.3558 66.3352 52.0821C66.7174 51.5487 67.0604 50.7692 67.3887 50.0488L65.5688 49.2193C65.1977 50.0335 64.9487 50.5833 64.7095 50.9171C64.5949 51.0771 64.5509 51.0855 64.591 51.0655C64.6803 51.0211 64.7887 51.0276 64.835 51.0454L64.1193 52.913ZM67.3927 50.0398C67.7851 49.1562 68.1231 48.4311 68.5022 47.9778C68.6812 47.7638 68.8131 47.6819 68.8915 47.653C68.9425 47.6342 69.0241 47.6148 69.1953 47.6811L69.9177 45.8161C69.3356 45.5906 68.7499 45.5738 68.2003 45.7763C67.6781 45.9686 67.276 46.3264 66.9681 46.6947C66.3733 47.4058 65.9258 48.4152 65.5648 49.2283L67.3927 50.0398ZM69.1895 47.6788C69.3537 47.7436 69.4273 47.8249 69.4754 47.9117C69.5342 48.018 69.584 48.1918 69.5883 48.4588C69.5973 49.0104 69.4104 49.7066 69.163 50.3403L71.0261 51.0675C71.306 50.3504 71.6033 49.3661 71.5881 48.4263C71.5803 47.9477 71.4909 47.4231 71.2252 46.9431C70.9487 46.4436 70.5126 46.0508 69.9235 45.8184L69.1895 47.6788ZM69.1643 50.3371C68.7619 51.3574 68.2371 52.3414 67.6192 53.2569L69.277 54.3758C69.9719 53.3461 70.5663 52.2335 71.0248 51.0708L69.1643 50.3371ZM68.9973 52.9807L68.4055 52.5917L67.3069 54.2629L67.8988 54.652L68.9973 52.9807ZM68.6822 53.991C69.3809 52.9673 69.9639 51.8647 70.4209 50.7173L68.5629 49.9773C68.159 50.9913 67.6444 51.9637 67.0302 52.8636L68.6822 53.991ZM70.4247 50.7077C70.5735 50.3227 70.826 49.5932 70.8866 48.8661C70.9169 48.5034 70.9073 48.0594 70.7515 47.6349C70.5826 47.1749 70.2428 46.7514 69.6873 46.5318L68.9521 48.3918C68.9024 48.3722 68.872 48.3188 68.874 48.3241C68.889 48.3651 68.9117 48.4817 68.8935 48.6999C68.8573 49.1345 68.6901 49.6478 68.5591 49.9869L70.4247 50.7077ZM69.6887 46.5324C69.1781 46.3297 68.6642 46.3731 68.2187 46.6018C67.8196 46.8068 67.523 47.1346 67.3052 47.4331C66.8747 48.0233 66.5133 48.8452 66.2097 49.5326L68.0392 50.3407C68.3704 49.5908 68.644 48.9915 68.921 48.6118C68.9842 48.5252 69.0368 48.4656 69.0777 48.4264C69.1188 48.387 69.1377 48.3782 69.1324 48.3809C69.0862 48.4047 68.9986 48.4103 68.9507 48.3912L69.6887 46.5324ZM66.2093 49.5336C65.8224 50.4118 65.5028 51.0963 65.1543 51.5155C64.991 51.7119 64.8784 51.777 64.8234 51.7972C64.7954 51.8074 64.7375 51.8274 64.59 51.7704L63.8694 53.6361C64.4214 53.8493 64.9822 53.8692 65.5122 53.6748C66.015 53.4903 66.3995 53.1461 66.6922 52.7941C67.2556 52.1164 67.6839 51.1473 68.0396 50.3397L66.2093 49.5336ZM64.5967 51.773C64.3789 51.6871 64.2025 51.5085 64.1965 50.9127C64.1904 50.2969 64.3942 49.5117 64.6788 48.7718L62.8121 48.0539C62.494 48.881 62.1867 49.9438 62.1966 50.9328C62.2068 51.9419 62.5738 53.125 63.8627 53.6334L64.5967 51.773ZM64.675 48.7815C65.1206 47.6577 65.741 46.6124 66.5312 45.7111L65.0273 44.3926C64.0742 45.4798 63.3387 46.7256 62.8158 48.0442L64.675 48.7815Z" fill="#E6E0BA" style="fill:#E6E0BA;fill:color(display-p3 0.9020 0.8784 0.7294);fill-opacity:1;" mask="url(#path-26-inside-13_275_180)"/>
<mask id="path-28-inside-14_275_180" fill="white">
<path d="M55.965 60.5277L56.5461 59.9009L58.4293 60.1927L61.9052 56.2481L61.3886 54.4109L61.9482 53.7733L64.1005 61.1437L63.5409 61.7813L55.965 60.5277ZM62.2818 57.5666L62.1419 56.9938L59.1933 60.3439L59.7637 60.4196L63.3041 61.014L62.2818 57.5666Z"/>
</mask>
<path d="M55.965 60.5277L56.5461 59.9009L58.4293 60.1927L61.9052 56.2481L61.3886 54.4109L61.9482 53.7733L64.1005 61.1437L63.5409 61.7813L55.965 60.5277ZM62.2818 57.5666L62.1419 56.9938L59.1933 60.3439L59.7637 60.4196L63.3041 61.014L62.2818 57.5666Z" fill="#231A22" style="fill:#231A22;fill:color(display-p3 0.1373 0.1020 0.1333);fill-opacity:1;"/>
<path d="M55.965 60.5277L55.2316 59.8478L53.968 61.2109L55.8017 61.5143L55.965 60.5277ZM56.5461 59.9009L56.6992 58.9127L56.174 58.8313L55.8127 59.221L56.5461 59.9009ZM58.4293 60.1927L58.2762 61.1809L58.8174 61.2648L59.1796 60.8538L58.4293 60.1927ZM61.9052 56.2481L62.6555 56.9092L63.0151 56.5011L62.8679 55.9774L61.9052 56.2481ZM61.3886 54.4109L60.637 53.7513L60.2791 54.1592L60.426 54.6816L61.3886 54.4109ZM61.9482 53.7733L62.9081 53.493L62.3977 51.7451L61.1966 53.1137L61.9482 53.7733ZM64.1005 61.1437L64.852 61.8033L65.2143 61.3906L65.0604 60.8634L64.1005 61.1437ZM63.5409 61.7813L63.3776 62.7679L63.9259 62.8586L64.2925 62.4409L63.5409 61.7813ZM62.2818 57.5666L61.3104 57.8038L61.3161 57.8275L61.3231 57.8509L62.2818 57.5666ZM62.1419 56.9938L63.1134 56.7566L62.6584 54.8934L61.3913 56.3331L62.1419 56.9938ZM59.1933 60.3439L58.4427 59.6832L57.2054 61.089L59.0618 61.3352L59.1933 60.3439ZM59.7637 60.4196L59.9293 59.4334L59.9123 59.4305L59.8952 59.4283L59.7637 60.4196ZM63.3041 61.014L63.1386 62.0002L64.7183 62.2655L64.2629 60.7297L63.3041 61.014ZM56.6983 61.2076L57.2794 60.5807L55.8127 59.221L55.2316 59.8478L56.6983 61.2076ZM56.393 60.8891L58.2762 61.1809L58.5824 59.2045L56.6992 58.9127L56.393 60.8891ZM59.1796 60.8538L62.6555 56.9092L61.1549 55.587L57.679 59.5316L59.1796 60.8538ZM62.8679 55.9774L62.3513 54.1403L60.426 54.6816L60.9425 56.5188L62.8679 55.9774ZM62.1402 55.0705L62.6998 54.4329L61.1966 53.1137L60.637 53.7513L62.1402 55.0705ZM60.9883 54.0536L63.1405 61.424L65.0604 60.8634L62.9081 53.493L60.9883 54.0536ZM63.3489 60.4841L62.7893 61.1216L64.2925 62.4409L64.852 61.8033L63.3489 60.4841ZM63.7041 60.7947L56.1282 59.5411L55.8017 61.5143L63.3776 62.7679L63.7041 60.7947ZM63.2533 57.3293L63.1134 56.7566L61.1705 57.231L61.3104 57.8038L63.2533 57.3293ZM61.3913 56.3331L58.4427 59.6832L59.944 61.0046L62.8926 57.6545L61.3913 56.3331ZM59.0618 61.3352L59.6322 61.4109L59.8952 59.4283L59.3248 59.3526L59.0618 61.3352ZM59.5981 61.4058L63.1386 62.0002L63.4697 60.0278L59.9293 59.4334L59.5981 61.4058ZM64.2629 60.7297L63.2405 57.2822L61.3231 57.8509L62.3454 61.2983L64.2629 60.7297Z" fill="#E6E0BA" style="fill:#E6E0BA;fill:color(display-p3 0.9020 0.8784 0.7294);fill-opacity:1;" mask="url(#path-28-inside-14_275_180)"/>
<mask id="path-30-inside-15_275_180" fill="white">
<path d="M51.2625 70.6322L50.6168 70.9996L47.4961 65.3043L48.1418 64.9368L56.2988 66.7849L55.8683 66.0392L53.6085 61.9217L54.2541 61.5651L57.3749 67.2604L56.74 67.617L48.583 65.769L49.0242 66.5687L51.2625 70.6322Z"/>
</mask>
<path d="M51.2625 70.6322L50.6168 70.9996L47.4961 65.3043L48.1418 64.9368L56.2988 66.7849L55.8683 66.0392L53.6085 61.9217L54.2541 61.5651L57.3749 67.2604L56.74 67.617L48.583 65.769L49.0242 66.5687L51.2625 70.6322Z" fill="#231A22" style="fill:#231A22;fill:color(display-p3 0.1373 0.1020 0.1333);fill-opacity:1;"/>
<path d="M51.2625 70.6322L51.7571 71.5013L52.6143 71.0135L52.1384 70.1497L51.2625 70.6322ZM50.6168 70.9996L49.7399 71.4802L50.2282 72.3714L51.1115 71.8687L50.6168 70.9996ZM47.4961 65.3043L47.0015 64.4352L46.1463 64.9219L46.6191 65.7848L47.4961 65.3043ZM48.1418 64.9368L48.3627 63.9616L47.9843 63.8758L47.6472 64.0677L48.1418 64.9368ZM56.2988 66.7849L56.0778 67.7601L58.3081 68.2654L57.1648 66.2849L56.2988 66.7849ZM55.8683 66.0392L54.9917 66.5203L54.9969 66.5298L55.0023 66.5391L55.8683 66.0392ZM53.6085 61.9217L53.125 61.0464L52.252 61.5286L52.7318 62.4029L53.6085 61.9217ZM54.2541 61.5651L55.1311 61.0845L54.649 60.2046L53.7706 60.6897L54.2541 61.5651ZM57.3749 67.2604L57.8647 68.1322L58.7274 67.6476L58.2519 66.7798L57.3749 67.2604ZM56.74 67.617L56.519 68.5923L56.8943 68.6773L57.2297 68.4889L56.74 67.617ZM48.583 65.769L48.8039 64.7937L46.6312 64.3015L47.7074 66.2521L48.583 65.769ZM49.0242 66.5687L49.9001 66.0862L49.8998 66.0856L49.0242 66.5687ZM50.7679 69.763L50.1222 70.1305L51.1115 71.8687L51.7571 71.5013L50.7679 69.763ZM51.4938 70.5191L48.3731 64.8238L46.6191 65.7848L49.7399 71.4802L51.4938 70.5191ZM47.9907 66.1734L48.6364 65.806L47.6472 64.0677L47.0015 64.4352L47.9907 66.1734ZM47.9208 65.9121L56.0778 67.7601L56.5197 65.8096L48.3627 63.9616L47.9208 65.9121ZM57.1648 66.2849L56.7344 65.5392L55.0023 66.5391L55.4327 67.2848L57.1648 66.2849ZM56.745 65.558L54.4851 61.4406L52.7318 62.4029L54.9917 66.5203L56.745 65.558ZM54.092 62.7971L54.7377 62.4404L53.7706 60.6897L53.125 61.0464L54.092 62.7971ZM53.3772 62.0456L56.4979 67.7409L58.2519 66.7798L55.1311 61.0845L53.3772 62.0456ZM56.8851 66.3885L56.2502 66.7452L57.2297 68.4889L57.8647 68.1322L56.8851 66.3885ZM56.9609 66.6417L48.8039 64.7937L48.362 66.7443L56.519 68.5923L56.9609 66.6417ZM47.7074 66.2521L48.1486 67.0518L49.8998 66.0856L49.4586 65.2859L47.7074 66.2521ZM48.1483 67.0512L50.3866 71.1146L52.1384 70.1497L49.9001 66.0862L48.1483 67.0512Z" fill="#E6E0BA" style="fill:#E6E0BA;fill:color(display-p3 0.9020 0.8784 0.7294);fill-opacity:1;" mask="url(#path-30-inside-15_275_180)"/>
<mask id="path-32-inside-16_275_180" fill="white">
<path d="M36.7565 67.8656L37.5959 67.7036L38.9195 69.076L44.0634 68.0602L44.7628 66.277L45.6238 66.1257L42.8689 73.2908L42.0295 73.4528L36.7565 67.8656ZM43.5684 69.3462L43.8051 68.8058L39.4468 69.692L39.8557 70.1027L42.2985 72.7396L43.5684 69.3462Z"/>
</mask>
<path d="M36.7565 67.8656L37.5959 67.7036L38.9195 69.076L44.0634 68.0602L44.7628 66.277L45.6238 66.1257L42.8689 73.2908L42.0295 73.4528L36.7565 67.8656ZM43.5684 69.3462L43.8051 68.8058L39.4468 69.692L39.8557 70.1027L42.2985 72.7396L43.5684 69.3462Z" fill="#231A22" style="fill:#231A22;fill:color(display-p3 0.1373 0.1020 0.1333);fill-opacity:1;"/>
<path d="M36.7565 67.8656L36.5669 66.8838L34.7803 67.2287L36.0292 68.552L36.7565 67.8656ZM37.5959 67.7036L38.3157 67.0094L37.939 66.6189L37.4063 66.7217L37.5959 67.7036ZM38.9195 69.076L38.1997 69.7702L38.5782 70.1627L39.1132 70.0571L38.9195 69.076ZM44.0634 68.0602L44.2571 69.0412L44.7943 68.9351L44.9943 68.4253L44.0634 68.0602ZM44.7628 66.277L44.5897 65.2921L44.0369 65.3893L43.8319 65.9119L44.7628 66.277ZM45.6238 66.1257L46.5571 66.4846L47.1914 64.8349L45.4506 65.1408L45.6238 66.1257ZM42.8689 73.2908L43.0585 74.2726L43.6032 74.1675L43.8023 73.6497L42.8689 73.2908ZM42.0295 73.4528L41.3022 74.1392L41.6795 74.5389L42.2191 74.4347L42.0295 73.4528ZM43.5684 69.3462L42.6524 68.9449L42.6414 68.97L42.6318 68.9957L43.5684 69.3462ZM43.8051 68.8058L44.721 69.2072L45.4945 67.4419L43.6058 67.8259L43.8051 68.8058ZM39.4468 69.692L39.2475 68.7121L37.4281 69.082L38.7382 70.3976L39.4468 69.692ZM39.8557 70.1027L40.5893 69.4231L40.577 69.4099L40.5643 69.3971L39.8557 70.1027ZM42.2985 72.7396L41.5649 73.4192L42.6669 74.6087L43.2351 73.0901L42.2985 72.7396ZM36.946 68.8475L37.7854 68.6854L37.4063 66.7217L36.5669 66.8838L36.946 68.8475ZM36.8761 68.3978L38.1997 69.7702L39.6393 68.3818L38.3157 67.0094L36.8761 68.3978ZM39.1132 70.0571L44.2571 69.0412L43.8696 67.0791L38.7257 68.095L39.1132 70.0571ZM44.9943 68.4253L45.6938 66.6422L43.8319 65.9119L43.1324 67.695L44.9943 68.4253ZM44.9359 67.2619L45.7969 67.1106L45.4506 65.1408L44.5897 65.2921L44.9359 67.2619ZM44.6904 65.7669L41.9355 72.9319L43.8023 73.6497L46.5571 66.4846L44.6904 65.7669ZM42.6793 72.3089L41.8399 72.471L42.2191 74.4347L43.0585 74.2726L42.6793 72.3089ZM42.7568 72.7665L37.4837 67.1793L36.0292 68.552L41.3022 74.1392L42.7568 72.7665ZM44.4843 69.7475L44.721 69.2072L42.8892 68.4045L42.6524 68.9449L44.4843 69.7475ZM43.6058 67.8259L39.2475 68.7121L39.646 70.672L44.0044 69.7858L43.6058 67.8259ZM38.7382 70.3976L39.1471 70.8083L40.5643 69.3971L40.1554 68.9864L38.7382 70.3976ZM39.1221 70.7823L41.5649 73.4192L43.0321 72.06L40.5893 69.4231L39.1221 70.7823ZM43.2351 73.0901L44.5049 69.6967L42.6318 68.9957L41.362 72.3891L43.2351 73.0901Z" fill="#E6E0BA" style="fill:#E6E0BA;fill:color(display-p3 0.9020 0.8784 0.7294);fill-opacity:1;" mask="url(#path-32-inside-16_275_180)"/>
</svg>
