<svg width="345" height="202" viewBox="0 0 345 202" fill="none" xmlns="http://www.w3.org/2000/svg">
<path d="M60.2531 143.945C60.0977 148.924 60.4039 149.787 61.4639 154.652C61.8934 156.621 62.4463 158.622 63.6297 160.262C66.7367 164.556 73.6819 164.793 77.7942 161.49C81.9064 158.188 83.4417 152.354 82.6192 147.096C81.7968 141.839 78.9867 137.138 75.7883 132.894C74.8196 131.606 73.7459 130.295 72.2472 129.697C69.8347 128.747 67.0612 129.975 65.1832 131.761C61.1441 135.594 60.0246 139.107 60.2257 146.553" fill="#E6E0BA" style="fill:#E6E0BA;fill:color(display-p3 0.9020 0.8784 0.7294);fill-opacity:1;"/>
<path d="M159.802 67.8176C159.084 72.605 159.295 78.5846 163.558 80.8732C166.299 82.335 169.763 81.5767 172.294 79.8088C174.825 78.041 176.607 75.4143 178.334 72.8517L190.781 54.3601C192.408 51.9482 194.071 49.4449 194.582 46.5944C195.094 43.7439 194.148 40.391 191.599 38.9886C189.611 37.8922 187.158 38.1892 184.964 38.7784C170.115 42.7481 162.918 52.7659 159.802 67.8176Z" fill="#E6E0BA" style="fill:#E6E0BA;fill:color(display-p3 0.9020 0.8784 0.7294);fill-opacity:1;"/>
<path d="M201.043 150.819C201.857 153.711 203.428 156.155 206.069 157.128C208.71 158.101 211.616 157.841 214.413 157.585L225.223 156.52C228.541 156.191 232.132 155.739 234.499 153.391C238.067 149.846 236.889 143.369 233.197 139.952C229.505 136.535 224.182 135.553 219.155 135.361C214.234 135.174 209.012 135.704 205.028 138.595C203.022 140.089 201.577 142.215 200.926 144.629C200.276 147.044 200.457 149.607 201.441 151.907" fill="#E6E0BA" style="fill:#E6E0BA;fill:color(display-p3 0.9020 0.8784 0.7294);fill-opacity:1;"/>
<path d="M235.614 68.1374C234.508 78.9226 233.987 87.6065 240.704 96.1214C244.848 101.411 251.391 104.417 258.016 105.522C264.642 106.628 271.432 106.03 278.098 105.152C283.01 104.504 288.009 103.682 292.368 101.324C303.791 95.153 307.195 77.9359 298.997 67.877C290.531 57.4938 275.155 56.9137 261.759 57.1923L248.554 57.471C245.278 57.5395 241.837 57.6491 239.004 59.2982C236.171 60.9473 235.783 66.9771 235.399 69.9509" fill="#E6E0BA" style="fill:#E6E0BA;fill:color(display-p3 0.9020 0.8784 0.7294);fill-opacity:1;"/>
<path d="M35.6435 69.3388C33.7747 74.0074 34.122 77.6618 33.8158 81.8781C33.5097 86.0945 34.3641 90.7082 37.4712 93.5633C41.8987 97.6243 49.3511 96.4366 53.9202 92.54C58.4894 88.6435 60.8517 82.81 62.8987 77.1639C64.4933 72.774 65.9555 67.6943 63.6526 63.6287C62.3184 61.2716 59.8922 59.6956 57.3288 58.8185C47.9575 55.6209 36.5208 62.4182 34.8713 72.1847" fill="#E6E0BA" style="fill:#E6E0BA;fill:color(display-p3 0.9020 0.8784 0.7294);fill-opacity:1;"/>
<path d="M111.574 134.246C114.983 109.19 113.603 88.1088 107.462 63.9894C106.946 61.9612 106.352 59.8782 104.972 58.2976C101.929 54.8305 96.03 55.3375 92.4706 58.2702C88.9112 61.2029 87.216 65.8075 86.0737 70.2751C80.5496 91.978 85.0137 116.015 97.9536 134.292C99.9732 137.147 102.523 140.071 106.018 140.491C109.514 140.911 111.044 139.006 111.57 134.246" fill="#E6E0BA" style="fill:#E6E0BA;fill:color(display-p3 0.9020 0.8784 0.7294);fill-opacity:1;"/>
<path d="M22.0365 89.2874C24.4947 89.2874 27.1494 88.3738 28.3968 86.2633C29.6442 84.1529 28.7029 80.8136 26.2995 80.2929C24.9928 80.0096 23.6403 80.5715 22.5391 81.3252C21.0541 82.3485 19.7976 83.8834 19.6331 85.6786C19.4686 87.4739 20.8577 89.4244 22.6625 89.4244" fill="#E6E0BA" style="fill:#E6E0BA;fill:color(display-p3 0.9020 0.8784 0.7294);fill-opacity:1;"/>
<path d="M294.278 121.894C294.004 122.762 293.942 123.684 294.099 124.58C294.52 126.81 297.174 128.235 299.413 127.86C300.738 127.645 301.908 126.892 303.028 126.156C309.255 122.072 315.821 117.582 318.645 110.689C319.591 108.373 319.874 105.289 317.9 103.745C316.831 102.909 315.374 102.781 314.021 102.873C304.54 103.54 297.449 112.941 294.278 121.894Z" fill="#E6E0BA" style="fill:#E6E0BA;fill:color(display-p3 0.9020 0.8784 0.7294);fill-opacity:1;"/>
<path d="M183.795 152.459C186.262 149.303 188.793 146.023 189.78 142.145C190.767 138.266 189.812 133.58 186.459 131.382C182.735 128.938 177.265 130.638 174.761 134.324C172.257 138.011 172.363 143.004 174.053 147.138C175.566 150.792 179.216 154.319 183.045 153.259L183.795 152.459Z" fill="#E6E0BA" style="fill:#E6E0BA;fill:color(display-p3 0.9020 0.8784 0.7294);fill-opacity:1;"/>
</svg>
