<svg width="27" height="26" viewBox="0 0 27 26" fill="none" xmlns="http://www.w3.org/2000/svg">
<path fill-rule="evenodd" clip-rule="evenodd" d="M13.3804 2.46154C7.56014 2.46154 2.84191 7.17977 2.84191 13C2.84191 18.8202 7.56014 23.5385 13.3804 23.5385C19.2006 23.5385 23.9188 18.8202 23.9188 13C23.9188 7.17977 19.2006 2.46154 13.3804 2.46154ZM0.380371 13C0.380371 5.8203 6.20067 0 13.3804 0C20.5601 0 26.3804 5.8203 26.3804 13C26.3804 20.1797 20.5601 26 13.3804 26C6.20067 26 0.380371 20.1797 0.380371 13Z" fill="white" style="fill:white;fill-opacity:1;"/>
<path fill-rule="evenodd" clip-rule="evenodd" d="M12.1797 4C12.8313 4 13.3594 4.54449 13.3594 5.21615V12.4654L18.6545 17.9239C19.1152 18.3988 19.1152 19.1689 18.6545 19.6438C18.1938 20.1187 17.4468 20.1187 16.9861 19.6438L11.3455 13.8291C11.1243 13.601 11 13.2917 11 12.9691V5.21615C11 4.54449 11.5282 4 12.1797 4Z" fill="white" style="fill:white;fill-opacity:1;"/>
</svg>
