<svg width="16" height="16" viewBox="0 0 16 16" fill="none" xmlns="http://www.w3.org/2000/svg">
<g clip-path="url(#clip0_191_93)">
<path d="M13.7078 2.70753H1.41806C0.636094 2.70753 0 3.30498 0 4.03945V12.0309C0 12.7653 0.636094 13.3628 1.41806 13.3628H13.7078C14.4898 13.3628 15.1259 12.7653 15.1259 12.0309V4.03945C15.1259 3.30498 14.4898 2.70753 13.7078 2.70753ZM13.7078 3.59546C13.772 3.59546 13.8331 3.60798 13.889 3.62984L7.56294 8.77959L1.23686 3.62984C1.29271 3.60801 1.35381 3.59546 1.41803 3.59546H13.7078ZM13.7078 12.4748H1.41806C1.15726 12.4748 0.945364 12.2758 0.945364 12.0308V4.56795L7.2532 9.70263C7.3423 9.77502 7.45262 9.81103 7.56294 9.81103C7.67326 9.81103 7.78358 9.77505 7.87268 9.70263L14.1805 4.56795V12.0309C14.1805 12.2758 13.9686 12.4748 13.7078 12.4748Z" fill="white" style="fill:white;fill-opacity:1;"/>
</g>
<defs>
<clipPath id="clip0_191_93">
<rect width="15.1259" height="14.207" fill="white" style="fill:white;fill-opacity:1;" transform="translate(0 0.931442)"/>
</clipPath>
</defs>
</svg>
