<svg width="12" height="22" viewBox="0 0 12 22" fill="none" xmlns="http://www.w3.org/2000/svg">
<path d="M11.0874 0.570926L8.32394 0.56665C5.21934 0.56665 3.21301 2.55158 3.21301 5.6238V7.95548H0.43452C0.194426 7.95548 0 8.14317 0 8.3747V11.753C0 11.9846 0.194648 12.172 0.43452 12.172H3.21301V20.6967C3.21301 20.9282 3.40744 21.1157 3.64753 21.1157H7.27267C7.51277 21.1157 7.70719 20.928 7.70719 20.6967V12.172H10.9559C11.196 12.172 11.3904 11.9846 11.3904 11.753L11.3917 8.3747C11.3917 8.26353 11.3459 8.15707 11.2645 8.0784C11.1831 7.99973 11.0723 7.95548 10.957 7.95548H7.70719V5.97888C7.70719 5.02885 7.94197 4.54657 9.22535 4.54657L11.0869 4.54592C11.3268 4.54592 11.5212 4.35823 11.5212 4.12692V0.989932C11.5212 0.758837 11.327 0.571354 11.0874 0.570926Z" fill="white" style="fill:white;fill-opacity:1;"/>
</svg>
