<svg width="22" height="22" viewBox="0 0 22 22" fill="none" xmlns="http://www.w3.org/2000/svg">
<g clip-path="url(#clip0_290_183)">
<path d="M21.4495 6.60812C21.4014 5.51627 21.2248 4.76564 20.9719 4.1152C20.711 3.42478 20.3096 2.80664 19.7836 2.29279C19.2698 1.77093 18.6476 1.36543 17.9651 1.10858C17.3109 0.855646 16.5642 0.679081 15.4724 0.630941C14.3724 0.578725 14.0232 0.56665 11.2332 0.56665C8.44333 0.56665 8.09412 0.578725 6.99819 0.626864C5.90634 0.675004 5.15571 0.851726 4.50543 1.1045C3.81485 1.36543 3.19671 1.76685 2.68286 2.29279C2.161 2.80664 1.75565 3.42885 1.49865 4.11128C1.24572 4.76564 1.06915 5.5122 1.02101 6.60405C0.968796 7.70405 0.956722 8.05326 0.956722 10.8432C0.956722 13.6331 0.968796 13.9823 1.01694 15.0782C1.06508 16.1701 1.2418 16.9207 1.49473 17.5711C1.75565 18.2616 2.161 18.8797 2.68286 19.3936C3.19671 19.9154 3.81892 20.3209 4.50135 20.5778C5.15571 20.8307 5.90226 21.0073 6.99427 21.0554C8.09004 21.1037 8.43941 21.1156 11.2293 21.1156C14.0192 21.1156 14.3684 21.1037 15.4644 21.0554C16.5562 21.0073 17.3069 20.8307 17.9571 20.5778C19.3381 20.0438 20.43 18.952 20.9639 17.5711C21.2167 16.9168 21.3934 16.1701 21.4415 15.0782C21.4897 13.9823 21.5018 13.6331 21.5018 10.8432C21.5018 8.05326 21.4977 7.70405 21.4495 6.60812ZM19.5991 14.9979C19.5548 16.0015 19.3863 16.5434 19.2458 16.9047C18.9005 17.7999 18.19 18.5104 17.2948 18.8557C16.9335 18.9962 16.3876 19.1648 15.388 19.2088C14.3042 19.2571 13.9791 19.2691 11.2373 19.2691C8.49554 19.2691 8.1664 19.2571 7.08647 19.2088C6.08291 19.1648 5.54098 18.9962 5.1797 18.8557C4.73421 18.6911 4.3287 18.4301 3.99957 18.0889C3.65835 17.7557 3.39743 17.3543 3.23278 16.9088C3.09228 16.5475 2.92371 16.0015 2.87965 15.002C2.83135 13.9182 2.81944 13.5929 2.81944 10.8512C2.81944 8.1094 2.83135 7.78026 2.87965 6.70048C2.92371 5.69692 3.09228 5.15499 3.23278 4.7937C3.39743 4.34806 3.65835 3.94271 4.00364 3.61342C4.3367 3.2722 4.73813 3.01128 5.18377 2.84679C5.54506 2.70629 6.09106 2.53772 7.09055 2.4935C8.1744 2.44536 8.49962 2.43328 11.2412 2.43328C13.9871 2.43328 14.3121 2.44536 15.3921 2.4935C16.3956 2.53772 16.9376 2.70629 17.2989 2.84679C17.7443 3.01128 18.1498 3.2722 18.479 3.61342C18.8202 3.94663 19.0811 4.34806 19.2458 4.7937C19.3863 5.15499 19.5548 5.70084 19.5991 6.70048C19.6472 7.78433 19.6593 8.1094 19.6593 10.8512C19.6593 13.5929 19.6472 13.9141 19.5991 14.9979Z" fill="white" style="fill:white;fill-opacity:1;"/>
<path d="M11.2328 5.56445C8.31854 5.56445 5.95404 7.92879 5.95404 10.8432C5.95404 13.7576 8.31854 16.122 11.2328 16.122C14.1472 16.122 16.5116 13.7576 16.5116 10.8432C16.5116 7.92879 14.1472 5.56445 11.2328 5.56445ZM11.2328 14.2674C9.34218 14.2674 7.8086 12.734 7.8086 10.8432C7.8086 8.95243 9.34218 7.41901 11.2328 7.41901C13.1236 7.41901 14.657 8.95243 14.657 10.8432C14.657 12.734 13.1236 14.2674 11.2328 14.2674V14.2674Z" fill="white" style="fill:white;fill-opacity:1;"/>
<path d="M17.9527 5.35589C17.9527 6.03643 17.4009 6.58823 16.7202 6.58823C16.0397 6.58823 15.4879 6.03643 15.4879 5.35589C15.4879 4.67518 16.0397 4.12354 16.7202 4.12354C17.4009 4.12354 17.9527 4.67518 17.9527 5.35589V5.35589Z" fill="white" style="fill:white;fill-opacity:1;"/>
</g>
<defs>
<clipPath id="clip0_290_183">
<rect width="20.549" height="20.549" fill="white" style="fill:white;fill-opacity:1;" transform="translate(0.920105 0.56665)"/>
</clipPath>
</defs>
</svg>
