<svg width="15" height="14" viewBox="0 0 15 14" fill="none" xmlns="http://www.w3.org/2000/svg">
<g clip-path="url(#clip0_191_95)">
<path d="M10.0949 13.8629C9.64152 13.8629 9.19197 13.7876 8.75238 13.6376C6.81578 12.9768 5.0182 11.9006 3.55391 10.5253C2.08962 9.15003 0.943815 7.46162 0.240337 5.64267C0.0142743 5.05811 -0.0524389 4.4547 0.0421172 3.84912C0.130693 3.28188 0.364628 2.7312 0.718658 2.25661C1.07425 1.77993 1.54832 1.38346 2.0896 1.11007C2.66681 0.818539 3.29683 0.6707 3.9622 0.6707C4.16914 0.6707 4.348 0.806507 4.39137 0.99655L5.08028 4.01618C5.11147 4.15291 5.06673 4.29519 4.96147 4.39407L3.78431 5.4997C4.89479 7.57342 6.6967 9.26587 8.90455 10.3089L10.0817 9.20323C10.187 9.10437 10.3385 9.0624 10.484 9.09165L13.699 9.73871C13.9013 9.77944 14.0459 9.94743 14.0459 10.1418C14.0459 10.7668 13.8885 11.3585 13.5781 11.9007C13.287 12.4091 12.8649 12.8543 12.3574 13.1883C11.8521 13.5208 11.2658 13.7406 10.6619 13.8238C10.4726 13.8499 10.2834 13.8629 10.0949 13.8629ZM3.61152 1.51321C2.73385 1.60422 1.95485 2.03629 1.43755 2.72976C0.855842 3.50954 0.720194 4.46864 1.06539 5.36119C2.41787 8.85816 5.32892 11.5924 9.05207 12.8627C10.0023 13.1869 11.0235 13.0595 11.8537 12.5131C12.592 12.0273 13.052 11.2956 13.1489 10.4712L10.5336 9.94485L9.30422 11.0995C9.1734 11.2224 8.97463 11.2551 8.80725 11.1812C6.19605 10.0289 4.08241 8.04371 2.85567 5.59114C2.77703 5.4339 2.81176 5.2472 2.94258 5.12435L4.17194 3.96967L3.61152 1.51321Z" fill="white" style="fill:white;fill-opacity:1;"/>
</g>
<defs>
<clipPath id="clip0_191_95">
<rect width="14.0455" height="13.1922" fill="white" style="fill:white;fill-opacity:1;" transform="translate(0 0.6707)"/>
</clipPath>
</defs>
</svg>
