<svg width="31" height="29" viewBox="0 0 31 29" fill="none" xmlns="http://www.w3.org/2000/svg">
<g clip-path="url(#clip0_290_177)">
<path d="M15.5218 24.9666C15.5192 24.9666 15.5165 24.9666 15.5137 24.9666C14.5951 24.9606 6.47426 24.8902 4.17347 24.2991C2.56552 23.8885 1.2962 22.684 0.862803 21.1562C0.26078 19.0091 0.299103 14.8752 0.303284 14.5451C0.299335 14.2166 0.260548 10.0485 0.860945 7.88371C0.861642 7.88172 0.862107 7.87951 0.862803 7.87753C1.29133 6.36718 2.58921 5.12537 4.16952 4.71364C4.17347 4.71254 4.17765 4.71165 4.1816 4.71055C6.45637 4.1426 14.5932 4.0731 15.5137 4.06714H15.5302C16.4511 4.0731 24.5935 4.14348 26.8731 4.73548C28.4769 5.14501 29.7453 6.34799 30.1799 7.87378C30.8044 10.0401 30.7466 14.2172 30.7403 14.5698C30.7447 14.9171 30.7812 19.0139 30.1827 21.1719C30.1822 21.1741 30.1815 21.176 30.181 21.178C29.7474 22.7058 28.4783 23.9103 26.8685 24.3214C26.8664 24.3221 26.8641 24.3225 26.862 24.3232C24.5875 24.8909 16.4504 24.9604 15.5302 24.9666C15.5274 24.9666 15.5246 24.9666 15.5218 24.9666V24.9666ZM3.15988 8.46313C2.63125 10.374 2.68118 14.4888 2.68165 14.5303V14.5601C2.66585 15.7013 2.72137 19.0062 3.16011 20.5715C3.37286 21.321 3.99881 21.9148 4.79268 22.1176C6.49028 22.5538 13.1044 22.691 15.5218 22.7071C17.9455 22.691 24.5693 22.5575 26.2544 22.1387C27.0457 21.9353 27.6696 21.3435 27.8837 20.5931C28.3229 19.0049 28.378 15.7161 28.3619 14.5822C28.3619 14.5703 28.3619 14.5583 28.3622 14.5464C28.384 13.3915 28.341 10.0481 27.8858 8.47019C27.8853 8.46865 27.8849 8.4671 27.8846 8.46556C27.671 7.7127 27.0448 7.11894 26.2509 6.91616C24.5698 6.47949 17.945 6.34269 15.5218 6.32658C13.0998 6.34269 6.48239 6.47596 4.79221 6.89431C4.01344 7.09952 3.37333 7.71447 3.15988 8.46313V8.46313ZM29.0327 20.8841H29.0334H29.0327ZM12.4905 19.092V9.94148L20.8148 14.5169L12.4905 19.092Z" fill="white" style="fill:white;fill-opacity:1;"/>
<g clip-path="url(#clip1_290_177)">
<path d="M117.619 9.27637C39.9333 9.28801 -1.36001 58.3552 -1.36001 111.858C-1.36001 136.665 12.7036 167.619 35.2218 177.432C41.6455 180.284 40.7953 176.803 46.3215 155.966C46.7584 154.231 46.5341 152.73 45.1171 151.112C12.9279 114.407 38.8351 38.9495 113.026 38.9495C220.398 38.9495 200.336 185.418 131.707 185.418C114.018 185.418 100.84 171.728 105.008 154.79C110.062 134.616 119.957 112.929 119.957 98.389C119.957 61.7428 64.577 67.1792 64.577 115.734C64.577 130.74 69.9615 140.867 69.9615 140.867C69.9615 140.867 52.143 211.832 48.8367 225.091C43.2396 247.535 49.5924 283.867 50.1474 286.998C50.4898 288.721 52.45 289.268 53.5481 287.848C55.3076 285.578 76.8457 255.288 82.8797 233.391C85.076 225.417 94.0857 193.054 94.0857 193.054C100.025 203.625 117.147 212.472 135.391 212.472C189.661 212.472 228.888 165.442 228.888 107.085C228.699 51.1378 180.132 9.27637 117.619 9.27637V9.27637Z" fill="white" style="fill:white;fill-opacity:1;"/>
</g>
</g>
<defs>
<clipPath id="clip0_290_177">
<rect width="30.443" height="28.9209" fill="white" style="fill:white;fill-opacity:1;" transform="translate(0.301392)"/>
</clipPath>
<clipPath id="clip1_290_177">
<rect width="283.397" height="279.386" fill="white" style="fill:white;fill-opacity:1;" transform="translate(-27.928 9.27637)"/>
</clipPath>
</defs>
</svg>
